<?xml version="1.0" encoding="utf-8" standalone="no"?>
<!DOCTYPE svg PUBLIC "-//W3C//DTD SVG 1.1//EN"
  "http://www.w3.org/Graphics/SVG/1.1/DTD/svg11.dtd">
<!-- Created with matplotlib (https://matplotlib.org/) -->
<svg height="310.86825pt" version="1.1" viewBox="0 0 415.698125 310.86825" width="415.698125pt" xmlns="http://www.w3.org/2000/svg" xmlns:xlink="http://www.w3.org/1999/xlink">
 <defs>
  <style type="text/css">
*{stroke-linecap:butt;stroke-linejoin:round;}
  </style>
 </defs>
 <g id="figure_1">
  <g id="patch_1">
   <path d="M 0 310.86825 
L 415.698125 310.86825 
L 415.698125 0 
L 0 0 
z
" style="fill:#ffffff;"/>
  </g>
  <g id="axes_1">
   <g id="patch_2">
    <path d="M 51.378125 273.312 
L 408.498125 273.312 
L 408.498125 7.2 
L 51.378125 7.2 
z
" style="fill:#ffffff;"/>
   </g>
   <g id="matplotlib.axis_1">
    <g id="xtick_1">
     <g id="line2d_1">
      <defs>
       <path d="M 0 0 
L 0 3.5 
" id="m005983f62e" style="stroke:#000000;stroke-width:0.8;"/>
      </defs>
      <g>
       <use style="stroke:#000000;stroke-width:0.8;" x="67.610852" xlink:href="#m005983f62e" y="273.312"/>
      </g>
     </g>
     <g id="text_1">
      <!-- 0 -->
      <defs>
       <path d="M 31.78125 66.40625 
Q 24.171875 66.40625 20.328125 58.90625 
Q 16.5 51.421875 16.5 36.375 
Q 16.5 21.390625 20.328125 13.890625 
Q 24.171875 6.390625 31.78125 6.390625 
Q 39.453125 6.390625 43.28125 13.890625 
Q 47.125 21.390625 47.125 36.375 
Q 47.125 51.421875 43.28125 58.90625 
Q 39.453125 66.40625 31.78125 66.40625 
z
M 31.78125 74.21875 
Q 44.046875 74.21875 50.515625 64.515625 
Q 56.984375 54.828125 56.984375 36.375 
Q 56.984375 17.96875 50.515625 8.265625 
Q 44.046875 -1.421875 31.78125 -1.421875 
Q 19.53125 -1.421875 13.0625 8.265625 
Q 6.59375 17.96875 6.59375 36.375 
Q 6.59375 54.828125 13.0625 64.515625 
Q 19.53125 74.21875 31.78125 74.21875 
z
" id="DejaVuSans-48"/>
      </defs>
      <g transform="translate(64.429602 287.910437)scale(0.1 -0.1)">
       <use xlink:href="#DejaVuSans-48"/>
      </g>
     </g>
    </g>
    <g id="xtick_2">
     <g id="line2d_2">
      <g>
       <use style="stroke:#000000;stroke-width:0.8;" x="121.810276" xlink:href="#m005983f62e" y="273.312"/>
      </g>
     </g>
     <g id="text_2">
      <!-- 100 -->
      <defs>
       <path d="M 12.40625 8.296875 
L 28.515625 8.296875 
L 28.515625 63.921875 
L 10.984375 60.40625 
L 10.984375 69.390625 
L 28.421875 72.90625 
L 38.28125 72.90625 
L 38.28125 8.296875 
L 54.390625 8.296875 
L 54.390625 0 
L 12.40625 0 
z
" id="DejaVuSans-49"/>
      </defs>
      <g transform="translate(112.266526 287.910437)scale(0.1 -0.1)">
       <use xlink:href="#DejaVuSans-49"/>
       <use x="63.623047" xlink:href="#DejaVuSans-48"/>
       <use x="127.246094" xlink:href="#DejaVuSans-48"/>
      </g>
     </g>
    </g>
    <g id="xtick_3">
     <g id="line2d_3">
      <g>
       <use style="stroke:#000000;stroke-width:0.8;" x="176.009699" xlink:href="#m005983f62e" y="273.312"/>
      </g>
     </g>
     <g id="text_3">
      <!-- 200 -->
      <defs>
       <path d="M 19.1875 8.296875 
L 53.609375 8.296875 
L 53.609375 0 
L 7.328125 0 
L 7.328125 8.296875 
Q 12.9375 14.109375 22.625 23.890625 
Q 32.328125 33.6875 34.8125 36.53125 
Q 39.546875 41.84375 41.421875 45.53125 
Q 43.3125 49.21875 43.3125 52.78125 
Q 43.3125 58.59375 39.234375 62.25 
Q 35.15625 65.921875 28.609375 65.921875 
Q 23.96875 65.921875 18.8125 64.3125 
Q 13.671875 62.703125 7.8125 59.421875 
L 7.8125 69.390625 
Q 13.765625 71.78125 18.9375 73 
Q 24.125 74.21875 28.421875 74.21875 
Q 39.75 74.21875 46.484375 68.546875 
Q 53.21875 62.890625 53.21875 53.421875 
Q 53.21875 48.921875 51.53125 44.890625 
Q 49.859375 40.875 45.40625 35.40625 
Q 44.1875 33.984375 37.640625 27.21875 
Q 31.109375 20.453125 19.1875 8.296875 
z
" id="DejaVuSans-50"/>
      </defs>
      <g transform="translate(166.465949 287.910437)scale(0.1 -0.1)">
       <use xlink:href="#DejaVuSans-50"/>
       <use x="63.623047" xlink:href="#DejaVuSans-48"/>
       <use x="127.246094" xlink:href="#DejaVuSans-48"/>
      </g>
     </g>
    </g>
    <g id="xtick_4">
     <g id="line2d_4">
      <g>
       <use style="stroke:#000000;stroke-width:0.8;" x="230.209122" xlink:href="#m005983f62e" y="273.312"/>
      </g>
     </g>
     <g id="text_4">
      <!-- 300 -->
      <defs>
       <path d="M 40.578125 39.3125 
Q 47.65625 37.796875 51.625 33 
Q 55.609375 28.21875 55.609375 21.1875 
Q 55.609375 10.40625 48.1875 4.484375 
Q 40.765625 -1.421875 27.09375 -1.421875 
Q 22.515625 -1.421875 17.65625 -0.515625 
Q 12.796875 0.390625 7.625 2.203125 
L 7.625 11.71875 
Q 11.71875 9.328125 16.59375 8.109375 
Q 21.484375 6.890625 26.8125 6.890625 
Q 36.078125 6.890625 40.9375 10.546875 
Q 45.796875 14.203125 45.796875 21.1875 
Q 45.796875 27.640625 41.28125 31.265625 
Q 36.765625 34.90625 28.71875 34.90625 
L 20.21875 34.90625 
L 20.21875 43.015625 
L 29.109375 43.015625 
Q 36.375 43.015625 40.234375 45.921875 
Q 44.09375 48.828125 44.09375 54.296875 
Q 44.09375 59.90625 40.109375 62.90625 
Q 36.140625 65.921875 28.71875 65.921875 
Q 24.65625 65.921875 20.015625 65.03125 
Q 15.375 64.15625 9.8125 62.3125 
L 9.8125 71.09375 
Q 15.4375 72.65625 20.34375 73.4375 
Q 25.25 74.21875 29.59375 74.21875 
Q 40.828125 74.21875 47.359375 69.109375 
Q 53.90625 64.015625 53.90625 55.328125 
Q 53.90625 49.265625 50.4375 45.09375 
Q 46.96875 40.921875 40.578125 39.3125 
z
" id="DejaVuSans-51"/>
      </defs>
      <g transform="translate(220.665372 287.910437)scale(0.1 -0.1)">
       <use xlink:href="#DejaVuSans-51"/>
       <use x="63.623047" xlink:href="#DejaVuSans-48"/>
       <use x="127.246094" xlink:href="#DejaVuSans-48"/>
      </g>
     </g>
    </g>
    <g id="xtick_5">
     <g id="line2d_5">
      <g>
       <use style="stroke:#000000;stroke-width:0.8;" x="284.408545" xlink:href="#m005983f62e" y="273.312"/>
      </g>
     </g>
     <g id="text_5">
      <!-- 400 -->
      <defs>
       <path d="M 37.796875 64.3125 
L 12.890625 25.390625 
L 37.796875 25.390625 
z
M 35.203125 72.90625 
L 47.609375 72.90625 
L 47.609375 25.390625 
L 58.015625 25.390625 
L 58.015625 17.1875 
L 47.609375 17.1875 
L 47.609375 0 
L 37.796875 0 
L 37.796875 17.1875 
L 4.890625 17.1875 
L 4.890625 26.703125 
z
" id="DejaVuSans-52"/>
      </defs>
      <g transform="translate(274.864795 287.910437)scale(0.1 -0.1)">
       <use xlink:href="#DejaVuSans-52"/>
       <use x="63.623047" xlink:href="#DejaVuSans-48"/>
       <use x="127.246094" xlink:href="#DejaVuSans-48"/>
      </g>
     </g>
    </g>
    <g id="xtick_6">
     <g id="line2d_6">
      <g>
       <use style="stroke:#000000;stroke-width:0.8;" x="338.607969" xlink:href="#m005983f62e" y="273.312"/>
      </g>
     </g>
     <g id="text_6">
      <!-- 500 -->
      <defs>
       <path d="M 10.796875 72.90625 
L 49.515625 72.90625 
L 49.515625 64.59375 
L 19.828125 64.59375 
L 19.828125 46.734375 
Q 21.96875 47.46875 24.109375 47.828125 
Q 26.265625 48.1875 28.421875 48.1875 
Q 40.625 48.1875 47.75 41.5 
Q 54.890625 34.8125 54.890625 23.390625 
Q 54.890625 11.625 47.5625 5.09375 
Q 40.234375 -1.421875 26.90625 -1.421875 
Q 22.3125 -1.421875 17.546875 -0.640625 
Q 12.796875 0.140625 7.71875 1.703125 
L 7.71875 11.625 
Q 12.109375 9.234375 16.796875 8.0625 
Q 21.484375 6.890625 26.703125 6.890625 
Q 35.15625 6.890625 40.078125 11.328125 
Q 45.015625 15.765625 45.015625 23.390625 
Q 45.015625 31 40.078125 35.4375 
Q 35.15625 39.890625 26.703125 39.890625 
Q 22.75 39.890625 18.8125 39.015625 
Q 14.890625 38.140625 10.796875 36.28125 
z
" id="DejaVuSans-53"/>
      </defs>
      <g transform="translate(329.064219 287.910437)scale(0.1 -0.1)">
       <use xlink:href="#DejaVuSans-53"/>
       <use x="63.623047" xlink:href="#DejaVuSans-48"/>
       <use x="127.246094" xlink:href="#DejaVuSans-48"/>
      </g>
     </g>
    </g>
    <g id="xtick_7">
     <g id="line2d_7">
      <g>
       <use style="stroke:#000000;stroke-width:0.8;" x="392.807392" xlink:href="#m005983f62e" y="273.312"/>
      </g>
     </g>
     <g id="text_7">
      <!-- 600 -->
      <defs>
       <path d="M 33.015625 40.375 
Q 26.375 40.375 22.484375 35.828125 
Q 18.609375 31.296875 18.609375 23.390625 
Q 18.609375 15.53125 22.484375 10.953125 
Q 26.375 6.390625 33.015625 6.390625 
Q 39.65625 6.390625 43.53125 10.953125 
Q 47.40625 15.53125 47.40625 23.390625 
Q 47.40625 31.296875 43.53125 35.828125 
Q 39.65625 40.375 33.015625 40.375 
z
M 52.59375 71.296875 
L 52.59375 62.3125 
Q 48.875 64.0625 45.09375 64.984375 
Q 41.3125 65.921875 37.59375 65.921875 
Q 27.828125 65.921875 22.671875 59.328125 
Q 17.53125 52.734375 16.796875 39.40625 
Q 19.671875 43.65625 24.015625 45.921875 
Q 28.375 48.1875 33.59375 48.1875 
Q 44.578125 48.1875 50.953125 41.515625 
Q 57.328125 34.859375 57.328125 23.390625 
Q 57.328125 12.15625 50.6875 5.359375 
Q 44.046875 -1.421875 33.015625 -1.421875 
Q 20.359375 -1.421875 13.671875 8.265625 
Q 6.984375 17.96875 6.984375 36.375 
Q 6.984375 53.65625 15.1875 63.9375 
Q 23.390625 74.21875 37.203125 74.21875 
Q 40.921875 74.21875 44.703125 73.484375 
Q 48.484375 72.75 52.59375 71.296875 
z
" id="DejaVuSans-54"/>
      </defs>
      <g transform="translate(383.263642 287.910437)scale(0.1 -0.1)">
       <use xlink:href="#DejaVuSans-54"/>
       <use x="63.623047" xlink:href="#DejaVuSans-48"/>
       <use x="127.246094" xlink:href="#DejaVuSans-48"/>
      </g>
     </g>
    </g>
    <g id="text_8">
     <!-- Iteration -->
     <defs>
      <path d="M 9.8125 72.90625 
L 19.671875 72.90625 
L 19.671875 0 
L 9.8125 0 
z
" id="DejaVuSans-73"/>
      <path d="M 18.3125 70.21875 
L 18.3125 54.6875 
L 36.8125 54.6875 
L 36.8125 47.703125 
L 18.3125 47.703125 
L 18.3125 18.015625 
Q 18.3125 11.328125 20.140625 9.421875 
Q 21.96875 7.515625 27.59375 7.515625 
L 36.8125 7.515625 
L 36.8125 0 
L 27.59375 0 
Q 17.1875 0 13.234375 3.875 
Q 9.28125 7.765625 9.28125 18.015625 
L 9.28125 47.703125 
L 2.6875 47.703125 
L 2.6875 54.6875 
L 9.28125 54.6875 
L 9.28125 70.21875 
z
" id="DejaVuSans-116"/>
      <path d="M 56.203125 29.59375 
L 56.203125 25.203125 
L 14.890625 25.203125 
Q 15.484375 15.921875 20.484375 11.0625 
Q 25.484375 6.203125 34.421875 6.203125 
Q 39.59375 6.203125 44.453125 7.46875 
Q 49.3125 8.734375 54.109375 11.28125 
L 54.109375 2.78125 
Q 49.265625 0.734375 44.1875 -0.34375 
Q 39.109375 -1.421875 33.890625 -1.421875 
Q 20.796875 -1.421875 13.15625 6.1875 
Q 5.515625 13.8125 5.515625 26.8125 
Q 5.515625 40.234375 12.765625 48.109375 
Q 20.015625 56 32.328125 56 
Q 43.359375 56 49.78125 48.890625 
Q 56.203125 41.796875 56.203125 29.59375 
z
M 47.21875 32.234375 
Q 47.125 39.59375 43.09375 43.984375 
Q 39.0625 48.390625 32.421875 48.390625 
Q 24.90625 48.390625 20.390625 44.140625 
Q 15.875 39.890625 15.1875 32.171875 
z
" id="DejaVuSans-101"/>
      <path d="M 41.109375 46.296875 
Q 39.59375 47.171875 37.8125 47.578125 
Q 36.03125 48 33.890625 48 
Q 26.265625 48 22.1875 43.046875 
Q 18.109375 38.09375 18.109375 28.8125 
L 18.109375 0 
L 9.078125 0 
L 9.078125 54.6875 
L 18.109375 54.6875 
L 18.109375 46.1875 
Q 20.953125 51.171875 25.484375 53.578125 
Q 30.03125 56 36.53125 56 
Q 37.453125 56 38.578125 55.875 
Q 39.703125 55.765625 41.0625 55.515625 
z
" id="DejaVuSans-114"/>
      <path d="M 34.28125 27.484375 
Q 23.390625 27.484375 19.1875 25 
Q 14.984375 22.515625 14.984375 16.5 
Q 14.984375 11.71875 18.140625 8.90625 
Q 21.296875 6.109375 26.703125 6.109375 
Q 34.1875 6.109375 38.703125 11.40625 
Q 43.21875 16.703125 43.21875 25.484375 
L 43.21875 27.484375 
z
M 52.203125 31.203125 
L 52.203125 0 
L 43.21875 0 
L 43.21875 8.296875 
Q 40.140625 3.328125 35.546875 0.953125 
Q 30.953125 -1.421875 24.3125 -1.421875 
Q 15.921875 -1.421875 10.953125 3.296875 
Q 6 8.015625 6 15.921875 
Q 6 25.140625 12.171875 29.828125 
Q 18.359375 34.515625 30.609375 34.515625 
L 43.21875 34.515625 
L 43.21875 35.40625 
Q 43.21875 41.609375 39.140625 45 
Q 35.0625 48.390625 27.6875 48.390625 
Q 23 48.390625 18.546875 47.265625 
Q 14.109375 46.140625 10.015625 43.890625 
L 10.015625 52.203125 
Q 14.9375 54.109375 19.578125 55.046875 
Q 24.21875 56 28.609375 56 
Q 40.484375 56 46.34375 49.84375 
Q 52.203125 43.703125 52.203125 31.203125 
z
" id="DejaVuSans-97"/>
      <path d="M 9.421875 54.6875 
L 18.40625 54.6875 
L 18.40625 0 
L 9.421875 0 
z
M 9.421875 75.984375 
L 18.40625 75.984375 
L 18.40625 64.59375 
L 9.421875 64.59375 
z
" id="DejaVuSans-105"/>
      <path d="M 30.609375 48.390625 
Q 23.390625 48.390625 19.1875 42.75 
Q 14.984375 37.109375 14.984375 27.296875 
Q 14.984375 17.484375 19.15625 11.84375 
Q 23.34375 6.203125 30.609375 6.203125 
Q 37.796875 6.203125 41.984375 11.859375 
Q 46.1875 17.53125 46.1875 27.296875 
Q 46.1875 37.015625 41.984375 42.703125 
Q 37.796875 48.390625 30.609375 48.390625 
z
M 30.609375 56 
Q 42.328125 56 49.015625 48.375 
Q 55.71875 40.765625 55.71875 27.296875 
Q 55.71875 13.875 49.015625 6.21875 
Q 42.328125 -1.421875 30.609375 -1.421875 
Q 18.84375 -1.421875 12.171875 6.21875 
Q 5.515625 13.875 5.515625 27.296875 
Q 5.515625 40.765625 12.171875 48.375 
Q 18.84375 56 30.609375 56 
z
" id="DejaVuSans-111"/>
      <path d="M 54.890625 33.015625 
L 54.890625 0 
L 45.90625 0 
L 45.90625 32.71875 
Q 45.90625 40.484375 42.875 44.328125 
Q 39.84375 48.1875 33.796875 48.1875 
Q 26.515625 48.1875 22.3125 43.546875 
Q 18.109375 38.921875 18.109375 30.90625 
L 18.109375 0 
L 9.078125 0 
L 9.078125 54.6875 
L 18.109375 54.6875 
L 18.109375 46.1875 
Q 21.34375 51.125 25.703125 53.5625 
Q 30.078125 56 35.796875 56 
Q 45.21875 56 50.046875 50.171875 
Q 54.890625 44.34375 54.890625 33.015625 
z
" id="DejaVuSans-110"/>
     </defs>
     <g transform="translate(208.729531 301.588562)scale(0.1 -0.1)">
      <use xlink:href="#DejaVuSans-73"/>
      <use x="29.492188" xlink:href="#DejaVuSans-116"/>
      <use x="68.701172" xlink:href="#DejaVuSans-101"/>
      <use x="130.224609" xlink:href="#DejaVuSans-114"/>
      <use x="171.337891" xlink:href="#DejaVuSans-97"/>
      <use x="232.617188" xlink:href="#DejaVuSans-116"/>
      <use x="271.826172" xlink:href="#DejaVuSans-105"/>
      <use x="299.609375" xlink:href="#DejaVuSans-111"/>
      <use x="360.791016" xlink:href="#DejaVuSans-110"/>
     </g>
    </g>
   </g>
   <g id="matplotlib.axis_2">
    <g id="ytick_1">
     <g id="line2d_8">
      <defs>
       <path d="M 0 0 
L -3.5 0 
" id="mf0e844a0ce" style="stroke:#000000;stroke-width:0.8;"/>
      </defs>
      <g>
       <use style="stroke:#000000;stroke-width:0.8;" x="51.378125" xlink:href="#mf0e844a0ce" y="247.63786"/>
      </g>
     </g>
     <g id="text_9">
      <!-- $\mathdefault{10^{-4}}$ -->
      <defs>
       <path d="M 10.59375 35.5 
L 73.1875 35.5 
L 73.1875 27.203125 
L 10.59375 27.203125 
z
" id="DejaVuSans-8722"/>
      </defs>
      <g transform="translate(20.878125 251.437079)scale(0.1 -0.1)">
       <use transform="translate(0 0.684375)" xlink:href="#DejaVuSans-49"/>
       <use transform="translate(63.623047 0.684375)" xlink:href="#DejaVuSans-48"/>
       <use transform="translate(128.203125 38.965625)scale(0.7)" xlink:href="#DejaVuSans-8722"/>
       <use transform="translate(186.855469 38.965625)scale(0.7)" xlink:href="#DejaVuSans-52"/>
      </g>
     </g>
    </g>
    <g id="ytick_2">
     <g id="line2d_9">
      <g>
       <use style="stroke:#000000;stroke-width:0.8;" x="51.378125" xlink:href="#mf0e844a0ce" y="186.433371"/>
      </g>
     </g>
     <g id="text_10">
      <!-- $\mathdefault{10^{-3}}$ -->
      <g transform="translate(20.878125 190.23259)scale(0.1 -0.1)">
       <use transform="translate(0 0.765625)" xlink:href="#DejaVuSans-49"/>
       <use transform="translate(63.623047 0.765625)" xlink:href="#DejaVuSans-48"/>
       <use transform="translate(128.203125 39.046875)scale(0.7)" xlink:href="#DejaVuSans-8722"/>
       <use transform="translate(186.855469 39.046875)scale(0.7)" xlink:href="#DejaVuSans-51"/>
      </g>
     </g>
    </g>
    <g id="ytick_3">
     <g id="line2d_10">
      <g>
       <use style="stroke:#000000;stroke-width:0.8;" x="51.378125" xlink:href="#mf0e844a0ce" y="125.228881"/>
      </g>
     </g>
     <g id="text_11">
      <!-- $\mathdefault{10^{-2}}$ -->
      <g transform="translate(20.878125 129.0281)scale(0.1 -0.1)">
       <use transform="translate(0 0.765625)" xlink:href="#DejaVuSans-49"/>
       <use transform="translate(63.623047 0.765625)" xlink:href="#DejaVuSans-48"/>
       <use transform="translate(128.203125 39.046875)scale(0.7)" xlink:href="#DejaVuSans-8722"/>
       <use transform="translate(186.855469 39.046875)scale(0.7)" xlink:href="#DejaVuSans-50"/>
      </g>
     </g>
    </g>
    <g id="ytick_4">
     <g id="line2d_11">
      <g>
       <use style="stroke:#000000;stroke-width:0.8;" x="51.378125" xlink:href="#mf0e844a0ce" y="64.024391"/>
      </g>
     </g>
     <g id="text_12">
      <!-- $\mathdefault{10^{-1}}$ -->
      <g transform="translate(20.878125 67.82361)scale(0.1 -0.1)">
       <use transform="translate(0 0.684375)" xlink:href="#DejaVuSans-49"/>
       <use transform="translate(63.623047 0.684375)" xlink:href="#DejaVuSans-48"/>
       <use transform="translate(128.203125 38.965625)scale(0.7)" xlink:href="#DejaVuSans-8722"/>
       <use transform="translate(186.855469 38.965625)scale(0.7)" xlink:href="#DejaVuSans-49"/>
      </g>
     </g>
    </g>
    <g id="ytick_5">
     <g id="line2d_12">
      <defs>
       <path d="M 0 0 
L -2 0 
" id="m9231081e7e" style="stroke:#000000;stroke-width:0.6;"/>
      </defs>
      <g>
       <use style="stroke:#000000;stroke-width:0.6;" x="51.378125" xlink:href="#m9231081e7e" y="271.993576"/>
      </g>
     </g>
    </g>
    <g id="ytick_6">
     <g id="line2d_13">
      <g>
       <use style="stroke:#000000;stroke-width:0.6;" x="51.378125" xlink:href="#m9231081e7e" y="266.062248"/>
      </g>
     </g>
    </g>
    <g id="ytick_7">
     <g id="line2d_14">
      <g>
       <use style="stroke:#000000;stroke-width:0.6;" x="51.378125" xlink:href="#m9231081e7e" y="261.216"/>
      </g>
     </g>
    </g>
    <g id="ytick_8">
     <g id="line2d_15">
      <g>
       <use style="stroke:#000000;stroke-width:0.6;" x="51.378125" xlink:href="#m9231081e7e" y="257.118556"/>
      </g>
     </g>
    </g>
    <g id="ytick_9">
     <g id="line2d_16">
      <g>
       <use style="stroke:#000000;stroke-width:0.6;" x="51.378125" xlink:href="#m9231081e7e" y="253.569188"/>
      </g>
     </g>
    </g>
    <g id="ytick_10">
     <g id="line2d_17">
      <g>
       <use style="stroke:#000000;stroke-width:0.6;" x="51.378125" xlink:href="#m9231081e7e" y="250.438424"/>
      </g>
     </g>
    </g>
    <g id="ytick_11">
     <g id="line2d_18">
      <g>
       <use style="stroke:#000000;stroke-width:0.6;" x="51.378125" xlink:href="#m9231081e7e" y="229.213473"/>
      </g>
     </g>
    </g>
    <g id="ytick_12">
     <g id="line2d_19">
      <g>
       <use style="stroke:#000000;stroke-width:0.6;" x="51.378125" xlink:href="#m9231081e7e" y="218.435898"/>
      </g>
     </g>
    </g>
    <g id="ytick_13">
     <g id="line2d_20">
      <g>
       <use style="stroke:#000000;stroke-width:0.6;" x="51.378125" xlink:href="#m9231081e7e" y="210.789086"/>
      </g>
     </g>
    </g>
    <g id="ytick_14">
     <g id="line2d_21">
      <g>
       <use style="stroke:#000000;stroke-width:0.6;" x="51.378125" xlink:href="#m9231081e7e" y="204.857758"/>
      </g>
     </g>
    </g>
    <g id="ytick_15">
     <g id="line2d_22">
      <g>
       <use style="stroke:#000000;stroke-width:0.6;" x="51.378125" xlink:href="#m9231081e7e" y="200.01151"/>
      </g>
     </g>
    </g>
    <g id="ytick_16">
     <g id="line2d_23">
      <g>
       <use style="stroke:#000000;stroke-width:0.6;" x="51.378125" xlink:href="#m9231081e7e" y="195.914066"/>
      </g>
     </g>
    </g>
    <g id="ytick_17">
     <g id="line2d_24">
      <g>
       <use style="stroke:#000000;stroke-width:0.6;" x="51.378125" xlink:href="#m9231081e7e" y="192.364699"/>
      </g>
     </g>
    </g>
    <g id="ytick_18">
     <g id="line2d_25">
      <g>
       <use style="stroke:#000000;stroke-width:0.6;" x="51.378125" xlink:href="#m9231081e7e" y="189.233935"/>
      </g>
     </g>
    </g>
    <g id="ytick_19">
     <g id="line2d_26">
      <g>
       <use style="stroke:#000000;stroke-width:0.6;" x="51.378125" xlink:href="#m9231081e7e" y="168.008984"/>
      </g>
     </g>
    </g>
    <g id="ytick_20">
     <g id="line2d_27">
      <g>
       <use style="stroke:#000000;stroke-width:0.6;" x="51.378125" xlink:href="#m9231081e7e" y="157.231408"/>
      </g>
     </g>
    </g>
    <g id="ytick_21">
     <g id="line2d_28">
      <g>
       <use style="stroke:#000000;stroke-width:0.6;" x="51.378125" xlink:href="#m9231081e7e" y="149.584596"/>
      </g>
     </g>
    </g>
    <g id="ytick_22">
     <g id="line2d_29">
      <g>
       <use style="stroke:#000000;stroke-width:0.6;" x="51.378125" xlink:href="#m9231081e7e" y="143.653268"/>
      </g>
     </g>
    </g>
    <g id="ytick_23">
     <g id="line2d_30">
      <g>
       <use style="stroke:#000000;stroke-width:0.6;" x="51.378125" xlink:href="#m9231081e7e" y="138.807021"/>
      </g>
     </g>
    </g>
    <g id="ytick_24">
     <g id="line2d_31">
      <g>
       <use style="stroke:#000000;stroke-width:0.6;" x="51.378125" xlink:href="#m9231081e7e" y="134.709577"/>
      </g>
     </g>
    </g>
    <g id="ytick_25">
     <g id="line2d_32">
      <g>
       <use style="stroke:#000000;stroke-width:0.6;" x="51.378125" xlink:href="#m9231081e7e" y="131.160209"/>
      </g>
     </g>
    </g>
    <g id="ytick_26">
     <g id="line2d_33">
      <g>
       <use style="stroke:#000000;stroke-width:0.6;" x="51.378125" xlink:href="#m9231081e7e" y="128.029445"/>
      </g>
     </g>
    </g>
    <g id="ytick_27">
     <g id="line2d_34">
      <g>
       <use style="stroke:#000000;stroke-width:0.6;" x="51.378125" xlink:href="#m9231081e7e" y="106.804494"/>
      </g>
     </g>
    </g>
    <g id="ytick_28">
     <g id="line2d_35">
      <g>
       <use style="stroke:#000000;stroke-width:0.6;" x="51.378125" xlink:href="#m9231081e7e" y="96.026918"/>
      </g>
     </g>
    </g>
    <g id="ytick_29">
     <g id="line2d_36">
      <g>
       <use style="stroke:#000000;stroke-width:0.6;" x="51.378125" xlink:href="#m9231081e7e" y="88.380107"/>
      </g>
     </g>
    </g>
    <g id="ytick_30">
     <g id="line2d_37">
      <g>
       <use style="stroke:#000000;stroke-width:0.6;" x="51.378125" xlink:href="#m9231081e7e" y="82.448779"/>
      </g>
     </g>
    </g>
    <g id="ytick_31">
     <g id="line2d_38">
      <g>
       <use style="stroke:#000000;stroke-width:0.6;" x="51.378125" xlink:href="#m9231081e7e" y="77.602531"/>
      </g>
     </g>
    </g>
    <g id="ytick_32">
     <g id="line2d_39">
      <g>
       <use style="stroke:#000000;stroke-width:0.6;" x="51.378125" xlink:href="#m9231081e7e" y="73.505087"/>
      </g>
     </g>
    </g>
    <g id="ytick_33">
     <g id="line2d_40">
      <g>
       <use style="stroke:#000000;stroke-width:0.6;" x="51.378125" xlink:href="#m9231081e7e" y="69.955719"/>
      </g>
     </g>
    </g>
    <g id="ytick_34">
     <g id="line2d_41">
      <g>
       <use style="stroke:#000000;stroke-width:0.6;" x="51.378125" xlink:href="#m9231081e7e" y="66.824955"/>
      </g>
     </g>
    </g>
    <g id="ytick_35">
     <g id="line2d_42">
      <g>
       <use style="stroke:#000000;stroke-width:0.6;" x="51.378125" xlink:href="#m9231081e7e" y="45.600004"/>
      </g>
     </g>
    </g>
    <g id="ytick_36">
     <g id="line2d_43">
      <g>
       <use style="stroke:#000000;stroke-width:0.6;" x="51.378125" xlink:href="#m9231081e7e" y="34.822428"/>
      </g>
     </g>
    </g>
    <g id="ytick_37">
     <g id="line2d_44">
      <g>
       <use style="stroke:#000000;stroke-width:0.6;" x="51.378125" xlink:href="#m9231081e7e" y="27.175617"/>
      </g>
     </g>
    </g>
    <g id="ytick_38">
     <g id="line2d_45">
      <g>
       <use style="stroke:#000000;stroke-width:0.6;" x="51.378125" xlink:href="#m9231081e7e" y="21.244289"/>
      </g>
     </g>
    </g>
    <g id="ytick_39">
     <g id="line2d_46">
      <g>
       <use style="stroke:#000000;stroke-width:0.6;" x="51.378125" xlink:href="#m9231081e7e" y="16.398041"/>
      </g>
     </g>
    </g>
    <g id="ytick_40">
     <g id="line2d_47">
      <g>
       <use style="stroke:#000000;stroke-width:0.6;" x="51.378125" xlink:href="#m9231081e7e" y="12.300597"/>
      </g>
     </g>
    </g>
    <g id="ytick_41">
     <g id="line2d_48">
      <g>
       <use style="stroke:#000000;stroke-width:0.6;" x="51.378125" xlink:href="#m9231081e7e" y="8.75123"/>
      </g>
     </g>
    </g>
    <g id="text_13">
     <!-- Loss -->
     <defs>
      <path d="M 9.8125 72.90625 
L 19.671875 72.90625 
L 19.671875 8.296875 
L 55.171875 8.296875 
L 55.171875 0 
L 9.8125 0 
z
" id="DejaVuSans-76"/>
      <path d="M 44.28125 53.078125 
L 44.28125 44.578125 
Q 40.484375 46.53125 36.375 47.5 
Q 32.28125 48.484375 27.875 48.484375 
Q 21.1875 48.484375 17.84375 46.4375 
Q 14.5 44.390625 14.5 40.28125 
Q 14.5 37.15625 16.890625 35.375 
Q 19.28125 33.59375 26.515625 31.984375 
L 29.59375 31.296875 
Q 39.15625 29.25 43.1875 25.515625 
Q 47.21875 21.78125 47.21875 15.09375 
Q 47.21875 7.46875 41.1875 3.015625 
Q 35.15625 -1.421875 24.609375 -1.421875 
Q 20.21875 -1.421875 15.453125 -0.5625 
Q 10.6875 0.296875 5.421875 2 
L 5.421875 11.28125 
Q 10.40625 8.6875 15.234375 7.390625 
Q 20.0625 6.109375 24.8125 6.109375 
Q 31.15625 6.109375 34.5625 8.28125 
Q 37.984375 10.453125 37.984375 14.40625 
Q 37.984375 18.0625 35.515625 20.015625 
Q 33.0625 21.96875 24.703125 23.78125 
L 21.578125 24.515625 
Q 13.234375 26.265625 9.515625 29.90625 
Q 5.8125 33.546875 5.8125 39.890625 
Q 5.8125 47.609375 11.28125 51.796875 
Q 16.75 56 26.8125 56 
Q 31.78125 56 36.171875 55.265625 
Q 40.578125 54.546875 44.28125 53.078125 
z
" id="DejaVuSans-115"/>
     </defs>
     <g transform="translate(14.798438 151.309906)rotate(-90)scale(0.1 -0.1)">
      <use xlink:href="#DejaVuSans-76"/>
      <use x="55.697266" xlink:href="#DejaVuSans-111"/>
      <use x="116.878906" xlink:href="#DejaVuSans-115"/>
      <use x="168.978516" xlink:href="#DejaVuSans-115"/>
     </g>
    </g>
   </g>
   <g id="line2d_49">
    <path clip-path="url(#p1eb12d6b3c)" d="M 67.610852 19.296 
L 68.152847 21.198556 
L 68.694841 21.25386 
L 69.236835 21.451521 
L 69.778829 21.942404 
L 70.320823 22.818893 
L 70.862818 24.183255 
L 71.404812 26.056471 
L 72.4888 31.203853 
L 73.572789 37.583151 
L 76.824754 59.348807 
L 80.07672 82.927261 
L 82.244697 97.469728 
L 84.954668 112.045458 
L 85.496662 113.968404 
L 86.58065 119.35503 
L 87.122645 121.071508 
L 87.664639 123.717689 
L 88.206633 124.990724 
L 88.748627 127.249485 
L 89.832616 130.313293 
L 90.37461 132.734305 
L 92.000593 136.675335 
L 92.542587 138.560084 
L 93.084581 138.67004 
L 93.626575 140.324772 
L 94.16857 142.503622 
L 94.710564 143.309945 
L 95.252558 142.738852 
L 95.794552 145.570823 
L 96.878541 147.979402 
L 97.420535 148.268737 
L 97.962529 148.048305 
L 98.504524 148.035764 
L 99.046518 151.764853 
L 100.130506 151.70721 
L 100.6725 153.647729 
L 101.214495 153.141559 
L 101.756489 153.709743 
L 102.298483 155.524232 
L 102.840477 154.965135 
L 103.924466 156.748507 
L 104.46646 157.045991 
L 105.008454 156.419918 
L 105.550449 156.540505 
L 106.092443 158.031904 
L 106.634437 160.50877 
L 107.176431 159.150867 
L 107.718426 158.242755 
L 108.26042 159.796742 
L 108.802414 159.67019 
L 109.344408 160.82131 
L 109.886402 162.323331 
L 110.428397 160.25937 
L 111.512385 163.564468 
L 112.054379 161.771093 
L 112.596374 161.593015 
L 113.138368 162.625511 
L 113.680362 163.107417 
L 114.222356 163.052213 
L 114.764351 163.643293 
L 115.306345 161.918648 
L 115.848339 163.284844 
L 116.390333 163.107417 
L 116.932327 163.801647 
L 117.474322 163.318244 
L 118.016316 166.000243 
L 118.55831 165.151332 
L 119.100304 164.006641 
L 119.642299 164.040961 
L 120.184293 166.222988 
L 120.726287 165.439344 
L 121.268281 166.750103 
L 121.810276 166.160927 
L 122.35227 164.305563 
L 122.894264 165.901841 
L 123.436258 165.938699 
L 123.978252 165.163271 
L 124.520247 165.475565 
L 125.062241 164.68987 
L 125.604235 167.40455 
L 126.146229 167.262026 
L 126.688224 167.678783 
L 127.230218 164.654702 
L 127.772212 165.235014 
L 128.314206 166.6868 
L 128.856201 169.177259 
L 129.398195 165.475565 
L 129.940189 167.017633 
L 130.482183 166.422563 
L 131.024178 166.422563 
L 131.566172 165.548157 
L 132.108166 168.062198 
L 132.65016 165.48765 
L 133.192154 169.107911 
L 133.734149 168.062198 
L 134.276143 168.722875 
L 134.818137 167.521733 
L 135.360131 164.913684 
L 135.902126 166.966467 
L 136.44412 167.391562 
L 136.986114 166.322588 
L 137.528108 167.691913 
L 138.070103 164.783878 
L 138.612097 167.744496 
L 139.154091 167.068898 
L 139.696085 168.969757 
L 140.238079 165.926408 
L 140.780074 169.498607 
L 141.322068 166.648891 
L 142.406056 167.430546 
L 142.948051 166.548063 
L 144.032039 166.851702 
L 144.574033 166.497792 
L 145.116028 167.443554 
L 145.658022 167.534785 
L 146.200016 166.902647 
L 146.74201 168.062198 
L 147.284004 167.482614 
L 147.825999 166.611036 
L 148.367993 167.810372 
L 148.909987 169.414402 
L 149.451981 168.791224 
L 149.993976 167.547843 
L 150.53597 167.40455 
L 151.077964 166.360035 
L 151.619958 167.107411 
L 152.161953 167.017633 
L 152.703947 166.447616 
L 153.245941 166.049581 
L 153.787935 166.611036 
L 154.32993 168.048885 
L 154.871924 165.451412 
L 155.413918 167.995696 
L 155.955912 168.505333 
L 156.497906 166.966467 
L 157.039901 167.62633 
L 157.581895 165.463486 
L 158.123889 165.270958 
L 158.665883 165.803802 
L 159.207878 167.171725 
L 159.749872 167.705049 
L 160.291866 167.365604 
L 160.83386 166.074284 
L 161.375855 167.876411 
L 162.459843 166.235418 
L 163.543831 166.460151 
L 164.085826 165.693939 
L 164.62782 167.456568 
L 165.169814 167.017633 
L 165.711808 165.103632 
L 166.253803 167.339672 
L 166.795797 165.318959 
L 167.337791 168.222485 
L 167.879785 166.360035 
L 168.42178 164.949196 
L 168.963774 164.807432 
L 169.505768 167.223288 
L 170.047762 166.310118 
L 171.131751 167.534785 
L 171.673745 166.573234 
L 172.215739 165.067914 
L 172.757733 165.572399 
L 173.299728 165.235014 
L 173.841722 165.258971 
L 174.383716 167.587058 
L 174.92571 164.831007 
L 175.467705 163.598221 
L 176.009699 163.96095 
L 176.551693 165.330973 
L 177.093687 164.878219 
L 177.635682 166.902647 
L 178.177676 164.654702 
L 178.71967 167.678783 
L 179.261664 164.772108 
L 179.803658 164.68987 
L 180.345653 166.372529 
L 180.887647 164.018076 
L 181.429641 166.422563 
L 181.971635 166.372529 
L 182.51363 166.864429 
L 183.055624 163.553226 
L 183.597618 165.926408 
L 184.139612 165.294948 
L 184.681607 164.201709 
L 185.223601 164.063865 
L 185.765595 165.079815 
L 186.307589 164.247816 
L 186.849583 165.828278 
L 187.391578 161.982137 
L 187.933572 163.49709 
L 188.475566 165.608803 
L 189.01756 166.674158 
L 189.559555 164.961044 
L 190.101549 162.398554 
L 190.643543 164.2709 
L 191.185537 163.620747 
L 191.727532 163.229271 
L 192.269526 163.052213 
L 192.81152 164.155681 
L 193.353514 164.783878 
L 193.895509 164.421434 
L 194.437503 163.295973 
L 194.979497 164.607884 
L 195.521491 162.549643 
L 196.063485 165.391124 
L 197.147474 162.931166 
L 197.689468 161.499218 
L 198.231462 165.742711 
L 198.773457 164.807432 
L 199.315451 163.096367 
L 199.857445 163.767634 
L 200.399439 165.079815 
L 200.941434 163.485876 
L 201.483428 163.041186 
L 202.025422 163.508307 
L 202.567416 161.343623 
L 203.10941 162.942147 
L 203.651405 162.194869 
L 204.193399 162.205551 
L 204.735393 162.398554 
L 205.819382 163.407516 
L 206.361376 163.564468 
L 206.90337 161.488817 
L 207.445364 164.167181 
L 207.987359 163.240376 
L 208.529353 163.575714 
L 209.071347 162.766985 
L 209.613341 162.334064 
L 210.155336 164.178685 
L 210.69733 160.984071 
L 211.239324 162.387795 
L 211.781318 161.950373 
L 212.323312 164.701602 
L 212.865307 163.508307 
L 213.407301 162.614659 
L 213.949295 160.629318 
L 214.491289 161.593015 
L 215.575278 162.625511 
L 216.117272 165.079815 
L 216.659266 163.926733 
L 217.201261 160.629318 
L 217.743255 161.065827 
L 218.285249 162.077656 
L 218.827243 162.152186 
L 219.369237 163.162736 
L 219.911232 161.520033 
L 220.453226 160.428707 
L 220.99522 160.110846 
L 221.537214 161.436871 
L 222.079209 160.239519 
L 222.621203 161.127309 
L 223.163197 162.658092 
L 223.705191 162.712483 
L 224.247186 161.908081 
L 225.331174 163.407516 
L 225.873168 162.205551 
L 226.415162 160.239519 
L 226.957157 158.735091 
L 227.499151 163.140594 
L 228.041145 159.757739 
L 228.583139 161.634808 
L 229.125134 161.992733 
L 229.667128 160.902566 
L 230.209122 160.50877 
L 231.293111 160.408729 
L 231.835105 162.237621 
L 232.377099 160.780775 
L 232.919093 161.530447 
L 233.461088 160.239519 
L 234.003082 160.061522 
L 234.545076 159.611984 
L 235.08707 161.076064 
L 235.629064 161.624354 
L 236.171059 159.963148 
L 236.713053 159.428501 
L 237.255047 160.548892 
L 237.797041 158.279596 
L 238.339036 161.676668 
L 238.88103 159.709065 
L 239.423024 158.932719 
L 239.965018 159.796742 
L 240.507013 159.738259 
L 241.049007 160.498749 
L 241.591001 159.963148 
L 242.132995 157.275746 
L 242.674989 159.122312 
L 243.216984 158.942167 
L 243.758978 159.816265 
L 244.300972 160.4487 
L 244.842966 157.435979 
L 245.384961 161.634808 
L 245.926955 158.772622 
L 246.468949 160.82131 
L 247.010943 159.582929 
L 247.552938 160.619251 
L 248.094932 158.622818 
L 248.636926 160.558932 
L 249.17892 160.699891 
L 249.720914 159.57325 
L 250.262909 159.274965 
L 250.804903 160.299117 
L 251.346897 156.844388 
L 251.888891 158.641497 
L 252.430886 158.970529 
L 252.97288 160.740302 
L 253.514874 160.170157 
L 254.056868 161.520033 
L 254.598863 158.923275 
L 255.140857 157.462779 
L 255.682851 156.975694 
L 256.224845 161.271323 
L 256.76684 157.651136 
L 257.308834 158.068454 
L 257.850828 156.905583 
L 258.392822 159.495953 
L 258.934816 159.0558 
L 259.476811 157.958955 
L 260.018805 158.160049 
L 260.560799 157.098835 
L 261.102793 157.266873 
L 261.644788 159.67019 
L 262.186782 159.418879 
L 262.728776 158.810205 
L 263.27077 157.346842 
L 263.812765 154.843373 
L 264.354759 158.566858 
L 264.896753 156.523245 
L 265.438747 157.010819 
L 265.980741 158.169226 
L 266.522736 157.931651 
L 267.06473 158.059312 
L 267.606724 158.951617 
L 268.148718 157.86805 
L 268.690713 158.885531 
L 269.232707 157.471718 
L 269.774701 158.114212 
L 270.316695 157.660139 
L 270.85869 156.696354 
L 271.400684 158.031904 
L 271.942678 157.24027 
L 272.484672 155.993662 
L 273.026667 155.515924 
L 273.568661 157.561276 
L 274.110655 156.197412 
L 274.652649 157.134123 
L 275.194643 157.302385 
L 275.736638 158.86668 
L 276.278632 157.178299 
L 276.820626 157.107653 
L 277.36262 158.004525 
L 277.904615 157.382461 
L 278.446609 159.274965 
L 278.988603 156.993251 
L 279.530597 156.308432 
L 280.072592 157.382461 
L 281.15658 157.187143 
L 281.698574 160.25937 
L 282.240568 153.202402 
L 282.782563 157.48066 
L 283.324557 154.973273 
L 283.866551 156.445712 
L 284.408545 156.705039 
L 284.95054 156.454316 
L 285.492534 155.474424 
L 286.034528 155.507619 
L 286.576522 155.883946 
L 287.118517 156.731111 
L 287.660511 156.644303 
L 288.202505 155.808253 
L 288.744499 154.242787 
L 289.286493 155.317312 
L 289.828488 157.768411 
L 290.370482 153.834207 
L 291.45447 158.316488 
L 291.996465 152.540669 
L 292.538459 156.993251 
L 293.080453 154.657746 
L 293.622447 154.545388 
L 294.164442 155.161124 
L 294.706436 155.210347 
L 295.24843 153.756349 
L 295.790424 156.609658 
L 296.874413 153.562695 
L 297.416407 154.819087 
L 297.958401 151.215157 
L 298.500395 155.251437 
L 299.04239 153.309214 
L 299.584384 157.31127 
L 300.126378 155.210347 
L 300.668372 155.816653 
L 301.210367 154.377736 
L 302.294355 156.103832 
L 302.836349 155.83346 
L 303.378344 154.219044 
L 303.920338 154.361824 
L 304.462332 156.188891 
L 305.004326 153.493324 
L 305.54632 154.195322 
L 306.088315 155.424709 
L 306.630309 154.56141 
L 307.172303 154.714104 
L 307.714297 153.539551 
L 308.256292 154.53738 
L 308.798286 155.21856 
L 309.34028 154.457438 
L 309.882274 152.555527 
L 311.508257 155.657511 
L 312.050251 157.231408 
L 312.592246 152.033092 
L 313.676234 155.78307 
L 314.218228 153.609044 
L 314.760222 155.054784 
L 315.302217 153.539551 
L 315.844211 155.607453 
L 316.386205 154.433502 
L 316.928199 152.607595 
L 317.470194 154.409588 
L 318.012188 151.342643 
L 318.554182 154.433502 
L 319.096176 150.955007 
L 319.638171 155.757911 
L 320.180165 152.106056 
L 320.722159 155.507619 
L 321.264153 154.649705 
L 321.806147 155.399887 
L 322.348142 154.883898 
L 322.890136 151.808168 
L 323.43213 156.112326 
L 323.974124 153.393439 
L 324.516119 152.208543 
L 325.600107 153.974929 
L 326.142101 152.831906 
L 326.684096 153.593585 
L 327.22609 152.377778 
L 327.768084 151.492154 
L 328.310078 154.029856 
L 328.852072 154.957 
L 329.394067 152.296705 
L 329.936061 154.689936 
L 330.478055 154.04557 
L 331.020049 153.096018 
L 331.562044 151.427975 
L 332.104038 151.800944 
L 332.646032 153.02029 
L 333.188026 151.721609 
L 333.730021 151.866031 
L 334.272015 153.263385 
L 334.814009 152.756925 
L 335.356003 151.385275 
L 335.897998 153.539551 
L 336.439992 150.892111 
L 336.981986 154.908243 
L 337.52398 152.355642 
L 338.065974 152.274637 
L 338.607969 150.871178 
L 339.149963 151.743222 
L 339.691957 153.826411 
L 340.233951 151.535026 
L 340.775946 153.935765 
L 341.859934 149.617843 
L 342.401928 151.931277 
L 342.943923 150.850262 
L 343.485917 150.455954 
L 344.027911 152.40732 
L 344.569905 150.346314 
L 345.111899 152.50356 
L 345.653894 152.637394 
L 346.195888 150.566048 
L 346.737882 152.363019 
L 348.363865 151.974864 
L 348.905859 153.424133 
L 349.447853 153.171963 
L 349.989848 152.025806 
L 350.531842 154.569425 
L 351.073836 150.559153 
L 351.61583 152.786892 
L 352.157824 150.346314 
L 352.699819 153.818617 
L 353.241813 150.669676 
L 353.783807 150.162316 
L 354.325801 150.243935 
L 354.867796 152.289347 
L 355.40979 150.182697 
L 356.493778 150.216701 
L 357.035773 153.424133 
L 357.577767 150.8224 
L 358.119761 149.058227 
L 358.661755 151.07422 
L 359.20375 151.420853 
L 359.745744 150.359994 
L 360.287738 152.726992 
L 360.829732 149.478485 
L 361.371726 149.287232 
L 361.913721 149.558029 
L 362.455715 151.31426 
L 362.997709 151.081249 
L 363.539703 151.649691 
L 364.081698 153.00517 
L 364.623692 150.339476 
L 365.70768 148.510151 
L 366.791669 149.518227 
L 367.333663 149.326689 
L 367.875657 148.831178 
L 368.417651 151.116423 
L 368.959646 150.108042 
L 369.50164 151.378165 
L 370.043634 149.399179 
L 370.585628 150.614357 
L 371.127623 148.908805 
L 371.669617 150.312144 
L 372.211611 149.478485 
L 372.753605 152.444294 
L 373.2956 147.662257 
L 373.837594 149.717833 
L 374.379588 151.095313 
L 374.921582 150.787613 
L 375.463577 149.182299 
L 376.005571 150.278018 
L 376.547565 150.906075 
L 377.089559 149.077779 
L 377.631553 151.931277 
L 378.173548 149.485105 
L 378.715542 151.64251 
L 379.257536 146.324198 
L 379.79953 152.60015 
L 380.883519 147.867036 
L 381.425513 148.129966 
L 381.967507 147.3733 
L 382.509502 152.076846 
L 383.051496 148.060852 
L 384.135484 150.128381 
L 384.677478 149.912222 
L 385.219473 148.287716 
L 385.761467 148.529303 
L 386.303461 147.879498 
L 386.845455 148.973668 
L 387.38745 150.829363 
L 387.929444 147.612851 
L 388.471438 150.648918 
L 389.013432 150.683524 
L 389.555427 148.618866 
L 390.097421 148.64451 
L 391.181409 147.318324 
L 391.723403 151.00403 
L 392.265398 149.208494 
L 392.265398 149.208494 
" style="fill:none;stroke:#1f77b4;stroke-linecap:square;stroke-width:1.5;"/>
   </g>
   <g id="line2d_50">
    <path clip-path="url(#p1eb12d6b3c)" d="M 67.610852 25.360187 
L 68.152847 28.045944 
L 69.778829 34.460219 
L 72.4888 47.085692 
L 74.656777 57.705694 
L 77.366748 68.849702 
L 78.450737 72.720128 
L 82.244697 83.275403 
L 82.786691 84.041495 
L 83.328685 86.112614 
L 83.870679 86.79619 
L 84.954668 89.066026 
L 85.496662 89.672967 
L 86.038656 91.227967 
L 86.58065 91.7516 
L 88.206633 94.933334 
L 88.748627 95.612842 
L 89.290622 96.03578 
L 89.832616 97.382873 
L 90.37461 98.349415 
L 90.916604 98.07526 
L 92.000593 100.429273 
L 92.542587 100.925315 
L 93.084581 100.933839 
L 93.626575 102.186265 
L 94.16857 102.991461 
L 94.710564 103.391703 
L 95.252558 104.095259 
L 95.794552 104.544324 
L 96.878541 105.722391 
L 97.420535 105.827231 
L 97.962529 106.789878 
L 98.504524 106.591375 
L 99.046518 107.964438 
L 99.588512 108.588112 
L 100.130506 108.606595 
L 100.6725 109.501888 
L 101.756489 110.51077 
L 102.298483 110.716301 
L 103.382472 111.488035 
L 103.924466 111.701293 
L 104.46646 112.585072 
L 105.008454 112.719214 
L 105.550449 112.585072 
L 106.092443 113.693151 
L 106.634437 113.105528 
L 107.176431 114.025892 
L 107.718426 114.709503 
L 108.26042 114.415888 
L 108.802414 114.684464 
L 109.886402 115.964367 
L 110.970391 116.197996 
L 111.512385 116.606088 
L 112.054379 117.409854 
L 112.596374 116.934799 
L 113.138368 117.614651 
L 113.680362 117.736687 
L 114.222356 118.289819 
L 114.764351 118.524247 
L 115.306345 117.62064 
L 115.848339 118.819177 
L 116.390333 118.867257 
L 116.932327 118.39855 
L 117.474322 118.602852 
L 118.016316 119.620604 
L 118.55831 119.182972 
L 119.100304 119.622757 
L 119.642299 121.458486 
L 120.184293 120.232434 
L 120.726287 120.11376 
L 121.268281 121.865229 
L 121.810276 120.142281 
L 122.35227 120.728205 
L 122.894264 122.356911 
L 123.436258 121.634365 
L 123.978252 122.724476 
L 124.520247 121.629721 
L 125.062241 122.584539 
L 125.604235 121.286054 
L 126.146229 123.244798 
L 126.688224 122.801999 
L 127.772212 122.387945 
L 128.314206 123.48766 
L 128.856201 122.770478 
L 129.940189 123.894055 
L 130.482183 123.929469 
L 131.024178 124.520718 
L 131.566172 124.825275 
L 132.108166 124.148054 
L 132.65016 124.389047 
L 133.192154 125.571311 
L 133.734149 125.080444 
L 134.276143 125.335417 
L 134.818137 125.431667 
L 135.360131 125.727939 
L 135.902126 125.841938 
L 136.44412 125.828341 
L 136.986114 124.859331 
L 137.528108 125.080444 
L 138.070103 125.017081 
L 138.612097 126.752261 
L 139.154091 126.553154 
L 139.696085 126.673562 
L 140.238079 125.801168 
L 140.780074 128.061952 
L 141.322068 127.25809 
L 142.406056 127.315531 
L 142.948051 126.87075 
L 143.490045 127.764957 
L 144.032039 128.383246 
L 144.574033 127.630785 
L 145.116028 128.359313 
L 145.658022 128.251879 
L 146.200016 128.338389 
L 146.74201 127.72697 
L 147.284004 127.503076 
L 147.825999 128.575491 
L 148.367993 128.371277 
L 148.909987 129.108373 
L 149.451981 127.744496 
L 149.993976 129.866493 
L 150.53597 128.860396 
L 151.077964 128.918356 
L 151.619958 129.567529 
L 152.161953 128.422183 
L 152.703947 128.881735 
L 153.787935 130.213709 
L 154.32993 129.253328 
L 154.871924 129.083778 
L 155.413918 129.787492 
L 155.955912 129.680426 
L 156.497906 130.562272 
L 157.039901 130.271487 
L 157.581895 130.75464 
L 158.665883 130.095338 
L 159.207878 130.604539 
L 159.749872 129.169959 
L 160.291866 130.800491 
L 160.83386 130.869417 
L 161.375855 130.510344 
L 161.917849 131.027636 
L 162.459843 132.544617 
L 163.001837 130.895722 
L 163.543831 130.529805 
L 164.085826 130.643614 
L 164.62782 133.380168 
L 165.169814 131.561941 
L 165.711808 131.528231 
L 166.253803 131.983543 
L 166.795797 132.86152 
L 167.337791 131.863864 
L 167.879785 132.607696 
L 168.963774 132.193424 
L 169.505768 131.771906 
L 170.047762 132.80844 
L 170.589757 132.520127 
L 171.131751 132.481688 
L 171.673745 132.048738 
L 172.215739 133.128523 
L 172.757733 131.659944 
L 173.841722 134.861902 
L 174.383716 134.127424 
L 174.92571 133.601419 
L 175.467705 133.652459 
L 176.009699 134.306344 
L 176.551693 132.943116 
L 177.093687 134.056933 
L 177.635682 134.595902 
L 178.177676 131.812737 
L 178.71967 134.988232 
L 179.261664 135.343626 
L 179.803658 134.201828 
L 180.345653 133.820854 
L 180.887647 134.72857 
L 181.429641 134.881005 
L 181.971635 135.802569 
L 182.51363 133.572297 
L 183.055624 134.969052 
L 183.597618 135.250455 
L 184.681607 135.192389 
L 185.223601 135.751182 
L 185.765595 135.897698 
L 186.307589 134.819926 
L 186.849583 134.988232 
L 187.391578 135.464456 
L 187.933572 136.14103 
L 188.475566 135.85802 
L 189.01756 134.445089 
L 189.559555 136.471681 
L 190.101549 136.471681 
L 190.643543 136.197192 
L 191.185537 135.370862 
L 191.727532 136.269575 
L 192.269526 135.265961 
L 192.81152 136.667158 
L 193.353514 137.108155 
L 193.895509 137.262368 
L 194.437503 137.552366 
L 194.979497 136.740835 
L 195.521491 136.687604 
L 196.063485 137.249831 
L 196.60548 135.861985 
L 197.147474 137.845562 
L 197.689468 137.112311 
L 198.231462 138.32847 
L 198.773457 137.764504 
L 199.315451 137.033455 
L 199.857445 137.021025 
L 200.399439 137.72194 
L 200.941434 138.228583 
L 201.483428 138.520611 
L 202.025422 137.760244 
L 203.10941 138.67004 
L 203.651405 137.982643 
L 204.193399 138.842485 
L 204.735393 138.034231 
L 205.277387 139.267286 
L 206.361376 138.047144 
L 206.90337 139.105509 
L 207.987359 139.389268 
L 208.529353 138.577646 
L 209.071347 139.029455 
L 209.613341 140.898463 
L 210.155336 137.961178 
L 210.69733 138.762756 
L 211.239324 139.975296 
L 211.781318 138.683266 
L 212.323312 140.755067 
L 212.865307 140.631413 
L 213.407301 138.922454 
L 213.949295 138.524994 
L 214.491289 140.855363 
L 215.033284 139.749428 
L 215.575278 139.929044 
L 216.117272 141.347971 
L 216.659266 139.213251 
L 217.201261 139.804565 
L 217.743255 141.730929 
L 218.285249 141.216684 
L 218.827243 140.484727 
L 219.369237 140.912845 
L 219.911232 141.989335 
L 220.453226 140.560335 
L 220.99522 140.165773 
L 221.537214 140.418747 
L 222.079209 141.914537 
L 222.621203 141.372355 
L 223.705191 140.712198 
L 224.247186 142.346264 
L 224.78918 141.052276 
L 225.331174 142.641439 
L 225.873168 142.280551 
L 226.415162 141.372355 
L 226.957157 141.29927 
L 227.499151 142.215001 
L 228.041145 141.362599 
L 228.583139 141.617431 
L 229.125134 141.642063 
L 229.667128 141.40653 
L 230.209122 142.697793 
L 230.751116 142.059337 
L 231.293111 142.631206 
L 231.835105 142.826314 
L 232.377099 141.56332 
L 232.919093 142.109452 
L 233.461088 142.908895 
L 234.003082 143.194741 
L 234.545076 142.713182 
L 235.08707 143.336198 
L 235.629064 141.929479 
L 236.171059 144.130668 
L 236.713053 142.2856 
L 237.255047 143.568346 
L 237.797041 143.473131 
L 238.339036 142.950282 
L 238.88103 143.488976 
L 239.423024 142.790265 
L 240.507013 144.749426 
L 241.049007 143.663903 
L 241.591001 143.173848 
L 242.132995 143.791849 
L 243.216984 142.610752 
L 244.300972 144.545234 
L 244.842966 143.861411 
L 245.384961 144.949617 
L 245.926955 145.230185 
L 246.468949 143.616081 
L 247.010943 144.348054 
L 247.552938 143.952653 
L 248.094932 145.451103 
L 248.636926 144.882719 
L 249.17892 143.002107 
L 249.720914 145.800365 
L 250.262909 145.691086 
L 250.804903 144.163163 
L 251.346897 144.315333 
L 251.888891 145.817661 
L 252.430886 144.495801 
L 252.97288 146.442021 
L 254.056868 144.342598 
L 254.598863 143.813233 
L 255.140857 145.331919 
L 255.682851 144.539737 
L 256.224845 146.341839 
L 256.76684 145.525152 
L 257.308834 145.639478 
L 257.850828 146.643526 
L 258.392822 145.685346 
L 258.934816 145.956434 
L 259.476811 146.512966 
L 260.018805 144.854895 
L 260.560799 146.691162 
L 261.102793 147.117713 
L 261.644788 147.111658 
L 262.186782 146.691162 
L 262.728776 145.297964 
L 263.27077 145.145703 
L 263.812765 146.442021 
L 264.354759 146.978784 
L 264.896753 145.416996 
L 265.438747 146.720978 
L 266.522736 147.625194 
L 267.06473 148.7989 
L 267.606724 148.192954 
L 268.148718 146.834584 
L 268.690713 146.400724 
L 269.232707 146.97276 
L 269.774701 148.161441 
L 270.316695 147.66844 
L 270.85869 146.703084 
L 271.400684 148.657342 
L 271.942678 146.365377 
L 272.484672 147.135888 
L 273.026667 146.590038 
L 273.568661 150.46969 
L 274.110655 147.45291 
L 274.652649 147.910677 
L 275.194643 148.734462 
L 275.736638 148.650925 
L 276.278632 148.174042 
L 276.820626 148.779553 
L 277.904615 146.870561 
L 278.446609 147.251285 
L 278.988603 148.606052 
L 279.530597 147.569695 
L 280.072592 148.401878 
L 280.614586 148.218191 
L 281.15658 151.585131 
L 281.698574 148.747337 
L 282.240568 149.143056 
L 282.782563 150.373681 
L 283.324557 148.36377 
L 283.866551 150.305315 
L 284.408545 149.058227 
L 284.95054 148.275062 
L 285.492534 150.11482 
L 286.576522 149.711156 
L 287.118517 149.59789 
L 287.660511 148.638097 
L 288.744499 150.284839 
L 289.286493 149.445412 
L 289.828488 151.449351 
L 290.370482 150.738987 
L 290.912476 150.892111 
L 291.45447 152.025806 
L 291.996465 149.744561 
L 292.538459 149.045201 
L 293.080453 149.757935 
L 293.622447 151.30008 
L 294.164442 150.162316 
L 294.706436 150.593642 
L 295.24843 151.750431 
L 295.790424 149.045201 
L 296.332419 151.982136 
L 296.874413 150.040354 
L 297.416407 150.033595 
L 297.958401 149.86517 
L 298.500395 152.062253 
L 299.04239 151.335545 
L 299.584384 149.531488 
L 300.126378 152.040379 
L 300.668372 150.33264 
L 301.210367 150.087717 
L 301.752361 152.084146 
L 302.294355 150.552261 
L 302.836349 152.884519 
L 303.378344 152.496145 
L 303.920338 150.614357 
L 304.462332 152.091447 
L 305.004326 150.148737 
L 305.54632 151.635331 
L 306.088315 151.285907 
L 306.630309 153.171963 
L 307.172303 151.399501 
L 307.714297 151.229292 
L 308.256292 152.062253 
L 308.798286 151.772067 
L 309.34028 152.682155 
L 309.882274 152.869476 
L 310.424269 152.326157 
L 310.966263 151.032084 
L 311.508257 153.385771 
L 312.050251 152.667226 
L 312.592246 152.922164 
L 313.13424 150.962005 
L 313.676234 154.609534 
L 314.218228 151.772067 
L 314.760222 150.148737 
L 315.302217 154.226956 
L 315.844211 153.593585 
L 316.386205 153.849806 
L 316.928199 151.046122 
L 317.470194 153.225254 
L 318.012188 152.937236 
L 318.554182 152.135298 
L 319.096176 153.454862 
L 319.638171 154.219044 
L 320.180165 153.678718 
L 320.722159 151.463611 
L 321.806147 154.82718 
L 322.348142 152.846928 
L 322.890136 153.17957 
L 323.43213 154.330029 
L 323.974124 153.943593 
L 324.516119 153.012729 
L 325.058113 154.843373 
L 325.600107 155.111991 
L 326.142101 152.392545 
L 326.684096 154.940738 
L 327.22609 154.859575 
L 327.768084 152.473911 
L 328.310078 154.401621 
L 328.852072 153.447177 
L 329.394067 155.909225 
L 330.478055 154.124282 
L 331.020049 154.022002 
L 331.562044 155.449555 
L 332.104038 154.155832 
L 332.646032 154.369778 
L 333.188026 154.973273 
L 333.730021 154.497379 
L 334.814009 156.027512 
L 335.356003 154.108521 
L 335.897998 154.465421 
L 336.439992 154.1164 
L 336.981986 155.507619 
L 337.52398 155.841868 
L 338.607969 154.867681 
L 339.149963 155.466132 
L 339.691957 155.825055 
L 340.233951 154.140052 
L 340.775946 156.722417 
L 341.31794 158.427473 
L 341.859934 156.291322 
L 342.401928 156.592353 
L 342.943923 154.513372 
L 343.485917 155.841868 
L 344.027911 154.649705 
L 344.569905 153.904475 
L 345.111899 156.214462 
L 345.653894 156.376983 
L 346.195888 155.78307 
L 346.737882 157.169458 
L 347.279876 154.802909 
L 347.821871 156.231523 
L 348.363865 154.322086 
L 348.905859 157.597184 
L 349.447853 155.391618 
L 350.531842 157.453842 
L 351.073836 157.31127 
L 351.61583 156.984471 
L 352.157824 155.038462 
L 352.699819 158.932719 
L 353.241813 154.673836 
L 353.783807 156.914337 
L 354.325801 155.56581 
L 354.867796 156.471531 
L 355.40979 156.385565 
L 355.951784 158.050173 
L 356.493778 155.942967 
L 357.035773 157.777454 
L 357.577767 158.041037 
L 358.119761 155.540855 
L 358.661755 157.525416 
L 359.20375 156.575059 
L 359.745744 155.934528 
L 360.287738 158.632156 
L 360.829732 156.188891 
L 361.371726 158.904396 
L 361.913721 156.844388 
L 362.455715 156.792046 
L 362.997709 156.351256 
L 363.539703 158.501721 
L 364.081698 156.870597 
L 364.623692 159.544237 
L 365.165686 155.917656 
L 365.70768 159.008394 
L 366.249675 157.913464 
L 366.791669 159.438126 
L 367.333663 157.895289 
L 367.875657 157.651136 
L 368.417651 157.877126 
L 368.959646 156.870597 
L 369.50164 156.670315 
L 370.043634 158.473853 
L 370.585628 157.231408 
L 371.127623 155.499316 
L 371.669617 158.716346 
L 372.211611 158.725717 
L 372.753605 158.059312 
L 373.2956 157.213693 
L 373.837594 158.951617 
L 374.379588 157.516459 
L 375.463577 158.483139 
L 376.005571 159.95333 
L 376.547565 157.098835 
L 377.089559 159.227167 
L 377.631553 158.178406 
L 378.173548 157.534377 
L 378.715542 159.332437 
L 379.257536 156.635637 
L 379.79953 158.725717 
L 380.341525 156.231523 
L 380.883519 158.576177 
L 381.425513 159.351622 
L 381.967507 158.697614 
L 382.509502 158.876104 
L 383.051496 158.735091 
L 383.59349 159.476663 
L 384.135484 160.538855 
L 384.677478 158.059312 
L 385.219473 159.845577 
L 385.761467 158.566858 
L 386.303461 160.35885 
L 386.845455 158.041037 
L 387.38745 157.723244 
L 387.929444 158.446015 
L 389.013432 157.516459 
L 389.555427 158.86668 
L 390.097421 159.777233 
L 390.639415 158.716346 
L 391.181409 159.544237 
L 391.723403 160.051668 
L 392.265398 158.25196 
L 392.265398 158.25196 
" style="fill:none;stroke:#ff7f0e;stroke-linecap:square;stroke-width:1.5;"/>
   </g>
   <g id="line2d_51">
    <path clip-path="url(#p1eb12d6b3c)" d="M 67.610852 25.311572 
L 68.694841 30.175098 
L 69.778829 35.292792 
L 70.862818 42.060573 
L 71.946806 50.176449 
L 75.740766 81.233538 
L 76.28276 85.26175 
L 78.992731 99.123481 
L 79.534725 101.321354 
L 80.07672 104.363059 
L 81.702702 110.887765 
L 82.244697 111.805359 
L 82.786691 114.748898 
L 83.328685 115.614026 
L 83.870679 117.825062 
L 84.412673 119.523919 
L 84.954668 122.228386 
L 85.496662 122.553274 
L 86.038656 123.121739 
L 86.58065 126.873577 
L 87.122645 126.867922 
L 87.664639 129.163794 
L 88.206633 129.765414 
L 88.748627 132.474705 
L 89.290622 132.279922 
L 89.832616 134.804678 
L 90.37461 135.40982 
L 90.916604 138.034231 
L 91.458599 137.025168 
L 92.000593 138.83805 
L 92.542587 139.869037 
L 93.084581 142.109452 
L 93.626575 142.580099 
L 94.16857 142.069352 
L 94.710564 143.059231 
L 95.252558 143.531277 
L 95.794552 145.834968 
L 96.336547 147.434517 
L 96.878541 145.973832 
L 97.420535 149.892046 
L 97.962529 150.169108 
L 98.504524 150.885132 
L 99.046518 149.885325 
L 99.588512 154.187419 
L 100.130506 151.060167 
L 100.6725 153.278652 
L 101.214495 153.042986 
L 102.298483 154.641666 
L 102.840477 156.368405 
L 103.382472 155.557489 
L 103.924466 156.975694 
L 104.46646 158.876104 
L 105.008454 157.678154 
L 105.550449 160.170157 
L 106.092443 157.471718 
L 106.634437 160.953477 
L 107.176431 161.416121 
L 107.718426 160.579023 
L 108.26042 164.098259 
L 108.802414 162.953133 
L 109.344408 164.526151 
L 109.886402 163.632018 
L 110.428397 163.790304 
L 110.970391 162.420086 
L 111.512385 162.920189 
L 112.054379 165.901841 
L 112.596374 167.068898 
L 113.138368 166.310118 
L 113.680362 166.086644 
L 114.222356 167.03044 
L 114.764351 165.572399 
L 115.306345 166.953691 
L 115.848339 170.009518 
L 116.390333 171.406893 
L 116.932327 169.752835 
L 117.474322 169.880867 
L 118.016316 171.331487 
L 118.55831 174.939006 
L 119.100304 172.517156 
L 119.642299 168.736531 
L 120.184293 172.977785 
L 120.726287 173.106272 
L 121.268281 171.482514 
L 121.810276 173.106272 
L 122.35227 173.890519 
L 122.894264 173.381388 
L 123.436258 176.575262 
L 123.978252 173.890519 
L 124.520247 173.626524 
L 125.062241 175.233869 
L 125.604235 178.065458 
L 126.146229 177.489679 
L 126.688224 177.642005 
L 127.230218 177.968625 
L 127.772212 177.77601 
L 128.314206 176.538599 
L 128.856201 179.623605 
L 129.398195 178.14318 
L 129.940189 178.893095 
L 130.482183 179.013461 
L 131.024178 181.631461 
L 131.566172 181.72036 
L 132.108166 183.349904 
L 132.65016 181.322636 
L 133.192154 181.921477 
L 133.734149 181.4766 
L 134.276143 178.436677 
L 135.360131 184.240425 
L 135.902126 182.465348 
L 136.44412 181.256923 
L 136.986114 182.16937 
L 137.528108 185.288816 
L 138.070103 185.647675 
L 138.612097 182.764658 
L 139.696085 185.060654 
L 140.238079 184.659805 
L 140.780074 187.079089 
L 141.322068 186.566608 
L 141.864062 188.563183 
L 142.406056 185.365308 
L 142.948051 186.808131 
L 143.490045 185.596112 
L 144.032039 187.079089 
L 144.574033 188.134682 
L 145.116028 185.673494 
L 145.658022 187.133614 
L 146.200016 189.411733 
L 146.74201 186.916183 
L 147.284004 185.699338 
L 147.825999 187.965197 
L 148.367993 187.024676 
L 148.909987 192.232126 
L 149.451981 190.504247 
L 149.993976 191.77326 
L 150.53597 194.689613 
L 151.077964 192.29833 
L 151.619958 190.721996 
L 152.161953 188.248275 
L 153.245941 193.938795 
L 154.32993 190.56628 
L 154.871924 191.004606 
L 155.413918 193.140096 
L 155.955912 194.186719 
L 156.497906 195.876121 
L 157.039901 199.011625 
L 157.581895 194.472921 
L 158.123889 192.935628 
L 158.665883 193.003609 
L 159.207878 196.45107 
L 159.749872 197.197659 
L 160.291866 193.208604 
L 161.375855 198.71463 
L 161.917849 197.357544 
L 162.459843 198.420917 
L 163.001837 196.684577 
L 163.543831 199.703196 
L 164.085826 196.802105 
L 164.62782 200.775507 
L 165.169814 201.750632 
L 165.711808 199.355162 
L 166.253803 201.515194 
L 166.795797 198.213091 
L 167.337791 202.615905 
L 168.42178 198.756855 
L 168.963774 199.225815 
L 169.505768 198.254527 
L 170.047762 205.394762 
L 170.589757 204.751647 
L 171.131751 203.109069 
L 171.673745 203.611556 
L 172.215739 201.703377 
L 172.757733 205.34057 
L 173.299728 201.468356 
L 173.841722 203.359125 
L 174.383716 204.540687 
L 174.92571 211.056232 
L 175.467705 206.958788 
L 176.009699 201.797971 
L 176.551693 205.071259 
L 177.093687 201.609119 
L 177.635682 204.540687 
L 178.177676 202.227858 
L 178.71967 210.067985 
L 179.261664 205.34057 
L 179.803658 207.955317 
L 180.345653 211.32609 
L 180.887647 208.255668 
L 181.429641 206.672662 
L 182.51363 210.855621 
L 183.055624 207.423092 
L 183.597618 208.437521 
L 184.139612 212.718071 
L 184.681607 212.152501 
L 185.223601 205.503477 
L 185.765595 206.615805 
L 186.307589 213.737732 
L 186.849583 207.248026 
L 187.391578 213.886645 
L 187.933572 210.197648 
L 188.475566 214.111589 
L 189.01756 210.327946 
L 189.559555 212.861364 
L 190.101549 207.074106 
L 190.643543 209.177637 
L 191.185537 203.662331 
L 192.269526 214.953065 
L 192.81152 210.00339 
L 193.353514 214.643983 
L 193.895509 210.132737 
L 194.437503 214.262617 
L 194.979497 211.667311 
L 195.521491 214.490779 
L 196.063485 214.111589 
L 196.60548 215.265784 
L 197.147474 213.886645 
L 197.689468 210.590474 
L 198.231462 211.736084 
L 198.773457 218.435898 
L 199.315451 212.646713 
L 199.857445 210.132737 
L 200.399439 219.337027 
L 200.941434 210.132737 
L 201.483428 217.822805 
L 202.025422 215.582225 
L 202.567416 216.970784 
L 203.10941 214.262617 
L 203.651405 215.344542 
L 204.193399 217.822805 
L 204.735393 212.29277 
L 205.277387 221.236461 
L 205.819382 222.444886 
L 206.361376 222.035943 
L 206.90337 221.040292 
L 207.445364 219.799313 
L 207.987359 219.063466 
L 208.529353 216.308301 
L 209.071347 220.652245 
L 209.613341 218.972901 
L 210.155336 213.812084 
L 210.69733 214.875457 
L 211.239324 212.152501 
L 211.781318 218.703043 
L 212.323312 219.520978 
L 212.865307 225.498493 
L 213.407301 218.347442 
L 213.949295 216.308301 
L 214.491289 217.822805 
L 215.033284 220.080594 
L 215.575278 214.720917 
L 216.117272 212.861364 
L 216.659266 219.799313 
L 217.201261 220.080594 
L 217.743255 218.17141 
L 218.285249 217.822805 
L 218.827243 223.176034 
L 219.369237 214.798075 
L 219.911232 218.703043 
L 220.453226 220.460325 
L 220.99522 214.953065 
L 221.537214 221.236461 
L 222.079209 221.733313 
L 222.621203 221.138196 
L 223.163197 221.138196 
L 223.705191 219.428843 
L 224.247186 223.176034 
L 224.78918 217.139017 
L 225.331174 223.710877 
L 225.873168 220.942748 
L 226.415162 220.269781 
L 226.957157 217.650202 
L 228.583139 222.035943 
L 229.125134 225.84748 
L 229.667128 226.559507 
L 230.209122 225.614313 
L 230.751116 218.083829 
L 231.293111 228.948986 
L 231.835105 223.176034 
L 232.377099 220.460325 
L 232.919093 215.187259 
L 233.461088 218.17141 
L 234.003082 223.282145 
L 234.545076 217.223535 
L 235.08707 223.282145 
L 235.629064 220.556112 
L 236.171059 219.986502 
L 236.713053 224.037025 
L 237.255047 220.556112 
L 237.797041 218.972901 
L 238.339036 224.256702 
L 238.88103 225.84748 
L 239.423024 216.554801 
L 239.965018 220.748727 
L 240.507013 225.84748 
L 241.049007 227.291134 
L 241.591001 234.651026 
L 242.132995 228.299057 
L 242.674989 226.082709 
L 243.216984 228.687104 
L 243.758978 224.367225 
L 244.300972 221.434089 
L 244.842966 228.170956 
L 245.384961 216.064065 
L 245.926955 228.687104 
L 246.468949 221.236461 
L 247.010943 224.58966 
L 247.552938 216.887065 
L 248.094932 224.146637 
L 248.636926 216.803609 
L 249.17892 221.633197 
L 249.720914 227.539554 
L 250.262909 224.146637 
L 250.804903 222.965075 
L 251.346897 222.548113 
L 251.888891 216.145228 
L 252.430886 223.603044 
L 252.97288 220.652245 
L 253.514874 229.750477 
L 254.056868 226.922804 
L 254.598863 223.176034 
L 255.140857 223.603044 
L 255.682851 226.439503 
L 256.224845 236.508216 
L 256.76684 221.833807 
L 257.308834 225.383175 
L 257.850828 223.710877 
L 258.392822 229.88644 
L 258.934816 224.926841 
L 259.476811 226.320039 
L 260.018805 222.755776 
L 260.560799 229.213473 
L 261.102793 219.613433 
L 261.644788 221.236461 
L 262.186782 224.926841 
L 262.728776 232.460783 
L 263.27077 219.063466 
L 263.812765 226.559507 
L 264.354759 221.733313 
L 264.896753 230.160471 
L 265.438747 229.750477 
L 265.980741 228.817722 
L 266.522736 227.045014 
L 267.06473 224.813972 
L 267.606724 226.559507 
L 268.690713 221.633197 
L 269.232707 225.383175 
L 269.774701 225.154029 
L 270.316695 221.040292 
L 270.85869 237.217079 
L 271.400684 226.922804 
L 271.942678 235.479155 
L 272.484672 220.652245 
L 273.026667 223.176034 
L 273.568661 219.337027 
L 274.110655 232.014037 
L 274.652649 226.082709 
L 275.194643 228.687104 
L 275.736638 229.34671 
L 276.278632 222.860219 
L 276.820626 230.160471 
L 277.36262 227.167789 
L 277.904615 229.080901 
L 278.446609 225.154029 
L 278.988603 222.755776 
L 279.530597 232.16212 
L 280.072592 231.285751 
L 281.15658 224.58966 
L 281.698574 225.614313 
L 282.782563 234.979188 
L 283.324557 219.799313 
L 283.866551 227.291134 
L 284.408545 229.88644 
L 284.95054 227.291134 
L 285.492534 230.717157 
L 286.034528 222.444886 
L 286.576522 230.437357 
L 287.118517 231.720324 
L 287.660511 227.664641 
L 288.202505 227.167789 
L 288.744499 233.690171 
L 289.286493 230.160471 
L 289.828488 227.790318 
L 290.370482 227.664641 
L 290.912476 237.761414 
L 291.45447 225.964834 
L 291.996465 228.04347 
L 292.538459 229.213473 
L 293.080453 230.999934 
L 293.622447 234.006613 
L 294.164442 240.258195 
L 294.706436 233.533352 
L 295.24843 237.945365 
L 295.790424 229.480619 
L 296.332419 230.717157 
L 296.874413 225.268355 
L 297.416407 228.948986 
L 297.958401 229.480619 
L 298.500395 227.415054 
L 299.04239 228.817722 
L 299.584384 236.860285 
L 300.126378 222.651742 
L 300.668372 228.948986 
L 301.210367 223.070345 
L 301.752361 236.16075 
L 302.294355 230.576889 
L 302.836349 218.882644 
L 303.378344 233.533352 
L 303.920338 230.999934 
L 305.004326 227.916593 
L 305.54632 227.539554 
L 306.088315 221.040292 
L 306.630309 230.858169 
L 307.172303 231.574675 
L 307.714297 240.664016 
L 308.256292 229.34671 
L 308.798286 223.603044 
L 309.34028 238.130598 
L 309.882274 230.023102 
L 310.424269 227.790318 
L 310.966263 231.285751 
L 311.508257 226.801152 
L 312.050251 238.694169 
L 312.592246 234.814601 
L 313.13424 237.945365 
L 313.676234 232.611383 
L 314.218228 224.146637 
L 314.760222 227.415054 
L 315.302217 235.144801 
L 315.844211 227.790318 
L 316.386205 237.397288 
L 316.928199 225.268355 
L 317.470194 241.076129 
L 318.012188 231.142458 
L 318.554182 224.926841 
L 319.096176 231.574675 
L 319.638171 230.858169 
L 320.180165 224.58966 
L 320.722159 232.460783 
L 321.264153 231.866775 
L 321.806147 230.576889 
L 322.348142 232.762841 
L 322.890136 230.576889 
L 323.974124 247.373373 
L 324.516119 219.986502 
L 325.058113 231.429821 
L 325.600107 226.680055 
L 326.142101 235.311452 
L 326.684096 229.34671 
L 327.22609 239.660849 
L 327.768084 224.037025 
L 328.310078 228.948986 
L 328.852072 238.884713 
L 329.394067 230.023102 
L 330.478055 246.852165 
L 331.020049 220.942748 
L 331.562044 233.533352 
L 332.104038 232.460783 
L 332.646032 230.298553 
L 333.188026 231.285751 
L 333.730021 235.647922 
L 334.272015 239.076632 
L 334.814009 225.614313 
L 335.356003 238.504981 
L 335.897998 232.16212 
L 336.439992 230.023102 
L 336.981986 245.592177 
L 337.52398 236.860285 
L 338.065974 236.860285 
L 338.607969 228.04347 
L 339.149963 240.057584 
L 339.691957 229.480619 
L 340.233951 243.014047 
L 340.775946 221.434089 
L 341.859934 238.31713 
L 342.401928 223.603044 
L 342.943923 233.847921 
L 343.485917 240.057584 
L 344.027911 228.04347 
L 344.569905 237.397288 
L 345.111899 223.388682 
L 345.653894 237.761414 
L 346.195888 228.687104 
L 346.737882 238.884713 
L 347.279876 234.651026 
L 347.821871 236.860285 
L 348.363865 245.104442 
L 348.905859 237.761414 
L 349.447853 234.166257 
L 349.989848 236.508216 
L 350.531842 236.860285 
L 351.073836 233.06837 
L 351.61583 242.791613 
L 352.157824 229.34671 
L 353.241813 231.574675 
L 353.783807 227.539554 
L 354.325801 234.814601 
L 354.867796 237.038083 
L 355.40979 247.63786 
L 355.951784 237.578728 
L 356.493778 230.576889 
L 357.035773 229.88644 
L 357.577767 228.948986 
L 358.119761 241.706533 
L 358.661755 243.692742 
L 359.745744 230.576889 
L 360.287738 228.687104 
L 360.829732 235.479155 
L 361.371726 232.311032 
L 361.913721 231.720324 
L 362.455715 232.611383 
L 362.997709 242.135264 
L 363.539703 245.347191 
L 364.081698 234.166257 
L 364.623692 238.504981 
L 365.165686 235.144801 
L 365.70768 227.415054 
L 366.249675 239.46468 
L 366.791669 230.437357 
L 367.333663 241.284607 
L 367.875657 234.006613 
L 368.417651 238.31713 
L 368.959646 237.761414 
L 369.50164 236.16075 
L 370.043634 239.858476 
L 370.585628 240.460331 
L 371.127623 234.166257 
L 371.669617 232.014037 
L 372.211611 249.854208 
L 372.753605 228.557125 
L 373.2956 246.595344 
L 373.837594 233.533352 
L 374.379588 246.089028 
L 374.921582 235.647922 
L 375.463577 234.651026 
L 376.005571 240.057584 
L 376.547565 233.533352 
L 377.089559 254.242155 
L 377.631553 227.664641 
L 378.173548 245.104442 
L 378.715542 235.311452 
L 379.257536 246.34098 
L 379.79953 245.347191 
L 380.341525 241.920034 
L 380.883519 236.860285 
L 381.425513 261.216 
L 381.967507 237.217079 
L 382.509502 237.578728 
L 383.051496 243.692742 
L 383.59349 239.46468 
L 384.677478 244.155028 
L 385.219473 240.664016 
L 385.761467 237.945365 
L 386.303461 235.817768 
L 386.845455 246.595344 
L 387.38745 238.884713 
L 387.929444 233.06837 
L 388.471438 231.285751 
L 389.013432 249.854208 
L 389.555427 237.945365 
L 390.097421 239.46468 
L 390.639415 241.920034 
L 391.181409 230.437357 
L 391.723403 229.34671 
L 392.265398 237.217079 
L 392.265398 237.217079 
" style="fill:none;stroke:#2ca02c;stroke-linecap:square;stroke-width:1.5;"/>
   </g>
   <g id="line2d_52">
    <path clip-path="url(#p1eb12d6b3c)" d="M 67.610852 199.923055 
L 68.152847 206.843968 
L 68.694841 207.658322 
L 69.236835 204.751647 
L 69.778829 208.316147 
L 70.320823 205.887519 
L 70.862818 206.786743 
L 71.404812 207.189926 
L 71.946806 213.295937 
L 72.4888 206.729642 
L 73.030795 211.805035 
L 73.572789 211.805035 
L 74.114783 209.428993 
L 74.656777 208.376765 
L 75.198772 209.938952 
L 75.740766 212.29277 
L 76.28276 211.805035 
L 76.824754 211.056232 
L 77.366748 208.376765 
L 77.908743 210.922323 
L 78.450737 215.108965 
L 78.992731 211.736084 
L 79.534725 213.58965 
L 80.07672 213.369061 
L 80.618714 213.961415 
L 81.160708 212.433782 
L 81.702702 213.663588 
L 82.244697 214.953065 
L 82.786691 215.74187 
L 83.328685 214.490779 
L 83.870679 215.661928 
L 84.412673 213.812084 
L 84.954668 214.490779 
L 85.496662 218.435898 
L 86.038656 220.269781 
L 86.58065 215.983149 
L 87.122645 218.613696 
L 87.664639 217.822805 
L 88.206633 215.265784 
L 88.748627 216.637478 
L 89.290622 223.176034 
L 89.832616 215.265784 
L 90.37461 212.646713 
L 90.916604 214.338453 
L 91.458599 219.245527 
L 92.000593 214.262617 
L 92.542587 215.344542 
L 93.084581 213.223013 
L 93.626575 217.736363 
L 94.16857 214.643983 
L 94.710564 213.886645 
L 95.252558 220.556112 
L 95.794552 218.972901 
L 96.336547 219.70621 
L 96.878541 219.337027 
L 97.420535 220.175019 
L 97.962529 218.524648 
L 98.504524 220.364883 
L 99.046518 214.875457 
L 99.588512 223.495647 
L 100.130506 216.554801 
L 100.6725 218.703043 
L 101.214495 221.434089 
L 101.756489 217.909528 
L 102.298483 218.792692 
L 102.840477 216.720414 
L 103.382472 219.337027 
L 103.924466 215.187259 
L 104.46646 220.364883 
L 105.008454 219.613433 
L 105.550449 220.942748 
L 106.092443 219.986502 
L 106.634437 222.548113 
L 107.176431 222.239628 
L 107.718426 221.833807 
L 108.26042 218.435898 
L 108.802414 221.733313 
L 109.344408 220.942748 
L 109.886402 219.70621 
L 110.428397 221.335091 
L 110.970391 223.176034 
L 111.512385 223.710877 
L 112.054379 216.390214 
L 112.596374 222.755776 
L 113.138368 222.444886 
L 113.680362 219.520978 
L 114.222356 219.799313 
L 114.764351 220.556112 
" style="fill:none;stroke:#d62728;stroke-linecap:square;stroke-width:1.5;"/>
   </g>
   <g id="line2d_53"/>
   <g id="line2d_54"/>
   <g id="line2d_55"/>
   <g id="line2d_56"/>
   <g id="line2d_57"/>
   <g id="patch_3">
    <path d="M 51.378125 273.312 
L 51.378125 7.2 
" style="fill:none;stroke:#000000;stroke-linecap:square;stroke-linejoin:miter;stroke-width:0.8;"/>
   </g>
   <g id="patch_4">
    <path d="M 408.498125 273.312 
L 408.498125 7.2 
" style="fill:none;stroke:#000000;stroke-linecap:square;stroke-linejoin:miter;stroke-width:0.8;"/>
   </g>
   <g id="patch_5">
    <path d="M 51.378125 273.312 
L 408.498125 273.312 
" style="fill:none;stroke:#000000;stroke-linecap:square;stroke-linejoin:miter;stroke-width:0.8;"/>
   </g>
   <g id="patch_6">
    <path d="M 51.378125 7.2 
L 408.498125 7.2 
" style="fill:none;stroke:#000000;stroke-linecap:square;stroke-linejoin:miter;stroke-width:0.8;"/>
   </g>
   <g id="legend_1">
    <g id="patch_7">
     <path d="M 287.98875 88.590625 
L 401.498125 88.590625 
Q 403.498125 88.590625 403.498125 86.590625 
L 403.498125 14.2 
Q 403.498125 12.2 401.498125 12.2 
L 287.98875 12.2 
Q 285.98875 12.2 285.98875 14.2 
L 285.98875 86.590625 
Q 285.98875 88.590625 287.98875 88.590625 
z
" style="fill:#ffffff;opacity:0.8;stroke:#cccccc;stroke-linejoin:miter;"/>
    </g>
    <g id="line2d_58">
     <path d="M 289.98875 20.298437 
L 309.98875 20.298437 
" style="fill:none;"/>
    </g>
    <g id="line2d_59"/>
    <g id="text_14">
     <!-- Model -->
     <defs>
      <path d="M 9.8125 72.90625 
L 24.515625 72.90625 
L 43.109375 23.296875 
L 61.8125 72.90625 
L 76.515625 72.90625 
L 76.515625 0 
L 66.890625 0 
L 66.890625 64.015625 
L 48.09375 14.015625 
L 38.1875 14.015625 
L 19.390625 64.015625 
L 19.390625 0 
L 9.8125 0 
z
" id="DejaVuSans-77"/>
      <path d="M 45.40625 46.390625 
L 45.40625 75.984375 
L 54.390625 75.984375 
L 54.390625 0 
L 45.40625 0 
L 45.40625 8.203125 
Q 42.578125 3.328125 38.25 0.953125 
Q 33.9375 -1.421875 27.875 -1.421875 
Q 17.96875 -1.421875 11.734375 6.484375 
Q 5.515625 14.40625 5.515625 27.296875 
Q 5.515625 40.1875 11.734375 48.09375 
Q 17.96875 56 27.875 56 
Q 33.9375 56 38.25 53.625 
Q 42.578125 51.265625 45.40625 46.390625 
z
M 14.796875 27.296875 
Q 14.796875 17.390625 18.875 11.75 
Q 22.953125 6.109375 30.078125 6.109375 
Q 37.203125 6.109375 41.296875 11.75 
Q 45.40625 17.390625 45.40625 27.296875 
Q 45.40625 37.203125 41.296875 42.84375 
Q 37.203125 48.484375 30.078125 48.484375 
Q 22.953125 48.484375 18.875 42.84375 
Q 14.796875 37.203125 14.796875 27.296875 
z
" id="DejaVuSans-100"/>
      <path d="M 9.421875 75.984375 
L 18.40625 75.984375 
L 18.40625 0 
L 9.421875 0 
z
" id="DejaVuSans-108"/>
     </defs>
     <g transform="translate(317.98875 23.798437)scale(0.1 -0.1)">
      <use xlink:href="#DejaVuSans-77"/>
      <use x="86.279297" xlink:href="#DejaVuSans-111"/>
      <use x="147.460938" xlink:href="#DejaVuSans-100"/>
      <use x="210.9375" xlink:href="#DejaVuSans-101"/>
      <use x="272.460938" xlink:href="#DejaVuSans-108"/>
     </g>
    </g>
    <g id="line2d_60">
     <path d="M 289.98875 34.976562 
L 309.98875 34.976562 
" style="fill:none;stroke:#1f77b4;stroke-linecap:square;stroke-width:1.5;"/>
    </g>
    <g id="line2d_61"/>
    <g id="text_15">
     <!-- GMF -->
     <defs>
      <path d="M 59.515625 10.40625 
L 59.515625 29.984375 
L 43.40625 29.984375 
L 43.40625 38.09375 
L 69.28125 38.09375 
L 69.28125 6.78125 
Q 63.578125 2.734375 56.6875 0.65625 
Q 49.8125 -1.421875 42 -1.421875 
Q 24.90625 -1.421875 15.25 8.5625 
Q 5.609375 18.5625 5.609375 36.375 
Q 5.609375 54.25 15.25 64.234375 
Q 24.90625 74.21875 42 74.21875 
Q 49.125 74.21875 55.546875 72.453125 
Q 61.96875 70.703125 67.390625 67.28125 
L 67.390625 56.78125 
Q 61.921875 61.421875 55.765625 63.765625 
Q 49.609375 66.109375 42.828125 66.109375 
Q 29.4375 66.109375 22.71875 58.640625 
Q 16.015625 51.171875 16.015625 36.375 
Q 16.015625 21.625 22.71875 14.15625 
Q 29.4375 6.6875 42.828125 6.6875 
Q 48.046875 6.6875 52.140625 7.59375 
Q 56.25 8.5 59.515625 10.40625 
z
" id="DejaVuSans-71"/>
      <path d="M 9.8125 72.90625 
L 51.703125 72.90625 
L 51.703125 64.59375 
L 19.671875 64.59375 
L 19.671875 43.109375 
L 48.578125 43.109375 
L 48.578125 34.8125 
L 19.671875 34.8125 
L 19.671875 0 
L 9.8125 0 
z
" id="DejaVuSans-70"/>
     </defs>
     <g transform="translate(317.98875 38.476562)scale(0.1 -0.1)">
      <use xlink:href="#DejaVuSans-71"/>
      <use x="77.490234" xlink:href="#DejaVuSans-77"/>
      <use x="163.769531" xlink:href="#DejaVuSans-70"/>
     </g>
    </g>
    <g id="line2d_62">
     <path d="M 289.98875 49.654687 
L 309.98875 49.654687 
" style="fill:none;stroke:#ff7f0e;stroke-linecap:square;stroke-width:1.5;"/>
    </g>
    <g id="line2d_63"/>
    <g id="text_16">
     <!-- MLP -->
     <defs>
      <path d="M 19.671875 64.796875 
L 19.671875 37.40625 
L 32.078125 37.40625 
Q 38.96875 37.40625 42.71875 40.96875 
Q 46.484375 44.53125 46.484375 51.125 
Q 46.484375 57.671875 42.71875 61.234375 
Q 38.96875 64.796875 32.078125 64.796875 
z
M 9.8125 72.90625 
L 32.078125 72.90625 
Q 44.34375 72.90625 50.609375 67.359375 
Q 56.890625 61.8125 56.890625 51.125 
Q 56.890625 40.328125 50.609375 34.8125 
Q 44.34375 29.296875 32.078125 29.296875 
L 19.671875 29.296875 
L 19.671875 0 
L 9.8125 0 
z
" id="DejaVuSans-80"/>
     </defs>
     <g transform="translate(317.98875 53.154687)scale(0.1 -0.1)">
      <use xlink:href="#DejaVuSans-77"/>
      <use x="86.279297" xlink:href="#DejaVuSans-76"/>
      <use x="141.992188" xlink:href="#DejaVuSans-80"/>
     </g>
    </g>
    <g id="line2d_64">
     <path d="M 289.98875 64.332812 
L 309.98875 64.332812 
" style="fill:none;stroke:#2ca02c;stroke-linecap:square;stroke-width:1.5;"/>
    </g>
    <g id="line2d_65"/>
    <g id="text_17">
     <!-- NN from scratch -->
     <defs>
      <path d="M 9.8125 72.90625 
L 23.09375 72.90625 
L 55.421875 11.921875 
L 55.421875 72.90625 
L 64.984375 72.90625 
L 64.984375 0 
L 51.703125 0 
L 19.390625 60.984375 
L 19.390625 0 
L 9.8125 0 
z
" id="DejaVuSans-78"/>
      <path id="DejaVuSans-32"/>
      <path d="M 37.109375 75.984375 
L 37.109375 68.5 
L 28.515625 68.5 
Q 23.6875 68.5 21.796875 66.546875 
Q 19.921875 64.59375 19.921875 59.515625 
L 19.921875 54.6875 
L 34.71875 54.6875 
L 34.71875 47.703125 
L 19.921875 47.703125 
L 19.921875 0 
L 10.890625 0 
L 10.890625 47.703125 
L 2.296875 47.703125 
L 2.296875 54.6875 
L 10.890625 54.6875 
L 10.890625 58.5 
Q 10.890625 67.625 15.140625 71.796875 
Q 19.390625 75.984375 28.609375 75.984375 
z
" id="DejaVuSans-102"/>
      <path d="M 52 44.1875 
Q 55.375 50.25 60.0625 53.125 
Q 64.75 56 71.09375 56 
Q 79.640625 56 84.28125 50.015625 
Q 88.921875 44.046875 88.921875 33.015625 
L 88.921875 0 
L 79.890625 0 
L 79.890625 32.71875 
Q 79.890625 40.578125 77.09375 44.375 
Q 74.3125 48.1875 68.609375 48.1875 
Q 61.625 48.1875 57.5625 43.546875 
Q 53.515625 38.921875 53.515625 30.90625 
L 53.515625 0 
L 44.484375 0 
L 44.484375 32.71875 
Q 44.484375 40.625 41.703125 44.40625 
Q 38.921875 48.1875 33.109375 48.1875 
Q 26.21875 48.1875 22.15625 43.53125 
Q 18.109375 38.875 18.109375 30.90625 
L 18.109375 0 
L 9.078125 0 
L 9.078125 54.6875 
L 18.109375 54.6875 
L 18.109375 46.1875 
Q 21.1875 51.21875 25.484375 53.609375 
Q 29.78125 56 35.6875 56 
Q 41.65625 56 45.828125 52.96875 
Q 50 49.953125 52 44.1875 
z
" id="DejaVuSans-109"/>
      <path d="M 48.78125 52.59375 
L 48.78125 44.1875 
Q 44.96875 46.296875 41.140625 47.34375 
Q 37.3125 48.390625 33.40625 48.390625 
Q 24.65625 48.390625 19.8125 42.84375 
Q 14.984375 37.3125 14.984375 27.296875 
Q 14.984375 17.28125 19.8125 11.734375 
Q 24.65625 6.203125 33.40625 6.203125 
Q 37.3125 6.203125 41.140625 7.25 
Q 44.96875 8.296875 48.78125 10.40625 
L 48.78125 2.09375 
Q 45.015625 0.34375 40.984375 -0.53125 
Q 36.96875 -1.421875 32.421875 -1.421875 
Q 20.0625 -1.421875 12.78125 6.34375 
Q 5.515625 14.109375 5.515625 27.296875 
Q 5.515625 40.671875 12.859375 48.328125 
Q 20.21875 56 33.015625 56 
Q 37.15625 56 41.109375 55.140625 
Q 45.0625 54.296875 48.78125 52.59375 
z
" id="DejaVuSans-99"/>
      <path d="M 54.890625 33.015625 
L 54.890625 0 
L 45.90625 0 
L 45.90625 32.71875 
Q 45.90625 40.484375 42.875 44.328125 
Q 39.84375 48.1875 33.796875 48.1875 
Q 26.515625 48.1875 22.3125 43.546875 
Q 18.109375 38.921875 18.109375 30.90625 
L 18.109375 0 
L 9.078125 0 
L 9.078125 75.984375 
L 18.109375 75.984375 
L 18.109375 46.1875 
Q 21.34375 51.125 25.703125 53.5625 
Q 30.078125 56 35.796875 56 
Q 45.21875 56 50.046875 50.171875 
Q 54.890625 44.34375 54.890625 33.015625 
z
" id="DejaVuSans-104"/>
     </defs>
     <g transform="translate(317.98875 67.832812)scale(0.1 -0.1)">
      <use xlink:href="#DejaVuSans-78"/>
      <use x="74.804688" xlink:href="#DejaVuSans-78"/>
      <use x="149.609375" xlink:href="#DejaVuSans-32"/>
      <use x="181.396484" xlink:href="#DejaVuSans-102"/>
      <use x="216.601562" xlink:href="#DejaVuSans-114"/>
      <use x="257.683594" xlink:href="#DejaVuSans-111"/>
      <use x="318.865234" xlink:href="#DejaVuSans-109"/>
      <use x="416.277344" xlink:href="#DejaVuSans-32"/>
      <use x="448.064453" xlink:href="#DejaVuSans-115"/>
      <use x="500.164062" xlink:href="#DejaVuSans-99"/>
      <use x="555.144531" xlink:href="#DejaVuSans-114"/>
      <use x="596.257812" xlink:href="#DejaVuSans-97"/>
      <use x="657.537109" xlink:href="#DejaVuSans-116"/>
      <use x="696.746094" xlink:href="#DejaVuSans-99"/>
      <use x="751.726562" xlink:href="#DejaVuSans-104"/>
     </g>
    </g>
    <g id="line2d_66">
     <path d="M 289.98875 79.010937 
L 309.98875 79.010937 
" style="fill:none;stroke:#d62728;stroke-linecap:square;stroke-width:1.5;"/>
    </g>
    <g id="line2d_67"/>
    <g id="text_18">
     <!-- NN pretrained -->
     <defs>
      <path d="M 18.109375 8.203125 
L 18.109375 -20.796875 
L 9.078125 -20.796875 
L 9.078125 54.6875 
L 18.109375 54.6875 
L 18.109375 46.390625 
Q 20.953125 51.265625 25.265625 53.625 
Q 29.59375 56 35.59375 56 
Q 45.5625 56 51.78125 48.09375 
Q 58.015625 40.1875 58.015625 27.296875 
Q 58.015625 14.40625 51.78125 6.484375 
Q 45.5625 -1.421875 35.59375 -1.421875 
Q 29.59375 -1.421875 25.265625 0.953125 
Q 20.953125 3.328125 18.109375 8.203125 
z
M 48.6875 27.296875 
Q 48.6875 37.203125 44.609375 42.84375 
Q 40.53125 48.484375 33.40625 48.484375 
Q 26.265625 48.484375 22.1875 42.84375 
Q 18.109375 37.203125 18.109375 27.296875 
Q 18.109375 17.390625 22.1875 11.75 
Q 26.265625 6.109375 33.40625 6.109375 
Q 40.53125 6.109375 44.609375 11.75 
Q 48.6875 17.390625 48.6875 27.296875 
z
" id="DejaVuSans-112"/>
     </defs>
     <g transform="translate(317.98875 82.510937)scale(0.1 -0.1)">
      <use xlink:href="#DejaVuSans-78"/>
      <use x="74.804688" xlink:href="#DejaVuSans-78"/>
      <use x="149.609375" xlink:href="#DejaVuSans-32"/>
      <use x="181.396484" xlink:href="#DejaVuSans-112"/>
      <use x="244.873047" xlink:href="#DejaVuSans-114"/>
      <use x="285.955078" xlink:href="#DejaVuSans-101"/>
      <use x="347.478516" xlink:href="#DejaVuSans-116"/>
      <use x="386.6875" xlink:href="#DejaVuSans-114"/>
      <use x="427.800781" xlink:href="#DejaVuSans-97"/>
      <use x="489.080078" xlink:href="#DejaVuSans-105"/>
      <use x="516.863281" xlink:href="#DejaVuSans-110"/>
      <use x="580.242188" xlink:href="#DejaVuSans-101"/>
      <use x="641.765625" xlink:href="#DejaVuSans-100"/>
     </g>
    </g>
   </g>
  </g>
 </g>
 <defs>
  <clipPath id="p1eb12d6b3c">
   <rect height="266.112" width="357.12" x="51.378125" y="7.2"/>
  </clipPath>
 </defs>
</svg>
