<?xml version="1.0" encoding="utf-8" standalone="no"?>
<!DOCTYPE svg PUBLIC "-//W3C//DTD SVG 1.1//EN"
  "http://www.w3.org/Graphics/SVG/1.1/DTD/svg11.dtd">
<!-- Created with matplotlib (https://matplotlib.org/) -->
<svg height="310.86825pt" version="1.1" viewBox="0 0 414.46375 310.86825" width="414.46375pt" xmlns="http://www.w3.org/2000/svg" xmlns:xlink="http://www.w3.org/1999/xlink">
 <defs>
  <style type="text/css">
*{stroke-linecap:butt;stroke-linejoin:round;}
  </style>
 </defs>
 <g id="figure_1">
  <g id="patch_1">
   <path d="M 0 310.86825 
L 414.46375 310.86825 
L 414.46375 0 
L 0 0 
z
" style="fill:#ffffff;"/>
  </g>
  <g id="axes_1">
   <g id="patch_2">
    <path d="M 50.14375 273.312 
L 407.26375 273.312 
L 407.26375 7.2 
L 50.14375 7.2 
z
" style="fill:#ffffff;"/>
   </g>
   <g id="matplotlib.axis_1">
    <g id="xtick_1">
     <g id="line2d_1">
      <defs>
       <path d="M 0 0 
L 0 3.5 
" id="mc8858319c9" style="stroke:#000000;stroke-width:0.8;"/>
      </defs>
      <g>
       <use style="stroke:#000000;stroke-width:0.8;" x="66.376477" xlink:href="#mc8858319c9" y="273.312"/>
      </g>
     </g>
     <g id="text_1">
      <!-- 0 -->
      <defs>
       <path d="M 31.78125 66.40625 
Q 24.171875 66.40625 20.328125 58.90625 
Q 16.5 51.421875 16.5 36.375 
Q 16.5 21.390625 20.328125 13.890625 
Q 24.171875 6.390625 31.78125 6.390625 
Q 39.453125 6.390625 43.28125 13.890625 
Q 47.125 21.390625 47.125 36.375 
Q 47.125 51.421875 43.28125 58.90625 
Q 39.453125 66.40625 31.78125 66.40625 
z
M 31.78125 74.21875 
Q 44.046875 74.21875 50.515625 64.515625 
Q 56.984375 54.828125 56.984375 36.375 
Q 56.984375 17.96875 50.515625 8.265625 
Q 44.046875 -1.421875 31.78125 -1.421875 
Q 19.53125 -1.421875 13.0625 8.265625 
Q 6.59375 17.96875 6.59375 36.375 
Q 6.59375 54.828125 13.0625 64.515625 
Q 19.53125 74.21875 31.78125 74.21875 
z
" id="DejaVuSans-48"/>
      </defs>
      <g transform="translate(63.195227 287.910437)scale(0.1 -0.1)">
       <use xlink:href="#DejaVuSans-48"/>
      </g>
     </g>
    </g>
    <g id="xtick_2">
     <g id="line2d_2">
      <g>
       <use style="stroke:#000000;stroke-width:0.8;" x="120.575901" xlink:href="#mc8858319c9" y="273.312"/>
      </g>
     </g>
     <g id="text_2">
      <!-- 100 -->
      <defs>
       <path d="M 12.40625 8.296875 
L 28.515625 8.296875 
L 28.515625 63.921875 
L 10.984375 60.40625 
L 10.984375 69.390625 
L 28.421875 72.90625 
L 38.28125 72.90625 
L 38.28125 8.296875 
L 54.390625 8.296875 
L 54.390625 0 
L 12.40625 0 
z
" id="DejaVuSans-49"/>
      </defs>
      <g transform="translate(111.032151 287.910437)scale(0.1 -0.1)">
       <use xlink:href="#DejaVuSans-49"/>
       <use x="63.623047" xlink:href="#DejaVuSans-48"/>
       <use x="127.246094" xlink:href="#DejaVuSans-48"/>
      </g>
     </g>
    </g>
    <g id="xtick_3">
     <g id="line2d_3">
      <g>
       <use style="stroke:#000000;stroke-width:0.8;" x="174.775324" xlink:href="#mc8858319c9" y="273.312"/>
      </g>
     </g>
     <g id="text_3">
      <!-- 200 -->
      <defs>
       <path d="M 19.1875 8.296875 
L 53.609375 8.296875 
L 53.609375 0 
L 7.328125 0 
L 7.328125 8.296875 
Q 12.9375 14.109375 22.625 23.890625 
Q 32.328125 33.6875 34.8125 36.53125 
Q 39.546875 41.84375 41.421875 45.53125 
Q 43.3125 49.21875 43.3125 52.78125 
Q 43.3125 58.59375 39.234375 62.25 
Q 35.15625 65.921875 28.609375 65.921875 
Q 23.96875 65.921875 18.8125 64.3125 
Q 13.671875 62.703125 7.8125 59.421875 
L 7.8125 69.390625 
Q 13.765625 71.78125 18.9375 73 
Q 24.125 74.21875 28.421875 74.21875 
Q 39.75 74.21875 46.484375 68.546875 
Q 53.21875 62.890625 53.21875 53.421875 
Q 53.21875 48.921875 51.53125 44.890625 
Q 49.859375 40.875 45.40625 35.40625 
Q 44.1875 33.984375 37.640625 27.21875 
Q 31.109375 20.453125 19.1875 8.296875 
z
" id="DejaVuSans-50"/>
      </defs>
      <g transform="translate(165.231574 287.910437)scale(0.1 -0.1)">
       <use xlink:href="#DejaVuSans-50"/>
       <use x="63.623047" xlink:href="#DejaVuSans-48"/>
       <use x="127.246094" xlink:href="#DejaVuSans-48"/>
      </g>
     </g>
    </g>
    <g id="xtick_4">
     <g id="line2d_4">
      <g>
       <use style="stroke:#000000;stroke-width:0.8;" x="228.974747" xlink:href="#mc8858319c9" y="273.312"/>
      </g>
     </g>
     <g id="text_4">
      <!-- 300 -->
      <defs>
       <path d="M 40.578125 39.3125 
Q 47.65625 37.796875 51.625 33 
Q 55.609375 28.21875 55.609375 21.1875 
Q 55.609375 10.40625 48.1875 4.484375 
Q 40.765625 -1.421875 27.09375 -1.421875 
Q 22.515625 -1.421875 17.65625 -0.515625 
Q 12.796875 0.390625 7.625 2.203125 
L 7.625 11.71875 
Q 11.71875 9.328125 16.59375 8.109375 
Q 21.484375 6.890625 26.8125 6.890625 
Q 36.078125 6.890625 40.9375 10.546875 
Q 45.796875 14.203125 45.796875 21.1875 
Q 45.796875 27.640625 41.28125 31.265625 
Q 36.765625 34.90625 28.71875 34.90625 
L 20.21875 34.90625 
L 20.21875 43.015625 
L 29.109375 43.015625 
Q 36.375 43.015625 40.234375 45.921875 
Q 44.09375 48.828125 44.09375 54.296875 
Q 44.09375 59.90625 40.109375 62.90625 
Q 36.140625 65.921875 28.71875 65.921875 
Q 24.65625 65.921875 20.015625 65.03125 
Q 15.375 64.15625 9.8125 62.3125 
L 9.8125 71.09375 
Q 15.4375 72.65625 20.34375 73.4375 
Q 25.25 74.21875 29.59375 74.21875 
Q 40.828125 74.21875 47.359375 69.109375 
Q 53.90625 64.015625 53.90625 55.328125 
Q 53.90625 49.265625 50.4375 45.09375 
Q 46.96875 40.921875 40.578125 39.3125 
z
" id="DejaVuSans-51"/>
      </defs>
      <g transform="translate(219.430997 287.910437)scale(0.1 -0.1)">
       <use xlink:href="#DejaVuSans-51"/>
       <use x="63.623047" xlink:href="#DejaVuSans-48"/>
       <use x="127.246094" xlink:href="#DejaVuSans-48"/>
      </g>
     </g>
    </g>
    <g id="xtick_5">
     <g id="line2d_5">
      <g>
       <use style="stroke:#000000;stroke-width:0.8;" x="283.17417" xlink:href="#mc8858319c9" y="273.312"/>
      </g>
     </g>
     <g id="text_5">
      <!-- 400 -->
      <defs>
       <path d="M 37.796875 64.3125 
L 12.890625 25.390625 
L 37.796875 25.390625 
z
M 35.203125 72.90625 
L 47.609375 72.90625 
L 47.609375 25.390625 
L 58.015625 25.390625 
L 58.015625 17.1875 
L 47.609375 17.1875 
L 47.609375 0 
L 37.796875 0 
L 37.796875 17.1875 
L 4.890625 17.1875 
L 4.890625 26.703125 
z
" id="DejaVuSans-52"/>
      </defs>
      <g transform="translate(273.63042 287.910437)scale(0.1 -0.1)">
       <use xlink:href="#DejaVuSans-52"/>
       <use x="63.623047" xlink:href="#DejaVuSans-48"/>
       <use x="127.246094" xlink:href="#DejaVuSans-48"/>
      </g>
     </g>
    </g>
    <g id="xtick_6">
     <g id="line2d_6">
      <g>
       <use style="stroke:#000000;stroke-width:0.8;" x="337.373594" xlink:href="#mc8858319c9" y="273.312"/>
      </g>
     </g>
     <g id="text_6">
      <!-- 500 -->
      <defs>
       <path d="M 10.796875 72.90625 
L 49.515625 72.90625 
L 49.515625 64.59375 
L 19.828125 64.59375 
L 19.828125 46.734375 
Q 21.96875 47.46875 24.109375 47.828125 
Q 26.265625 48.1875 28.421875 48.1875 
Q 40.625 48.1875 47.75 41.5 
Q 54.890625 34.8125 54.890625 23.390625 
Q 54.890625 11.625 47.5625 5.09375 
Q 40.234375 -1.421875 26.90625 -1.421875 
Q 22.3125 -1.421875 17.546875 -0.640625 
Q 12.796875 0.140625 7.71875 1.703125 
L 7.71875 11.625 
Q 12.109375 9.234375 16.796875 8.0625 
Q 21.484375 6.890625 26.703125 6.890625 
Q 35.15625 6.890625 40.078125 11.328125 
Q 45.015625 15.765625 45.015625 23.390625 
Q 45.015625 31 40.078125 35.4375 
Q 35.15625 39.890625 26.703125 39.890625 
Q 22.75 39.890625 18.8125 39.015625 
Q 14.890625 38.140625 10.796875 36.28125 
z
" id="DejaVuSans-53"/>
      </defs>
      <g transform="translate(327.829844 287.910437)scale(0.1 -0.1)">
       <use xlink:href="#DejaVuSans-53"/>
       <use x="63.623047" xlink:href="#DejaVuSans-48"/>
       <use x="127.246094" xlink:href="#DejaVuSans-48"/>
      </g>
     </g>
    </g>
    <g id="xtick_7">
     <g id="line2d_7">
      <g>
       <use style="stroke:#000000;stroke-width:0.8;" x="391.573017" xlink:href="#mc8858319c9" y="273.312"/>
      </g>
     </g>
     <g id="text_7">
      <!-- 600 -->
      <defs>
       <path d="M 33.015625 40.375 
Q 26.375 40.375 22.484375 35.828125 
Q 18.609375 31.296875 18.609375 23.390625 
Q 18.609375 15.53125 22.484375 10.953125 
Q 26.375 6.390625 33.015625 6.390625 
Q 39.65625 6.390625 43.53125 10.953125 
Q 47.40625 15.53125 47.40625 23.390625 
Q 47.40625 31.296875 43.53125 35.828125 
Q 39.65625 40.375 33.015625 40.375 
z
M 52.59375 71.296875 
L 52.59375 62.3125 
Q 48.875 64.0625 45.09375 64.984375 
Q 41.3125 65.921875 37.59375 65.921875 
Q 27.828125 65.921875 22.671875 59.328125 
Q 17.53125 52.734375 16.796875 39.40625 
Q 19.671875 43.65625 24.015625 45.921875 
Q 28.375 48.1875 33.59375 48.1875 
Q 44.578125 48.1875 50.953125 41.515625 
Q 57.328125 34.859375 57.328125 23.390625 
Q 57.328125 12.15625 50.6875 5.359375 
Q 44.046875 -1.421875 33.015625 -1.421875 
Q 20.359375 -1.421875 13.671875 8.265625 
Q 6.984375 17.96875 6.984375 36.375 
Q 6.984375 53.65625 15.1875 63.9375 
Q 23.390625 74.21875 37.203125 74.21875 
Q 40.921875 74.21875 44.703125 73.484375 
Q 48.484375 72.75 52.59375 71.296875 
z
" id="DejaVuSans-54"/>
      </defs>
      <g transform="translate(382.029267 287.910437)scale(0.1 -0.1)">
       <use xlink:href="#DejaVuSans-54"/>
       <use x="63.623047" xlink:href="#DejaVuSans-48"/>
       <use x="127.246094" xlink:href="#DejaVuSans-48"/>
      </g>
     </g>
    </g>
    <g id="text_8">
     <!-- Iteration -->
     <defs>
      <path d="M 9.8125 72.90625 
L 19.671875 72.90625 
L 19.671875 0 
L 9.8125 0 
z
" id="DejaVuSans-73"/>
      <path d="M 18.3125 70.21875 
L 18.3125 54.6875 
L 36.8125 54.6875 
L 36.8125 47.703125 
L 18.3125 47.703125 
L 18.3125 18.015625 
Q 18.3125 11.328125 20.140625 9.421875 
Q 21.96875 7.515625 27.59375 7.515625 
L 36.8125 7.515625 
L 36.8125 0 
L 27.59375 0 
Q 17.1875 0 13.234375 3.875 
Q 9.28125 7.765625 9.28125 18.015625 
L 9.28125 47.703125 
L 2.6875 47.703125 
L 2.6875 54.6875 
L 9.28125 54.6875 
L 9.28125 70.21875 
z
" id="DejaVuSans-116"/>
      <path d="M 56.203125 29.59375 
L 56.203125 25.203125 
L 14.890625 25.203125 
Q 15.484375 15.921875 20.484375 11.0625 
Q 25.484375 6.203125 34.421875 6.203125 
Q 39.59375 6.203125 44.453125 7.46875 
Q 49.3125 8.734375 54.109375 11.28125 
L 54.109375 2.78125 
Q 49.265625 0.734375 44.1875 -0.34375 
Q 39.109375 -1.421875 33.890625 -1.421875 
Q 20.796875 -1.421875 13.15625 6.1875 
Q 5.515625 13.8125 5.515625 26.8125 
Q 5.515625 40.234375 12.765625 48.109375 
Q 20.015625 56 32.328125 56 
Q 43.359375 56 49.78125 48.890625 
Q 56.203125 41.796875 56.203125 29.59375 
z
M 47.21875 32.234375 
Q 47.125 39.59375 43.09375 43.984375 
Q 39.0625 48.390625 32.421875 48.390625 
Q 24.90625 48.390625 20.390625 44.140625 
Q 15.875 39.890625 15.1875 32.171875 
z
" id="DejaVuSans-101"/>
      <path d="M 41.109375 46.296875 
Q 39.59375 47.171875 37.8125 47.578125 
Q 36.03125 48 33.890625 48 
Q 26.265625 48 22.1875 43.046875 
Q 18.109375 38.09375 18.109375 28.8125 
L 18.109375 0 
L 9.078125 0 
L 9.078125 54.6875 
L 18.109375 54.6875 
L 18.109375 46.1875 
Q 20.953125 51.171875 25.484375 53.578125 
Q 30.03125 56 36.53125 56 
Q 37.453125 56 38.578125 55.875 
Q 39.703125 55.765625 41.0625 55.515625 
z
" id="DejaVuSans-114"/>
      <path d="M 34.28125 27.484375 
Q 23.390625 27.484375 19.1875 25 
Q 14.984375 22.515625 14.984375 16.5 
Q 14.984375 11.71875 18.140625 8.90625 
Q 21.296875 6.109375 26.703125 6.109375 
Q 34.1875 6.109375 38.703125 11.40625 
Q 43.21875 16.703125 43.21875 25.484375 
L 43.21875 27.484375 
z
M 52.203125 31.203125 
L 52.203125 0 
L 43.21875 0 
L 43.21875 8.296875 
Q 40.140625 3.328125 35.546875 0.953125 
Q 30.953125 -1.421875 24.3125 -1.421875 
Q 15.921875 -1.421875 10.953125 3.296875 
Q 6 8.015625 6 15.921875 
Q 6 25.140625 12.171875 29.828125 
Q 18.359375 34.515625 30.609375 34.515625 
L 43.21875 34.515625 
L 43.21875 35.40625 
Q 43.21875 41.609375 39.140625 45 
Q 35.0625 48.390625 27.6875 48.390625 
Q 23 48.390625 18.546875 47.265625 
Q 14.109375 46.140625 10.015625 43.890625 
L 10.015625 52.203125 
Q 14.9375 54.109375 19.578125 55.046875 
Q 24.21875 56 28.609375 56 
Q 40.484375 56 46.34375 49.84375 
Q 52.203125 43.703125 52.203125 31.203125 
z
" id="DejaVuSans-97"/>
      <path d="M 9.421875 54.6875 
L 18.40625 54.6875 
L 18.40625 0 
L 9.421875 0 
z
M 9.421875 75.984375 
L 18.40625 75.984375 
L 18.40625 64.59375 
L 9.421875 64.59375 
z
" id="DejaVuSans-105"/>
      <path d="M 30.609375 48.390625 
Q 23.390625 48.390625 19.1875 42.75 
Q 14.984375 37.109375 14.984375 27.296875 
Q 14.984375 17.484375 19.15625 11.84375 
Q 23.34375 6.203125 30.609375 6.203125 
Q 37.796875 6.203125 41.984375 11.859375 
Q 46.1875 17.53125 46.1875 27.296875 
Q 46.1875 37.015625 41.984375 42.703125 
Q 37.796875 48.390625 30.609375 48.390625 
z
M 30.609375 56 
Q 42.328125 56 49.015625 48.375 
Q 55.71875 40.765625 55.71875 27.296875 
Q 55.71875 13.875 49.015625 6.21875 
Q 42.328125 -1.421875 30.609375 -1.421875 
Q 18.84375 -1.421875 12.171875 6.21875 
Q 5.515625 13.875 5.515625 27.296875 
Q 5.515625 40.765625 12.171875 48.375 
Q 18.84375 56 30.609375 56 
z
" id="DejaVuSans-111"/>
      <path d="M 54.890625 33.015625 
L 54.890625 0 
L 45.90625 0 
L 45.90625 32.71875 
Q 45.90625 40.484375 42.875 44.328125 
Q 39.84375 48.1875 33.796875 48.1875 
Q 26.515625 48.1875 22.3125 43.546875 
Q 18.109375 38.921875 18.109375 30.90625 
L 18.109375 0 
L 9.078125 0 
L 9.078125 54.6875 
L 18.109375 54.6875 
L 18.109375 46.1875 
Q 21.34375 51.125 25.703125 53.5625 
Q 30.078125 56 35.796875 56 
Q 45.21875 56 50.046875 50.171875 
Q 54.890625 44.34375 54.890625 33.015625 
z
" id="DejaVuSans-110"/>
     </defs>
     <g transform="translate(207.495156 301.588562)scale(0.1 -0.1)">
      <use xlink:href="#DejaVuSans-73"/>
      <use x="29.492188" xlink:href="#DejaVuSans-116"/>
      <use x="68.701172" xlink:href="#DejaVuSans-101"/>
      <use x="130.224609" xlink:href="#DejaVuSans-114"/>
      <use x="171.337891" xlink:href="#DejaVuSans-97"/>
      <use x="232.617188" xlink:href="#DejaVuSans-116"/>
      <use x="271.826172" xlink:href="#DejaVuSans-105"/>
      <use x="299.609375" xlink:href="#DejaVuSans-111"/>
      <use x="360.791016" xlink:href="#DejaVuSans-110"/>
     </g>
    </g>
   </g>
   <g id="matplotlib.axis_2">
    <g id="ytick_1">
     <g id="line2d_8">
      <defs>
       <path d="M 0 0 
L -3.5 0 
" id="me6f35b1311" style="stroke:#000000;stroke-width:0.8;"/>
      </defs>
      <g>
       <use style="stroke:#000000;stroke-width:0.8;" x="50.14375" xlink:href="#me6f35b1311" y="264.089422"/>
      </g>
     </g>
     <g id="text_9">
      <!-- 0.00 -->
      <defs>
       <path d="M 10.6875 12.40625 
L 21 12.40625 
L 21 0 
L 10.6875 0 
z
" id="DejaVuSans-46"/>
      </defs>
      <g transform="translate(20.878125 267.88864)scale(0.1 -0.1)">
       <use xlink:href="#DejaVuSans-48"/>
       <use x="63.623047" xlink:href="#DejaVuSans-46"/>
       <use x="95.410156" xlink:href="#DejaVuSans-48"/>
       <use x="159.033203" xlink:href="#DejaVuSans-48"/>
      </g>
     </g>
    </g>
    <g id="ytick_2">
     <g id="line2d_9">
      <g>
       <use style="stroke:#000000;stroke-width:0.8;" x="50.14375" xlink:href="#me6f35b1311" y="233.390472"/>
      </g>
     </g>
     <g id="text_10">
      <!-- 0.05 -->
      <g transform="translate(20.878125 237.189691)scale(0.1 -0.1)">
       <use xlink:href="#DejaVuSans-48"/>
       <use x="63.623047" xlink:href="#DejaVuSans-46"/>
       <use x="95.410156" xlink:href="#DejaVuSans-48"/>
       <use x="159.033203" xlink:href="#DejaVuSans-53"/>
      </g>
     </g>
    </g>
    <g id="ytick_3">
     <g id="line2d_10">
      <g>
       <use style="stroke:#000000;stroke-width:0.8;" x="50.14375" xlink:href="#me6f35b1311" y="202.691523"/>
      </g>
     </g>
     <g id="text_11">
      <!-- 0.10 -->
      <g transform="translate(20.878125 206.490742)scale(0.1 -0.1)">
       <use xlink:href="#DejaVuSans-48"/>
       <use x="63.623047" xlink:href="#DejaVuSans-46"/>
       <use x="95.410156" xlink:href="#DejaVuSans-49"/>
       <use x="159.033203" xlink:href="#DejaVuSans-48"/>
      </g>
     </g>
    </g>
    <g id="ytick_4">
     <g id="line2d_11">
      <g>
       <use style="stroke:#000000;stroke-width:0.8;" x="50.14375" xlink:href="#me6f35b1311" y="171.992574"/>
      </g>
     </g>
     <g id="text_12">
      <!-- 0.15 -->
      <g transform="translate(20.878125 175.791793)scale(0.1 -0.1)">
       <use xlink:href="#DejaVuSans-48"/>
       <use x="63.623047" xlink:href="#DejaVuSans-46"/>
       <use x="95.410156" xlink:href="#DejaVuSans-49"/>
       <use x="159.033203" xlink:href="#DejaVuSans-53"/>
      </g>
     </g>
    </g>
    <g id="ytick_5">
     <g id="line2d_12">
      <g>
       <use style="stroke:#000000;stroke-width:0.8;" x="50.14375" xlink:href="#me6f35b1311" y="141.293624"/>
      </g>
     </g>
     <g id="text_13">
      <!-- 0.20 -->
      <g transform="translate(20.878125 145.092843)scale(0.1 -0.1)">
       <use xlink:href="#DejaVuSans-48"/>
       <use x="63.623047" xlink:href="#DejaVuSans-46"/>
       <use x="95.410156" xlink:href="#DejaVuSans-50"/>
       <use x="159.033203" xlink:href="#DejaVuSans-48"/>
      </g>
     </g>
    </g>
    <g id="ytick_6">
     <g id="line2d_13">
      <g>
       <use style="stroke:#000000;stroke-width:0.8;" x="50.14375" xlink:href="#me6f35b1311" y="110.594675"/>
      </g>
     </g>
     <g id="text_14">
      <!-- 0.25 -->
      <g transform="translate(20.878125 114.393894)scale(0.1 -0.1)">
       <use xlink:href="#DejaVuSans-48"/>
       <use x="63.623047" xlink:href="#DejaVuSans-46"/>
       <use x="95.410156" xlink:href="#DejaVuSans-50"/>
       <use x="159.033203" xlink:href="#DejaVuSans-53"/>
      </g>
     </g>
    </g>
    <g id="ytick_7">
     <g id="line2d_14">
      <g>
       <use style="stroke:#000000;stroke-width:0.8;" x="50.14375" xlink:href="#me6f35b1311" y="79.895726"/>
      </g>
     </g>
     <g id="text_15">
      <!-- 0.30 -->
      <g transform="translate(20.878125 83.694945)scale(0.1 -0.1)">
       <use xlink:href="#DejaVuSans-48"/>
       <use x="63.623047" xlink:href="#DejaVuSans-46"/>
       <use x="95.410156" xlink:href="#DejaVuSans-51"/>
       <use x="159.033203" xlink:href="#DejaVuSans-48"/>
      </g>
     </g>
    </g>
    <g id="ytick_8">
     <g id="line2d_15">
      <g>
       <use style="stroke:#000000;stroke-width:0.8;" x="50.14375" xlink:href="#me6f35b1311" y="49.196777"/>
      </g>
     </g>
     <g id="text_16">
      <!-- 0.35 -->
      <g transform="translate(20.878125 52.995995)scale(0.1 -0.1)">
       <use xlink:href="#DejaVuSans-48"/>
       <use x="63.623047" xlink:href="#DejaVuSans-46"/>
       <use x="95.410156" xlink:href="#DejaVuSans-51"/>
       <use x="159.033203" xlink:href="#DejaVuSans-53"/>
      </g>
     </g>
    </g>
    <g id="ytick_9">
     <g id="line2d_16">
      <g>
       <use style="stroke:#000000;stroke-width:0.8;" x="50.14375" xlink:href="#me6f35b1311" y="18.497827"/>
      </g>
     </g>
     <g id="text_17">
      <!-- 0.40 -->
      <g transform="translate(20.878125 22.297046)scale(0.1 -0.1)">
       <use xlink:href="#DejaVuSans-48"/>
       <use x="63.623047" xlink:href="#DejaVuSans-46"/>
       <use x="95.410156" xlink:href="#DejaVuSans-52"/>
       <use x="159.033203" xlink:href="#DejaVuSans-48"/>
      </g>
     </g>
    </g>
    <g id="text_18">
     <!-- Recall@M -->
     <defs>
      <path d="M 44.390625 34.1875 
Q 47.5625 33.109375 50.5625 29.59375 
Q 53.5625 26.078125 56.59375 19.921875 
L 66.609375 0 
L 56 0 
L 46.6875 18.703125 
Q 43.0625 26.03125 39.671875 28.421875 
Q 36.28125 30.8125 30.421875 30.8125 
L 19.671875 30.8125 
L 19.671875 0 
L 9.8125 0 
L 9.8125 72.90625 
L 32.078125 72.90625 
Q 44.578125 72.90625 50.734375 67.671875 
Q 56.890625 62.453125 56.890625 51.90625 
Q 56.890625 45.015625 53.6875 40.46875 
Q 50.484375 35.9375 44.390625 34.1875 
z
M 19.671875 64.796875 
L 19.671875 38.921875 
L 32.078125 38.921875 
Q 39.203125 38.921875 42.84375 42.21875 
Q 46.484375 45.515625 46.484375 51.90625 
Q 46.484375 58.296875 42.84375 61.546875 
Q 39.203125 64.796875 32.078125 64.796875 
z
" id="DejaVuSans-82"/>
      <path d="M 48.78125 52.59375 
L 48.78125 44.1875 
Q 44.96875 46.296875 41.140625 47.34375 
Q 37.3125 48.390625 33.40625 48.390625 
Q 24.65625 48.390625 19.8125 42.84375 
Q 14.984375 37.3125 14.984375 27.296875 
Q 14.984375 17.28125 19.8125 11.734375 
Q 24.65625 6.203125 33.40625 6.203125 
Q 37.3125 6.203125 41.140625 7.25 
Q 44.96875 8.296875 48.78125 10.40625 
L 48.78125 2.09375 
Q 45.015625 0.34375 40.984375 -0.53125 
Q 36.96875 -1.421875 32.421875 -1.421875 
Q 20.0625 -1.421875 12.78125 6.34375 
Q 5.515625 14.109375 5.515625 27.296875 
Q 5.515625 40.671875 12.859375 48.328125 
Q 20.21875 56 33.015625 56 
Q 37.15625 56 41.109375 55.140625 
Q 45.0625 54.296875 48.78125 52.59375 
z
" id="DejaVuSans-99"/>
      <path d="M 9.421875 75.984375 
L 18.40625 75.984375 
L 18.40625 0 
L 9.421875 0 
z
" id="DejaVuSans-108"/>
      <path d="M 37.203125 26.21875 
Q 37.203125 19.234375 40.671875 15.25 
Q 44.140625 11.28125 50.203125 11.28125 
Q 56.203125 11.28125 59.640625 15.28125 
Q 63.09375 19.28125 63.09375 26.21875 
Q 63.09375 33.0625 59.578125 37.078125 
Q 56.0625 41.109375 50.09375 41.109375 
Q 44.1875 41.109375 40.6875 37.109375 
Q 37.203125 33.109375 37.203125 26.21875 
z
M 63.8125 11.625 
Q 60.890625 7.859375 57.109375 6.078125 
Q 53.328125 4.296875 48.296875 4.296875 
Q 39.890625 4.296875 34.640625 10.375 
Q 29.390625 16.453125 29.390625 26.21875 
Q 29.390625 35.984375 34.65625 42.078125 
Q 39.9375 48.1875 48.296875 48.1875 
Q 53.328125 48.1875 57.125 46.359375 
Q 60.9375 44.53125 63.8125 40.828125 
L 63.8125 47.21875 
L 70.796875 47.21875 
L 70.796875 11.28125 
Q 77.9375 12.359375 81.953125 17.796875 
Q 85.984375 23.25 85.984375 31.890625 
Q 85.984375 37.109375 84.4375 41.703125 
Q 82.90625 46.296875 79.78125 50.203125 
Q 74.703125 56.59375 67.40625 59.984375 
Q 60.109375 63.375 51.515625 63.375 
Q 45.515625 63.375 39.984375 61.78125 
Q 34.46875 60.203125 29.78125 57.078125 
Q 22.125 52.09375 17.796875 44.015625 
Q 13.484375 35.9375 13.484375 26.515625 
Q 13.484375 18.75 16.28125 11.953125 
Q 19.09375 5.171875 24.421875 0 
Q 29.546875 -5.078125 36.28125 -7.734375 
Q 43.015625 -10.40625 50.6875 -10.40625 
Q 56.984375 -10.40625 63.0625 -8.28125 
Q 69.140625 -6.15625 74.21875 -2.203125 
L 78.609375 -7.625 
Q 72.515625 -12.359375 65.3125 -14.875 
Q 58.109375 -17.390625 50.6875 -17.390625 
Q 41.65625 -17.390625 33.640625 -14.1875 
Q 25.640625 -10.984375 19.390625 -4.890625 
Q 13.140625 1.21875 9.859375 9.25 
Q 6.59375 17.28125 6.59375 26.515625 
Q 6.59375 35.40625 9.90625 43.453125 
Q 13.234375 51.515625 19.390625 57.625 
Q 25.6875 63.8125 33.9375 67.109375 
Q 42.1875 70.40625 51.421875 70.40625 
Q 61.765625 70.40625 70.625 66.15625 
Q 79.5 61.921875 85.5 54.109375 
Q 89.15625 49.3125 91.078125 43.703125 
Q 93.015625 38.09375 93.015625 32.078125 
Q 93.015625 19.234375 85.25 11.8125 
Q 77.484375 4.390625 63.8125 4.109375 
z
" id="DejaVuSans-64"/>
      <path d="M 9.8125 72.90625 
L 24.515625 72.90625 
L 43.109375 23.296875 
L 61.8125 72.90625 
L 76.515625 72.90625 
L 76.515625 0 
L 66.890625 0 
L 66.890625 64.015625 
L 48.09375 14.015625 
L 38.1875 14.015625 
L 19.390625 64.015625 
L 19.390625 0 
L 9.8125 0 
z
" id="DejaVuSans-77"/>
     </defs>
     <g transform="translate(14.798438 164.709125)rotate(-90)scale(0.1 -0.1)">
      <use xlink:href="#DejaVuSans-82"/>
      <use x="69.419922" xlink:href="#DejaVuSans-101"/>
      <use x="130.943359" xlink:href="#DejaVuSans-99"/>
      <use x="185.923828" xlink:href="#DejaVuSans-97"/>
      <use x="247.203125" xlink:href="#DejaVuSans-108"/>
      <use x="274.986328" xlink:href="#DejaVuSans-108"/>
      <use x="302.769531" xlink:href="#DejaVuSans-64"/>
      <use x="402.769531" xlink:href="#DejaVuSans-77"/>
     </g>
    </g>
   </g>
   <g id="line2d_17">
    <path clip-path="url(#pf8a98a3f9d)" d="M 66.376477 261.142323 
L 66.918472 261.216 
L 67.460466 260.866032 
L 68.544454 259.527558 
L 69.086448 258.477654 
L 69.628443 256.654136 
L 70.712431 251.257261 
L 71.79642 244.521911 
L 73.422402 237.086626 
L 73.964397 236.313012 
L 74.506391 234.63071 
L 75.048385 233.648344 
L 75.590379 231.757288 
L 76.132373 231.616073 
L 76.674368 229.36891 
L 77.216362 227.827823 
L 78.30035 225.721875 
L 79.384339 220.533752 
L 80.468327 214.504479 
L 81.010322 212.680961 
L 82.09431 206.154365 
L 83.178298 201.31621 
L 83.720293 198.160358 
L 84.262287 196.478056 
L 84.804281 193.954602 
L 85.346275 190.51632 
L 85.88827 188.410372 
L 87.514252 181.048764 
L 88.056247 178.592848 
L 88.598241 176.978083 
L 89.140235 174.945813 
L 89.682229 173.404725 
L 90.224224 172.281144 
L 91.308212 168.634109 
L 91.850206 166.036978 
L 92.934195 161.972437 
L 93.476189 160.916393 
L 94.018183 159.442843 
L 95.644166 153.831075 
L 96.18616 152.498741 
L 96.728154 152.498741 
L 97.812143 148.784168 
L 98.354137 149.275351 
L 98.896131 145.695854 
L 99.438125 145.560778 
L 99.98012 144.087229 
L 100.522114 143.104862 
L 101.064108 142.613679 
L 101.606102 141.14013 
L 102.148097 140.716484 
L 103.232085 137.984278 
L 103.774079 139.807795 
L 104.316074 136.928234 
L 104.858068 136.719481 
L 105.400062 135.595899 
L 105.942056 134.828426 
L 106.484051 134.545995 
L 107.026045 133.354876 
L 107.568039 131.598896 
L 108.110033 131.740111 
L 108.652027 131.390143 
L 109.194022 130.690207 
L 109.736016 131.740111 
L 110.27801 129.216658 
L 110.820004 128.234291 
L 111.361999 128.443044 
L 111.903993 128.375507 
L 112.445987 127.39314 
L 112.987981 127.184387 
L 113.529976 126.834419 
L 114.07197 125.495945 
L 114.613964 126.410774 
L 115.155958 124.304826 
L 115.697952 124.304826 
L 116.239947 123.60489 
L 116.781941 123.537352 
L 118.949918 121.84891 
L 119.491912 121.640157 
L 120.033906 122.272556 
L 120.575901 122.13134 
L 121.117895 120.590253 
L 121.659889 121.84891 
L 122.201883 121.357727 
L 122.743877 119.675424 
L 123.285872 120.09907 
L 123.827866 120.307823 
L 124.36986 119.957855 
L 124.911854 119.049166 
L 125.453849 118.416767 
L 125.995843 119.466672 
L 126.537837 118.201875 
L 127.079831 118.275552 
L 127.621826 117.293186 
L 128.705814 116.802003 
L 129.247808 116.519572 
L 129.789803 117.225648 
L 130.331797 116.519572 
L 130.873791 115.1197 
L 131.415785 115.610884 
L 131.957779 116.86954 
L 132.499774 114.696055 
L 133.041768 113.222505 
L 133.583762 114.83727 
L 134.125756 114.55484 
L 134.667751 115.469668 
L 135.209745 111.963848 
L 135.751739 114.769732 
L 136.835728 113.36372 
L 137.377722 114.910947 
L 137.919716 112.381354 
L 138.46171 115.537206 
L 139.003704 113.854904 
L 139.545699 113.36372 
L 140.087693 113.572473 
L 140.629687 110.490299 
L 141.713676 114.063656 
L 142.25567 112.805 
L 142.797664 114.628517 
L 143.339658 111.822633 
L 143.881653 112.381354 
L 144.423647 110.840267 
L 144.965641 112.105063 
L 145.507635 112.455032 
L 146.049629 110.631514 
L 146.591624 110.840267 
L 147.133618 110.840267 
L 147.675612 110.631514 
L 148.217606 111.748956 
L 148.759601 109.507932 
L 149.301595 111.963848 
L 149.843589 109.8579 
L 150.385583 111.890171 
L 150.927578 109.716685 
L 151.469572 110.140331 
L 152.011566 109.649148 
L 152.55356 110.557836 
L 153.095555 110.416621 
L 153.637549 109.649148 
L 154.179543 110.631514 
L 154.721537 110.207868 
L 155.263531 109.29918 
L 155.805526 111.263912 
L 156.34752 109.790363 
L 156.889514 107.893168 
L 157.431508 109.157964 
L 157.973503 107.82563 
L 158.515497 107.966845 
L 159.057491 108.807996 
L 159.599485 108.316813 
L 160.14148 109.925438 
L 160.683474 107.751952 
L 161.225468 108.734319 
L 161.767462 109.366717 
L 162.309456 109.016749 
L 162.851451 109.157964 
L 163.393445 108.949212 
L 163.935439 108.384351 
L 164.477433 106.910801 
L 165.019428 108.175598 
L 165.561422 108.034383 
L 166.103416 107.401984 
L 166.64541 106.143328 
L 167.187405 107.475662 
L 167.729399 106.634511 
L 168.271393 109.084287 
L 168.813387 106.493296 
L 169.355382 106.702048 
L 170.43937 108.458028 
L 170.981364 109.016749 
L 171.523358 109.016749 
L 172.065353 106.560833 
L 172.607347 108.316813 
L 173.149341 108.525566 
L 173.691335 107.401984 
L 174.23333 106.910801 
L 174.775324 107.334447 
L 175.317318 107.125694 
L 175.859312 107.966845 
L 176.401307 107.334447 
L 176.943301 107.475662 
L 177.485295 107.475662 
L 178.027289 107.260769 
L 178.569283 106.419618 
L 179.111278 106.769586 
L 179.653272 106.843264 
L 180.73726 106.35208 
L 181.279255 106.560833 
L 181.821249 105.228499 
L 182.363243 107.401984 
L 182.905237 108.807996 
L 183.447232 103.754949 
L 183.989226 105.860897 
L 184.53122 106.769586 
L 185.073214 106.634511 
L 185.615208 105.928435 
L 186.157203 106.35208 
L 186.699197 105.302176 
L 187.241191 105.719682 
L 187.783185 105.928435 
L 188.32518 104.596101 
L 188.867174 107.125694 
L 189.409168 105.302176 
L 189.951162 102.84626 
L 190.493157 105.510929 
L 191.035151 105.578467 
L 191.577145 104.596101 
L 192.119139 106.06965 
L 192.661134 109.084287 
L 193.203128 104.528563 
L 193.745122 105.160961 
L 194.287116 103.055013 
L 194.82911 104.246132 
L 195.371105 103.122551 
L 195.913099 105.928435 
L 196.455093 104.878531 
L 196.997087 105.578467 
L 197.539082 104.737316 
L 198.081076 104.737316 
L 198.62307 106.493296 
L 199.165064 104.878531 
L 199.707059 103.687412 
L 200.249053 104.454885 
L 201.333041 102.913798 
L 201.875035 106.702048 
L 202.41703 103.963702 
L 202.959024 104.528563 
L 203.501018 102.56383 
L 204.043012 103.404981 
L 204.585007 102.56383 
L 205.127001 104.104917 
L 205.668995 104.387348 
L 206.210989 102.987476 
L 207.294978 104.810993 
L 207.836972 105.369714 
L 208.378966 103.055013 
L 208.920961 104.669778 
L 209.462955 104.31981 
L 210.004949 105.578467 
L 210.546943 102.913798 
L 211.088937 104.178595 
L 211.630932 102.631368 
L 212.172926 105.087284 
L 212.71492 104.810993 
L 213.256914 102.705045 
L 213.798909 102.84626 
L 214.340903 104.178595 
L 214.882897 103.546196 
L 215.424891 101.863894 
L 216.50888 105.437252 
L 217.050874 102.355077 
L 217.592868 103.404981 
L 218.134862 103.337444 
L 218.676857 107.751952 
L 219.218851 102.987476 
L 219.760845 100.599097 
L 220.302839 104.528563 
L 220.844834 104.387348 
L 221.386828 103.896164 
L 221.928822 104.246132 
L 222.470816 102.987476 
L 223.012811 104.737316 
L 223.554805 103.687412 
L 224.096799 103.478659 
L 224.638793 104.104917 
L 225.180787 102.56383 
L 225.722782 102.631368 
L 226.264776 104.104917 
L 226.80677 104.31981 
L 227.348764 103.337444 
L 227.890759 100.457882 
L 228.432753 104.946069 
L 228.974747 102.213862 
L 229.516741 101.299033 
L 230.058736 101.931432 
L 230.60073 102.072647 
L 231.142724 103.404981 
L 231.684718 101.931432 
L 232.226713 101.655141 
L 233.310701 103.687412 
L 233.852695 101.863894 
L 234.394689 104.878531 
L 234.936684 100.390344 
L 235.478678 101.581464 
L 236.020672 101.863894 
L 236.562666 103.754949 
L 237.104661 101.513926 
L 237.646655 101.299033 
L 238.188649 102.496292 
L 238.730643 103.122551 
L 239.272638 104.178595 
L 239.814632 100.881528 
L 240.356626 104.246132 
L 240.89862 103.337444 
L 241.440614 101.09028 
L 241.982609 106.143328 
L 243.066597 101.163958 
L 243.608591 103.337444 
L 244.150586 104.178595 
L 244.69258 102.422615 
L 245.234574 102.422615 
L 245.776568 101.722679 
L 246.318563 103.055013 
L 246.860557 100.599097 
L 247.402551 103.055013 
L 247.944545 104.878531 
L 248.486539 104.104917 
L 249.028534 102.631368 
L 249.570528 103.546196 
L 250.112522 99.690408 
L 251.196511 102.56383 
L 251.738505 103.122551 
L 252.280499 103.122551 
L 252.822493 102.213862 
L 253.364488 102.072647 
L 253.906482 101.299033 
L 254.448476 102.355077 
L 254.99047 102.213862 
L 255.532465 100.53156 
L 256.074459 100.881528 
L 256.616453 103.546196 
L 257.158447 103.196228 
L 258.242436 101.022743 
L 258.78443 100.249129 
L 259.326424 100.53156 
L 259.868418 99.475516 
L 260.410413 102.140185 
L 260.952407 101.09028 
L 261.494401 104.246132 
L 262.036395 101.513926 
L 262.57839 101.299033 
L 263.120384 101.440249 
L 263.662378 100.316667 
L 264.204372 98.849257 
L 265.288361 101.722679 
L 265.830355 100.040376 
L 266.372349 99.899161 
L 266.914343 100.599097 
L 267.456338 104.596101 
L 267.998332 99.966699 
L 268.540326 101.231496 
L 269.08232 98.916795 
L 269.624315 104.178595 
L 270.166309 103.122551 
L 270.708303 102.631368 
L 271.250297 102.772583 
L 271.792292 101.931432 
L 272.334286 99.34044 
L 272.87628 101.931432 
L 273.418274 102.987476 
L 273.960268 103.263766 
L 274.502263 102.422615 
L 275.044257 103.613734 
L 275.586251 102.213862 
L 276.128245 101.722679 
L 276.67024 101.022743 
L 277.212234 102.56383 
L 277.754228 102.072647 
L 278.296222 102.213862 
L 278.838217 100.881528 
L 279.380211 104.178595 
L 279.922205 102.072647 
L 280.464199 102.705045 
L 281.006193 100.949065 
L 281.548188 101.722679 
L 282.090182 100.107914 
L 282.632176 102.84626 
L 283.17417 101.299033 
L 283.716165 100.740312 
L 284.258159 101.299033 
L 284.800153 101.163958 
L 285.342147 98.77558 
L 285.884142 100.249129 
L 286.426136 102.913798 
L 286.96813 99.966699 
L 287.510124 101.09028 
L 288.052118 101.163958 
L 289.136107 102.496292 
L 289.678101 100.316667 
L 290.220095 101.09028 
L 290.76209 102.355077 
L 291.304084 102.84626 
L 291.846078 99.690408 
L 292.930067 105.437252 
L 293.472061 100.316667 
L 294.014055 99.831624 
L 294.556049 104.104917 
L 295.098044 100.181592 
L 296.182032 102.84626 
L 296.724026 100.949065 
L 297.26602 100.040376 
L 297.808015 101.022743 
L 298.350009 99.549193 
L 298.892003 98.493149 
L 299.433997 99.757946 
L 299.975992 102.84626 
L 300.517986 101.163958 
L 301.05998 101.022743 
L 301.601974 103.896164 
L 302.143969 100.881528 
L 302.685963 99.616731 
L 303.227957 102.772583 
L 303.769951 101.790217 
L 304.311945 101.722679 
L 304.85394 100.316667 
L 305.395934 101.09028 
L 305.937928 107.052016 
L 306.479922 102.072647 
L 307.021917 98.493149 
L 307.563911 102.422615 
L 308.105905 102.84626 
L 308.647899 100.181592 
L 309.189894 100.740312 
L 309.731888 98.493149 
L 310.273882 100.249129 
L 310.815876 105.160961 
L 311.357871 98.634365 
L 311.899865 101.372711 
L 312.441859 100.316667 
L 312.983853 100.249129 
L 313.525847 98.849257 
L 314.067842 100.316667 
L 314.609836 102.422615 
L 315.15183 103.122551 
L 315.693824 99.549193 
L 316.235819 101.655141 
L 317.319807 97.516923 
L 317.861801 102.140185 
L 318.403796 102.355077 
L 318.94579 102.705045 
L 319.487784 99.125548 
L 320.029778 101.440249 
L 320.571772 101.863894 
L 321.113767 96.952062 
L 321.655761 99.899161 
L 322.197755 99.616731 
L 322.739749 99.831624 
L 323.281744 101.440249 
L 323.823738 100.672775 
L 324.365732 98.143181 
L 324.907726 103.613734 
L 325.449721 99.899161 
L 325.991715 98.634365 
L 326.533709 101.513926 
L 327.075703 97.866891 
L 327.617697 101.09028 
L 328.159692 98.566827 
L 328.701686 101.231496 
L 329.24368 100.457882 
L 329.785674 102.631368 
L 330.327669 99.407978 
L 330.869663 102.84626 
L 331.411657 102.705045 
L 331.953651 97.793213 
L 332.495646 100.390344 
L 333.03764 98.284397 
L 333.579634 101.722679 
L 334.121628 101.299033 
L 334.663623 98.77558 
L 335.205617 97.725676 
L 336.289605 101.299033 
L 336.831599 98.849257 
L 337.373594 98.849257 
L 337.915588 101.440249 
L 338.457582 100.316667 
L 338.999576 99.549193 
L 339.541571 101.372711 
L 340.083565 99.199225 
L 340.625559 99.199225 
L 341.167553 101.163958 
L 341.709548 99.549193 
L 342.793536 100.599097 
L 343.33553 99.34044 
L 343.877524 102.56383 
L 344.419519 101.299033 
L 344.961513 100.949065 
L 345.503507 98.284397 
L 346.045501 98.849257 
L 346.587496 98.984333 
L 347.12949 103.478659 
L 347.671484 98.708042 
L 348.755473 101.163958 
L 349.297467 101.513926 
L 349.839461 100.390344 
L 350.381455 102.213862 
L 350.923449 99.549193 
L 351.465444 102.496292 
L 352.007438 99.475516 
L 352.549432 99.34044 
L 353.091426 99.831624 
L 353.633421 102.631368 
L 354.175415 99.690408 
L 354.717409 98.493149 
L 355.259403 100.181592 
L 355.801398 102.2814 
L 356.343392 99.757946 
L 356.885386 103.613734 
L 357.42738 100.040376 
L 357.969375 102.987476 
L 358.511369 99.899161 
L 359.053363 102.2814 
L 359.595357 99.34044 
L 360.137351 98.008106 
L 360.679346 101.790217 
L 361.22134 104.596101 
L 361.763334 100.107914 
L 362.305328 102.213862 
L 362.847323 99.616731 
L 364.473305 101.299033 
L 365.0153 101.655141 
L 365.557294 101.022743 
L 366.099288 101.231496 
L 366.641282 101.581464 
L 367.183276 103.478659 
L 367.725271 100.457882 
L 368.267265 100.599097 
L 368.809259 103.055013 
L 369.351253 99.34044 
L 369.893248 98.566827 
L 370.435242 99.690408 
L 370.977236 98.216859 
L 371.51923 101.513926 
L 372.061225 103.546196 
L 372.603219 99.831624 
L 373.145213 99.757946 
L 373.687207 104.03738 
L 374.229202 101.09028 
L 375.31319 103.963702 
L 375.855184 101.655141 
L 376.939173 100.881528 
L 377.481167 99.266763 
L 378.023161 98.425612 
L 378.565155 101.231496 
L 379.10715 99.34044 
L 379.649144 100.881528 
L 380.191138 99.05801 
L 380.733132 99.199225 
L 381.275127 97.443245 
L 381.817121 100.181592 
L 382.359115 99.475516 
L 382.901109 99.616731 
L 383.443103 102.2814 
L 383.985098 100.881528 
L 384.527092 98.634365 
L 385.069086 101.722679 
L 386.153075 98.216859 
L 386.695069 105.302176 
L 387.237063 100.53156 
L 387.779057 97.793213 
L 388.321052 99.690408 
L 388.863046 98.425612 
L 389.40504 103.478659 
L 389.947034 101.581464 
L 390.489028 108.734319 
L 391.031023 100.457882 
L 391.031023 100.457882 
" style="fill:none;stroke:#1f77b4;stroke-linecap:square;stroke-width:1.5;"/>
   </g>
   <g id="line2d_18">
    <path clip-path="url(#pf8a98a3f9d)" d="M 66.376477 202.507329 
L 66.918472 185.678165 
L 68.00246 168.984077 
L 69.086448 159.307768 
L 69.628443 159.025338 
L 70.170437 158.184186 
L 70.712431 158.184186 
L 71.254425 157.20182 
L 71.79642 154.604689 
L 72.338414 155.660733 
L 72.880408 153.622323 
L 73.422402 154.745904 
L 73.964397 152.854849 
L 74.506391 154.604689 
L 75.048385 149.698997 
L 75.590379 152.007558 
L 76.132373 149.766534 
L 76.674368 149.766534 
L 77.216362 150.325255 
L 77.758356 147.451834 
L 78.30035 148.084232 
L 78.842345 148.084232 
L 79.384339 147.028188 
L 79.926333 144.995918 
L 80.468327 145.487101 
L 81.010322 143.246078 
L 81.552316 143.381153 
L 82.09431 143.246078 
L 82.636304 142.472464 
L 83.178298 143.1724 
L 83.720293 142.122496 
L 84.262287 142.122496 
L 84.804281 139.525365 
L 85.88827 143.031185 
L 86.430264 141.14013 
L 86.972258 143.1724 
L 87.514252 139.525365 
L 88.056247 140.575269 
L 88.598241 141.281345 
L 89.140235 138.125493 
L 89.682229 138.684214 
L 90.224224 140.998915 
L 90.766218 137.001911 
L 91.308212 138.334246 
L 91.850206 138.334246 
L 92.3922 139.457827 
L 92.934195 137.069449 
L 94.018183 138.125493 
L 94.560177 136.510728 
L 95.102172 136.860696 
L 95.644166 140.090226 
L 96.18616 139.316612 
L 96.728154 135.737115 
L 97.270149 136.793159 
L 97.812143 135.319609 
L 98.354137 136.369513 
L 98.896131 136.301975 
L 99.438125 133.637307 
L 99.98012 133.496091 
L 100.522114 137.143127 
L 101.064108 133.213661 
L 101.606102 132.37251 
L 102.148097 132.022542 
L 102.690091 134.337243 
L 103.232085 131.531359 
L 103.774079 130.548992 
L 104.316074 133.772382 
L 104.858068 132.231295 
L 105.400062 132.931231 
L 105.942056 129.566626 
L 106.484051 132.513725 
L 107.026045 131.881327 
L 107.568039 130.199024 
L 108.110033 131.040175 
L 108.652027 129.990271 
L 109.194022 133.281199 
L 109.736016 128.301829 
L 110.27801 130.266562 
L 110.820004 128.934228 
L 111.361999 131.040175 
L 111.903993 129.707841 
L 112.445987 131.457681 
L 112.987981 129.990271 
L 113.529976 129.284196 
L 114.613964 128.657937 
L 115.155958 128.725475 
L 115.697952 128.584259 
L 116.239947 128.793012 
L 116.781941 129.425411 
L 117.323935 128.443044 
L 117.865929 130.199024 
L 118.407924 130.266562 
L 118.949918 127.39314 
L 119.491912 130.481455 
L 120.033906 129.357873 
L 121.117895 127.675571 
L 121.659889 127.884323 
L 122.201883 126.760742 
L 122.743877 124.519719 
L 123.285872 126.760742 
L 123.827866 129.566626 
L 124.36986 127.184387 
L 124.911854 123.32246 
L 125.453849 123.32246 
L 125.995843 125.428407 
L 126.537837 126.128344 
L 127.079831 124.587256 
L 127.621826 124.028535 
L 128.16382 125.078439 
L 128.705814 127.601893 
L 129.247808 123.746105 
L 129.789803 125.004762 
L 130.331797 124.869687 
L 130.873791 127.810646 
L 131.415785 124.796009 
L 131.957779 126.478312 
L 132.499774 127.460678 
L 133.041768 126.478312 
L 133.583762 126.760742 
L 134.125756 126.834419 
L 134.667751 123.046169 
L 135.209745 124.728471 
L 135.751739 125.36087 
L 136.293733 124.654794 
L 136.835728 123.672428 
L 137.377722 124.937224 
L 137.919716 124.796009 
L 138.46171 123.396137 
L 139.003704 124.378503 
L 139.545699 122.904954 
L 140.087693 124.096073 
L 140.629687 123.463675 
L 141.171681 122.13134 
L 141.713676 122.763739 
L 142.25567 120.3815 
L 142.797664 122.904954 
L 143.339658 123.396137 
L 143.881653 124.654794 
L 144.423647 123.181244 
L 144.965641 125.919591 
L 145.507635 125.778376 
L 146.049629 121.713835 
L 146.591624 125.287192 
L 147.133618 121.431404 
L 147.675612 124.519719 
L 148.217606 124.163611 
L 148.759601 124.869687 
L 149.301595 124.728471 
L 149.843589 125.778376 
L 150.385583 122.904954 
L 150.927578 122.340093 
L 151.469572 123.60489 
L 152.011566 123.396137 
L 152.55356 121.357727 
L 153.095555 123.746105 
L 153.637549 121.222651 
L 154.721537 123.254922 
L 155.263531 126.901957 
L 156.34752 121.640157 
L 156.889514 125.778376 
L 157.431508 124.163611 
L 157.973503 123.746105 
L 158.515497 124.378503 
L 159.057491 121.922587 
L 160.14148 119.399134 
L 160.683474 122.063803 
L 161.225468 118.975488 
L 161.767462 121.713835 
L 162.309456 123.046169 
L 162.851451 121.84891 
L 163.393445 123.046169 
L 163.935439 120.3815 
L 164.477433 120.731468 
L 165.019428 120.025392 
L 165.561422 123.113707 
L 166.103416 120.3815 
L 166.64541 120.799006 
L 167.187405 121.357727 
L 167.729399 121.357727 
L 168.271393 122.622524 
L 168.813387 122.763739 
L 169.355382 123.046169 
L 169.897376 121.290189 
L 170.43937 124.163611 
L 170.981364 123.60489 
L 171.523358 124.304826 
L 172.065353 123.954858 
L 172.607347 124.378503 
L 173.149341 120.940221 
L 173.691335 124.446041 
L 174.23333 123.672428 
L 174.775324 123.537352 
L 175.317318 119.116704 
L 175.859312 122.272556 
L 176.401307 124.028535 
L 176.943301 123.954858 
L 177.485295 122.205018 
L 178.027289 123.113707 
L 178.569283 122.413771 
L 179.111278 121.007759 
L 179.653272 125.495945 
L 180.195266 120.872683 
L 181.279255 123.537352 
L 181.821249 121.290189 
L 182.363243 119.890317 
L 182.905237 121.222651 
L 183.447232 117.784369 
L 183.989226 117.575616 
L 184.53122 120.940221 
L 185.073214 116.31082 
L 185.615208 116.59325 
L 186.157203 119.184241 
L 186.699197 118.416767 
L 187.241191 120.025392 
L 187.783185 121.007759 
L 188.32518 120.872683 
L 188.867174 121.081436 
L 189.409168 121.498942 
L 189.951162 122.622524 
L 190.493157 123.254922 
L 191.035151 118.693058 
L 191.577145 118.907951 
L 192.119139 118.834273 
L 192.661134 118.907951 
L 193.203128 121.781372 
L 193.745122 119.257919 
L 194.287116 119.399134 
L 194.82911 121.357727 
L 195.371105 121.357727 
L 195.913099 120.449038 
L 196.455093 117.434401 
L 196.997087 117.010756 
L 197.539082 120.516576 
L 198.081076 119.184241 
L 198.62307 118.693058 
L 199.165064 119.116704 
L 199.707059 118.34309 
L 200.249053 121.148974 
L 200.791047 118.557983 
L 201.333041 119.325456 
L 201.875035 119.049166 
L 202.959024 117.010756 
L 203.501018 117.434401 
L 204.043012 119.81664 
L 204.585007 119.749102 
L 205.127001 117.151971 
L 205.668995 117.993122 
L 206.210989 114.83727 
L 207.294978 119.607887 
L 207.836972 118.693058 
L 208.378966 118.484305 
L 209.462955 117.575616 
L 210.004949 116.734465 
L 210.546943 117.925584 
L 211.088937 119.534209 
L 211.630932 118.201875 
L 212.71492 120.449038 
L 213.256914 120.590253 
L 213.798909 117.784369 
L 214.340903 118.62552 
L 214.882897 118.766735 
L 215.424891 119.184241 
L 216.50888 117.851907 
L 217.050874 120.025392 
L 217.592868 121.081436 
L 218.134862 120.3815 
L 218.676857 120.940221 
L 219.218851 122.763739 
L 219.760845 119.399134 
L 220.302839 121.498942 
L 220.844834 120.516576 
L 221.386828 120.590253 
L 221.928822 119.957855 
L 222.470816 120.3815 
L 223.012811 119.399134 
L 223.554805 120.449038 
L 224.638793 119.957855 
L 225.180787 122.831276 
L 225.722782 119.049166 
L 226.264776 117.575616 
L 226.80677 119.81664 
L 227.348764 116.660788 
L 227.890759 116.802003 
L 228.432753 119.81664 
L 228.974747 118.066799 
L 229.516741 118.693058 
L 230.058736 117.084433 
L 230.60073 120.240285 
L 231.142724 119.81664 
L 231.684718 118.066799 
L 232.226713 118.907951 
L 232.768707 118.066799 
L 233.310701 119.116704 
L 233.852695 119.399134 
L 234.394689 118.834273 
L 234.936684 116.378357 
L 235.478678 116.452035 
L 236.020672 118.275552 
L 236.562666 117.360724 
L 237.104661 118.484305 
L 237.646655 117.925584 
L 238.188649 116.59325 
L 238.730643 117.784369 
L 239.272638 118.484305 
L 239.814632 120.590253 
L 240.356626 119.749102 
L 240.89862 118.066799 
L 241.440614 118.275552 
L 241.982609 117.993122 
L 242.524603 120.799006 
L 243.066597 120.449038 
L 243.608591 116.943218 
L 244.150586 117.643154 
L 244.69258 117.501939 
L 245.234574 117.501939 
L 245.776568 116.452035 
L 246.318563 118.066799 
L 246.860557 118.416767 
L 247.402551 119.890317 
L 247.944545 118.34309 
L 248.486539 115.537206 
L 249.028534 119.399134 
L 249.570528 119.257919 
L 250.112522 119.675424 
L 250.654516 119.257919 
L 251.738505 116.802003 
L 252.280499 118.275552 
L 252.822493 116.59325 
L 253.364488 118.975488 
L 253.906482 118.066799 
L 254.448476 116.802003 
L 255.532465 115.046023 
L 256.074459 116.31082 
L 256.616453 116.102067 
L 257.700441 117.784369 
L 258.242436 118.834273 
L 258.78443 118.907951 
L 259.326424 120.025392 
L 259.868418 118.557983 
L 260.410413 115.752099 
L 260.952407 117.575616 
L 261.494401 116.943218 
L 262.036395 117.993122 
L 263.120384 116.519572 
L 263.662378 120.025392 
L 264.204372 117.010756 
L 264.746366 115.960852 
L 265.288361 113.996119 
L 265.830355 116.734465 
L 266.372349 116.802003 
L 266.914343 115.260915 
L 267.456338 115.187238 
L 267.998332 118.484305 
L 268.540326 117.784369 
L 269.08232 118.066799 
L 269.624315 117.293186 
L 270.166309 117.784369 
L 271.250297 119.675424 
L 271.792292 118.416767 
L 272.334286 119.466672 
L 272.87628 118.275552 
L 273.418274 119.749102 
L 273.960268 117.360724 
L 274.502263 118.484305 
L 275.044257 118.693058 
L 275.586251 118.416767 
L 276.128245 118.62552 
L 276.67024 119.534209 
L 277.212234 119.116704 
L 277.754228 118.975488 
L 278.296222 116.452035 
L 278.838217 119.325456 
L 279.380211 117.084433 
L 279.922205 119.607887 
L 280.464199 119.049166 
L 281.006193 119.116704 
L 281.548188 116.943218 
L 282.090182 120.240285 
L 282.632176 119.607887 
L 283.17417 121.007759 
L 283.716165 119.049166 
L 284.258159 118.62552 
L 284.800153 117.925584 
L 285.342147 118.134337 
L 285.884142 121.922587 
L 286.426136 119.749102 
L 286.96813 121.007759 
L 287.510124 120.731468 
L 288.052118 119.184241 
L 288.594113 118.201875 
L 289.136107 119.749102 
L 289.678101 115.1197 
L 290.220095 115.887174 
L 290.76209 117.784369 
L 291.304084 118.416767 
L 291.846078 117.575616 
L 292.388072 119.325456 
L 292.930067 120.590253 
L 294.014055 117.501939 
L 294.556049 118.834273 
L 295.098044 118.34309 
L 295.640038 119.466672 
L 296.182032 117.575616 
L 296.724026 119.957855 
L 297.26602 117.710692 
L 297.808015 119.890317 
L 298.350009 120.09907 
L 298.892003 118.834273 
L 299.433997 118.834273 
L 299.975992 121.640157 
L 300.517986 117.710692 
L 301.05998 118.484305 
L 301.601974 116.660788 
L 302.143969 120.307823 
L 302.685963 119.184241 
L 303.227957 116.31082 
L 303.769951 117.501939 
L 304.311945 117.151971 
L 304.85394 117.010756 
L 305.395934 120.240285 
L 305.937928 121.357727 
L 306.479922 116.943218 
L 307.021917 118.557983 
L 307.563911 117.851907 
L 308.105905 122.622524 
L 308.647899 118.484305 
L 309.189894 118.066799 
L 309.731888 119.749102 
L 310.273882 118.975488 
L 310.815876 119.466672 
L 311.357871 119.049166 
L 311.899865 120.166608 
L 312.441859 118.975488 
L 312.983853 118.557983 
L 313.525847 117.434401 
L 314.067842 116.734465 
L 314.609836 118.201875 
L 315.15183 117.293186 
L 315.693824 118.201875 
L 316.235819 119.466672 
L 316.777813 117.851907 
L 317.319807 119.957855 
L 317.861801 119.184241 
L 318.403796 119.257919 
L 318.94579 118.693058 
L 319.487784 118.766735 
L 320.029778 120.516576 
L 320.571772 119.049166 
L 321.113767 118.134337 
L 321.655761 118.975488 
L 322.197755 116.519572 
L 322.739749 117.293186 
L 323.281744 116.943218 
L 323.823738 117.225648 
L 324.365732 117.925584 
L 324.907726 117.575616 
L 325.449721 116.452035 
L 325.991715 116.378357 
L 326.533709 116.59325 
L 327.075703 117.293186 
L 327.617697 115.260915 
L 328.159692 117.710692 
L 328.701686 116.378357 
L 329.24368 118.62552 
L 329.785674 118.066799 
L 330.327669 119.116704 
L 330.869663 118.134337 
L 331.411657 116.86954 
L 331.953651 118.134337 
L 332.495646 115.046023 
L 333.579634 118.34309 
L 334.121628 117.360724 
L 334.663623 120.307823 
L 335.205617 119.675424 
L 335.747611 121.922587 
L 336.289605 119.890317 
L 336.831599 119.116704 
L 337.373594 120.09907 
L 337.915588 117.360724 
L 338.457582 119.184241 
L 338.999576 119.749102 
L 340.083565 119.534209 
L 341.167553 118.275552 
L 341.709548 116.378357 
L 342.251542 121.222651 
L 342.793536 119.675424 
L 343.33553 117.784369 
L 343.877524 121.081436 
L 344.419519 118.275552 
L 344.961513 117.151971 
L 345.503507 119.466672 
L 346.045501 118.834273 
L 346.587496 119.534209 
L 347.12949 116.86954 
L 347.671484 119.257919 
L 348.213478 117.575616 
L 348.755473 118.484305 
L 349.297467 120.307823 
L 349.839461 118.484305 
L 350.381455 115.960852 
L 350.923449 117.784369 
L 351.465444 118.62552 
L 352.007438 118.34309 
L 352.549432 116.028389 
L 353.091426 117.643154 
L 353.633421 116.943218 
L 354.175415 118.484305 
L 354.717409 120.516576 
L 355.259403 120.940221 
L 356.343392 119.325456 
L 356.885386 118.34309 
L 357.42738 118.201875 
L 357.969375 117.434401 
L 358.511369 118.134337 
L 359.053363 121.290189 
L 359.595357 120.799006 
L 360.137351 118.975488 
L 361.22134 120.940221 
L 361.763334 119.957855 
L 362.305328 119.534209 
L 362.847323 119.890317 
L 363.389317 120.516576 
L 363.931311 117.225648 
L 364.473305 119.399134 
L 365.0153 116.452035 
L 365.557294 117.293186 
L 366.099288 116.86954 
L 366.641282 119.325456 
L 367.183276 117.710692 
L 367.725271 117.501939 
L 368.267265 119.957855 
L 368.809259 120.240285 
L 369.351253 120.3815 
L 369.893248 117.993122 
L 370.435242 120.025392 
L 370.977236 120.307823 
L 371.51923 119.534209 
L 372.061225 120.449038 
L 372.603219 122.622524 
L 373.145213 123.672428 
L 373.687207 123.254922 
L 374.229202 119.957855 
L 374.771196 122.972492 
L 375.31319 118.62552 
L 375.855184 121.431404 
L 376.397178 120.09907 
L 377.481167 121.572619 
L 378.565155 119.957855 
L 379.10715 122.972492 
L 379.649144 121.922587 
L 380.191138 121.148974 
L 380.733132 118.975488 
L 381.275127 119.116704 
L 381.817121 119.957855 
L 382.359115 119.399134 
L 382.901109 121.713835 
L 383.443103 121.84891 
L 383.985098 118.34309 
L 384.527092 121.007759 
L 385.069086 119.399134 
L 385.61108 118.693058 
L 386.153075 119.890317 
L 386.695069 120.025392 
L 387.237063 121.148974 
L 387.779057 119.81664 
L 388.321052 117.225648 
L 388.863046 117.575616 
L 389.40504 119.325456 
L 389.947034 119.466672 
L 390.489028 122.554986 
L 391.031023 120.3815 
L 391.031023 120.3815 
" style="fill:none;stroke:#ff7f0e;stroke-linecap:square;stroke-width:1.5;"/>
   </g>
   <g id="line2d_19">
    <path clip-path="url(#pf8a98a3f9d)" d="M 66.376477 203.422158 
L 66.918472 184.554584 
L 67.460466 172.422359 
L 68.00246 168.560431 
L 68.544454 171.2251 
L 69.086448 169.966443 
L 69.628443 172.072391 
L 70.170437 174.945813 
L 70.712431 175.995717 
L 71.254425 176.345685 
L 71.79642 177.542944 
L 72.338414 178.384095 
L 72.880408 177.051761 
L 73.422402 176.419362 
L 73.964397 177.051761 
L 75.048385 175.436996 
L 75.590379 175.295781 
L 76.132373 172.913542 
L 76.674368 173.122295 
L 77.216362 170.107658 
L 78.30035 171.2251 
L 78.842345 169.892766 
L 79.384339 170.175196 
L 79.926333 168.425356 
L 80.468327 168.069248 
L 81.010322 168.284141 
L 81.552316 167.578065 
L 82.09431 166.386946 
L 83.178298 165.545794 
L 84.262287 163.795954 
L 84.804281 162.039974 
L 85.346275 163.231094 
L 85.88827 162.248727 
L 86.430264 159.516521 
L 86.972258 164.637106 
L 87.514252 160.640102 
L 88.056247 161.340038 
L 88.598241 160.283995 
L 89.140235 159.725274 
L 89.682229 158.460477 
L 90.224224 158.392939 
L 90.766218 158.110509 
L 91.308212 160.42521 
L 91.850206 157.060605 
L 92.3922 158.184186 
L 92.934195 157.693003 
L 93.476189 158.460477 
L 94.018183 157.060605 
L 94.560177 154.678366 
L 95.102172 154.745904 
L 95.644166 154.113506 
L 96.18616 153.831075 
L 96.728154 152.713634 
L 97.270149 156.428206 
L 97.812143 154.395936 
L 98.354137 154.395936 
L 98.896131 155.095872 
L 99.438125 154.113506 
L 99.98012 152.498741 
L 100.522114 154.604689 
L 101.064108 155.095872 
L 101.606102 153.481107 
L 102.690091 152.363666 
L 103.232085 153.904753 
L 103.774079 152.572418 
L 104.316074 150.675223 
L 104.858068 157.128143 
L 105.400062 153.972291 
L 105.942056 153.554785 
L 106.484051 151.448837 
L 107.026045 154.678366 
L 107.568039 150.398933 
L 108.110033 150.607686 
L 108.652027 151.590052 
L 109.194022 150.257718 
L 109.736016 151.166407 
L 110.27801 151.307622 
L 110.820004 150.257718 
L 111.903993 150.607686 
L 112.445987 150.398933 
L 112.987981 148.225447 
L 113.529976 147.310619 
L 114.07197 148.784168 
L 114.613964 149.066598 
L 115.155958 147.243081 
L 115.697952 148.851706 
L 116.239947 146.960651 
L 116.781941 149.834072 
L 117.323935 147.310619 
L 118.407924 148.4342 
L 118.949918 146.67822 
L 119.491912 146.960651 
L 120.033906 149.275351 
L 120.575901 149.557782 
L 121.117895 151.590052 
L 121.659889 146.960651 
L 122.201883 148.4342 
L 122.743877 148.4342 
L 123.285872 145.695854 
L 123.827866 148.225447 
L 124.36986 146.469467 
L 124.911854 148.501738 
L 125.453849 146.610683 
L 125.995843 147.451834 
L 126.537837 147.519371 
L 127.079831 148.360523 
L 127.621826 144.64595 
L 128.16382 145.837069 
L 128.705814 147.384296 
L 129.247808 147.101866 
L 129.789803 146.119499 
L 130.331797 146.893113 
L 131.415785 146.328252 
L 131.957779 145.560778 
L 132.499774 145.487101 
L 133.041768 144.64595 
L 133.583762 144.295982 
L 134.125756 144.295982 
L 134.667751 147.310619 
L 135.209745 147.519371 
L 135.751739 149.207814 
L 136.293733 146.187037 
L 136.835728 147.169403 
L 137.377722 146.328252 
L 137.919716 146.328252 
L 139.003704 145.345886 
L 139.545699 146.819435 
L 140.087693 149.275351 
L 140.629687 145.069595 
L 141.171681 144.92838 
L 141.713676 145.695854 
L 142.25567 147.310619 
L 142.797664 144.578412 
L 143.339658 145.837069 
L 143.881653 144.787165 
L 144.423647 144.154767 
L 144.965641 142.472464 
L 145.507635 148.225447 
L 146.049629 145.137133 
L 146.591624 145.345886 
L 147.133618 144.995918 
L 147.675612 146.051962 
L 148.217606 145.695854 
L 148.759601 143.596046 
L 149.301595 142.88997 
L 149.843589 144.013551 
L 150.385583 143.522368 
L 150.927578 144.222304 
L 151.469572 145.487101 
L 152.011566 146.187037 
L 152.55356 144.995918 
L 153.095555 146.893113 
L 153.637549 144.995918 
L 154.179543 146.67822 
L 154.721537 146.610683 
L 155.805526 144.295982 
L 156.34752 145.978284 
L 157.431508 147.451834 
L 157.973503 146.051962 
L 158.515497 145.487101 
L 159.057491 146.537005 
L 159.599485 148.360523 
L 160.14148 146.893113 
L 160.683474 143.946014 
L 161.225468 145.978284 
L 161.767462 145.278348 
L 162.851451 142.613679 
L 163.393445 142.88997 
L 163.935439 141.42256 
L 164.477433 144.154767 
L 165.019428 143.737261 
L 165.561422 144.787165 
L 166.103416 145.278348 
L 166.64541 143.246078 
L 167.187405 145.278348 
L 167.729399 139.949011 
L 168.271393 142.540002 
L 168.813387 140.298979 
L 169.355382 140.998915 
L 169.897376 139.949011 
L 170.43937 140.090226 
L 170.981364 142.88997 
L 171.523358 141.772528 
L 172.065353 141.913743 
L 172.607347 142.398787 
L 173.149341 140.857699 
L 173.691335 140.366516 
L 174.23333 141.281345 
L 174.775324 140.507731 
L 175.859312 141.207667 
L 176.401307 143.381153 
L 176.943301 141.913743 
L 177.485295 141.348883 
L 178.027289 138.334246 
L 178.569283 136.44319 
L 179.653272 140.790162 
L 180.195266 138.966644 
L 180.73726 140.998915 
L 181.279255 141.42256 
L 181.821249 138.193031 
L 182.363243 140.716484 
L 182.905237 141.42256 
L 183.447232 140.440194 
L 183.989226 141.631313 
L 184.53122 139.525365 
L 185.073214 140.716484 
L 185.615208 139.599042 
L 186.157203 139.107859 
L 186.699197 139.734118 
L 187.241191 140.857699 
L 187.783185 139.599042 
L 188.32518 139.734118 
L 188.867174 139.034182 
L 189.409168 140.298979 
L 189.951162 138.966644 
L 190.493157 140.225301 
L 191.035151 140.648947 
L 191.577145 140.298979 
L 192.119139 138.193031 
L 192.661134 138.542999 
L 193.203128 138.125493 
L 193.745122 138.051815 
L 194.287116 138.825429 
L 194.82911 135.245931 
L 195.371105 137.775525 
L 195.913099 138.051815 
L 196.455093 138.051815 
L 196.997087 136.719481 
L 197.539082 134.263565 
L 198.081076 136.651943 
L 198.62307 135.245931 
L 199.165064 136.510728 
L 199.707059 136.860696 
L 200.249053 134.687211 
L 200.791047 136.369513 
L 201.333041 134.478458 
L 201.875035 137.63431 
L 202.41703 135.952007 
L 202.959024 136.578266 
L 203.501018 135.595899 
L 204.043012 136.16076 
L 204.585007 136.087083 
L 205.127001 133.637307 
L 205.668995 136.510728 
L 207.294978 131.598896 
L 207.836972 132.581263 
L 208.378966 135.319609 
L 208.920961 135.037179 
L 209.462955 133.072446 
L 210.004949 133.772382 
L 210.546943 135.037179 
L 211.088937 134.054812 
L 212.172926 133.846059 
L 212.71492 135.460824 
L 213.798909 135.595899 
L 214.340903 134.687211 
L 214.882897 135.037179 
L 215.424891 134.263565 
L 215.966886 137.775525 
L 216.50888 135.952007 
L 217.050874 132.790016 
L 217.592868 134.478458 
L 218.134862 134.545995 
L 218.676857 136.228298 
L 219.218851 132.863693 
L 219.760845 133.496091 
L 220.302839 134.478458 
L 220.844834 131.948864 
L 221.386828 134.337243 
L 221.928822 132.790016 
L 222.470816 133.704844 
L 223.012811 132.022542 
L 223.554805 134.263565 
L 224.096799 131.248928 
L 224.638793 133.846059 
L 225.180787 134.337243 
L 225.722782 136.651943 
L 226.264776 133.563629 
L 226.80677 134.40478 
L 227.348764 133.213661 
L 227.890759 134.337243 
L 228.432753 132.65494 
L 229.516741 131.881327 
L 230.058736 136.651943 
L 230.60073 134.054812 
L 231.142724 135.460824 
L 231.684718 132.863693 
L 232.226713 134.895963 
L 232.768707 131.740111 
L 233.310701 133.704844 
L 233.852695 132.513725 
L 234.394689 129.007905 
L 234.936684 132.37251 
L 235.478678 132.790016 
L 236.020672 132.163757 
L 236.562666 130.89896 
L 237.104661 132.581263 
L 237.646655 133.004908 
L 238.188649 132.090079 
L 238.730643 135.104716 
L 239.272638 133.281199 
L 239.814632 134.828426 
L 240.356626 135.319609 
L 240.89862 132.231295 
L 241.440614 131.248928 
L 241.982609 133.704844 
L 242.524603 131.813789 
L 243.608591 135.037179 
L 244.150586 133.637307 
L 244.69258 130.690207 
L 245.234574 130.407777 
L 245.776568 134.828426 
L 246.318563 131.672574 
L 246.860557 132.090079 
L 247.402551 133.772382 
L 247.944545 131.107713 
L 248.486539 134.196027 
L 249.028534 130.199024 
L 249.570528 135.87833 
L 250.654516 131.813789 
L 251.196511 131.531359 
L 251.738505 133.563629 
L 252.280499 132.65494 
L 252.822493 133.422414 
L 253.364488 132.513725 
L 253.906482 132.790016 
L 254.448476 134.828426 
L 254.99047 135.245931 
L 255.532465 132.304972 
L 256.074459 130.481455 
L 256.616453 132.722478 
L 257.158447 132.513725 
L 258.242436 131.598896 
L 258.78443 131.948864 
L 259.326424 130.548992 
L 259.868418 136.651943 
L 260.410413 132.090079 
L 260.952407 134.895963 
L 261.494401 134.40478 
L 262.036395 135.460824 
L 263.120384 132.931231 
L 263.662378 134.613533 
L 264.204372 133.704844 
L 264.746366 134.545995 
L 265.288361 133.987275 
L 265.830355 131.457681 
L 266.372349 134.613533 
L 266.914343 130.057809 
L 267.456338 130.831423 
L 267.998332 132.65494 
L 268.540326 132.513725 
L 269.08232 132.722478 
L 269.624315 133.072446 
L 270.166309 134.969641 
L 270.708303 134.545995 
L 271.250297 133.913597 
L 271.792292 135.319609 
L 272.87628 131.040175 
L 273.418274 131.881327 
L 273.960268 136.793159 
L 274.502263 134.895963 
L 275.044257 134.895963 
L 275.586251 134.40478 
L 276.128245 134.895963 
L 276.67024 134.613533 
L 277.212234 134.754748 
L 277.754228 135.810792 
L 278.296222 136.019545 
L 278.838217 133.987275 
L 279.380211 137.351879 
L 279.922205 134.478458 
L 280.464199 130.340239 
L 281.006193 133.496091 
L 281.548188 131.881327 
L 282.090182 133.987275 
L 282.632176 133.987275 
L 283.17417 136.087083 
L 283.716165 134.828426 
L 284.258159 132.163757 
L 284.800153 132.790016 
L 285.884142 135.178394 
L 286.426136 133.281199 
L 286.96813 132.163757 
L 287.510124 133.354876 
L 288.052118 133.072446 
L 288.594113 131.598896 
L 289.136107 131.390143 
L 289.678101 133.281199 
L 290.220095 132.513725 
L 291.304084 135.387147 
L 291.846078 132.790016 
L 292.388072 134.478458 
L 292.930067 133.213661 
L 293.472061 133.004908 
L 294.014055 133.913597 
L 294.556049 132.863693 
L 295.098044 134.263565 
L 295.640038 133.987275 
L 296.182032 133.281199 
L 296.724026 131.181391 
L 297.26602 131.948864 
L 297.808015 136.510728 
L 298.350009 136.019545 
L 299.433997 131.740111 
L 299.975992 132.65494 
L 300.517986 134.828426 
L 301.05998 134.895963 
L 301.601974 133.563629 
L 302.143969 133.772382 
L 302.685963 133.704844 
L 303.227957 131.107713 
L 303.769951 135.245931 
L 304.311945 133.281199 
L 304.85394 132.304972 
L 305.395934 136.228298 
L 305.937928 133.846059 
L 307.021917 132.37251 
L 307.563911 130.125347 
L 308.105905 133.637307 
L 308.647899 135.669577 
L 309.189894 136.087083 
L 309.731888 130.340239 
L 310.273882 131.948864 
L 310.815876 132.231295 
L 311.357871 132.090079 
L 311.899865 132.304972 
L 312.441859 132.231295 
L 312.983853 132.513725 
L 313.525847 137.9106 
L 314.067842 132.65494 
L 314.609836 136.228298 
L 315.15183 132.304972 
L 315.693824 134.196027 
L 316.235819 130.548992 
L 316.777813 131.322606 
L 317.319807 133.846059 
L 317.861801 135.669577 
L 318.403796 132.722478 
L 318.94579 132.722478 
L 319.487784 132.022542 
L 320.029778 133.637307 
L 320.571772 132.440048 
L 321.113767 132.790016 
L 321.655761 132.790016 
L 322.197755 134.337243 
L 322.739749 135.245931 
L 323.823738 133.563629 
L 324.365732 135.460824 
L 324.907726 138.966644 
L 325.449721 133.704844 
L 325.991715 138.125493 
L 326.533709 134.687211 
L 327.075703 133.072446 
L 327.617697 134.263565 
L 328.159692 136.301975 
L 328.701686 133.913597 
L 329.24368 134.969641 
L 329.785674 133.354876 
L 330.327669 134.12849 
L 330.869663 136.928234 
L 331.411657 132.37251 
L 331.953651 138.266708 
L 332.495646 134.828426 
L 333.03764 138.401783 
L 333.579634 133.072446 
L 334.121628 133.772382 
L 334.663623 134.969641 
L 335.205617 131.181391 
L 335.747611 136.578266 
L 336.289605 131.598896 
L 336.831599 131.740111 
L 337.373594 135.037179 
L 337.915588 132.090079 
L 338.457582 132.022542 
L 338.999576 134.40478 
L 339.541571 133.496091 
L 340.083565 133.772382 
L 340.625559 137.419417 
L 341.167553 136.651943 
L 341.709548 138.051815 
L 342.251542 136.019545 
L 342.793536 130.61653 
L 343.33553 136.510728 
L 343.877524 134.828426 
L 344.419519 134.196027 
L 344.961513 131.457681 
L 345.503507 132.863693 
L 346.045501 132.440048 
L 346.587496 135.178394 
L 347.12949 133.913597 
L 347.671484 133.987275 
L 348.213478 137.284342 
L 348.755473 134.054812 
L 349.297467 135.669577 
L 349.839461 130.966498 
L 350.381455 133.846059 
L 350.923449 133.704844 
L 351.465444 131.813789 
L 352.007438 135.460824 
L 352.549432 135.319609 
L 353.091426 133.846059 
L 353.633421 133.637307 
L 354.175415 133.072446 
L 354.717409 137.351879 
L 355.259403 136.793159 
L 355.801398 135.952007 
L 356.343392 130.407777 
L 356.885386 134.337243 
L 357.42738 132.65494 
L 357.969375 132.022542 
L 358.511369 133.354876 
L 359.595357 132.304972 
L 360.137351 131.598896 
L 360.679346 135.87833 
L 361.22134 132.931231 
L 361.763334 136.16076 
L 362.305328 135.528362 
L 362.847323 132.163757 
L 363.389317 132.722478 
L 363.931311 134.828426 
L 364.473305 132.022542 
L 365.0153 135.245931 
L 365.557294 134.478458 
L 366.099288 132.304972 
L 366.641282 135.87833 
L 367.183276 135.669577 
L 367.725271 133.846059 
L 368.267265 132.931231 
L 368.809259 134.687211 
L 369.351253 133.846059 
L 369.893248 134.337243 
L 370.435242 134.478458 
L 370.977236 130.690207 
L 371.51923 133.213661 
L 372.061225 132.440048 
L 372.603219 134.969641 
L 373.145213 138.051815 
L 373.687207 137.9106 
L 374.229202 136.719481 
L 374.771196 137.001911 
L 375.31319 134.895963 
L 375.855184 134.263565 
L 376.397178 136.228298 
L 376.939173 137.210664 
L 377.481167 135.810792 
L 378.023161 133.846059 
L 378.565155 135.460824 
L 379.10715 137.9106 
L 379.649144 133.704844 
L 380.191138 133.704844 
L 380.733132 131.390143 
L 381.275127 138.401783 
L 381.817121 134.12849 
L 382.359115 133.913597 
L 382.901109 130.831423 
L 383.443103 136.019545 
L 384.527092 134.687211 
L 385.069086 133.213661 
L 385.61108 139.38415 
L 386.153075 138.193031 
L 386.695069 135.952007 
L 387.237063 139.457827 
L 387.779057 134.687211 
L 388.863046 138.334246 
L 389.40504 135.87833 
L 389.947034 138.892967 
L 390.489028 137.63431 
L 391.031023 134.828426 
L 391.031023 134.828426 
" style="fill:none;stroke:#2ca02c;stroke-linecap:square;stroke-width:1.5;"/>
   </g>
   <g id="line2d_20">
    <path clip-path="url(#pf8a98a3f9d)" d="M 66.376477 20.953743 
L 66.918472 21.62912 
L 67.460466 21.751916 
L 68.00246 21.199335 
L 68.544454 23.532455 
L 69.086448 22.427293 
L 69.628443 23.225466 
L 70.170437 22.611487 
L 70.712431 19.971377 
L 71.254425 21.015141 
L 71.79642 21.199335 
L 72.338414 23.96224 
L 72.880408 20.646754 
L 73.422402 21.076539 
L 73.964397 20.585356 
L 74.506391 23.225466 
L 75.048385 24.576219 
L 75.590379 22.058905 
L 76.132373 22.427293 
L 76.674368 22.181701 
L 77.216362 23.96224 
L 77.758356 21.322131 
L 78.30035 22.181701 
L 78.842345 22.058905 
L 79.384339 21.62912 
L 79.926333 22.488691 
L 80.468327 22.058905 
L 81.010322 23.778047 
L 81.552316 24.453423 
L 82.09431 23.10267 
L 82.636304 20.094173 
L 83.178298 23.164068 
L 83.720293 21.93611 
L 84.262287 20.46256 
L 84.804281 23.225466 
L 85.346275 20.032775 
L 85.88827 21.997508 
L 86.430264 23.286863 
L 86.972258 21.813314 
L 87.514252 24.330628 
L 88.056247 24.146434 
L 88.598241 23.471057 
L 89.140235 21.93611 
L 89.682229 22.120303 
L 90.224224 22.181701 
L 90.766218 19.848581 
L 91.308212 24.576219 
L 91.850206 23.716649 
L 92.3922 21.62912 
L 92.934195 21.322131 
L 93.476189 19.787183 
L 94.018183 22.488691 
L 94.560177 24.944607 
L 95.102172 21.506324 
L 95.644166 21.813314 
L 96.18616 20.585356 
L 96.728154 22.79568 
L 97.270149 25.926973 
L 97.812143 22.672884 
L 98.354137 24.085036 
L 98.896131 23.409659 
L 99.438125 22.058905 
L 99.98012 22.79568 
L 100.522114 21.567722 
L 101.064108 21.199335 
L 101.606102 22.120303 
L 102.148097 23.164068 
L 102.690091 19.296 
L 103.232085 23.655251 
L 103.774079 22.550089 
L 104.316074 23.96224 
L 104.858068 20.585356 
L 105.400062 22.181701 
L 105.942056 24.207832 
L 106.484051 21.997508 
L 107.026045 20.830947 
L 107.568039 23.900842 
L 108.110033 21.322131 
L 108.652027 24.207832 
L 109.194022 24.637617 
L 109.736016 23.286863 
L 110.27801 21.997508 
L 110.820004 20.339764 
L 111.361999 19.602989 
L 111.903993 23.900842 
L 112.445987 21.62912 
L 112.987981 23.471057 
L 113.529976 21.690518 
" style="fill:none;stroke:#d62728;stroke-linecap:square;stroke-width:1.5;"/>
   </g>
   <g id="line2d_21"/>
   <g id="line2d_22"/>
   <g id="line2d_23"/>
   <g id="line2d_24"/>
   <g id="line2d_25"/>
   <g id="patch_3">
    <path d="M 50.14375 273.312 
L 50.14375 7.2 
" style="fill:none;stroke:#000000;stroke-linecap:square;stroke-linejoin:miter;stroke-width:0.8;"/>
   </g>
   <g id="patch_4">
    <path d="M 407.26375 273.312 
L 407.26375 7.2 
" style="fill:none;stroke:#000000;stroke-linecap:square;stroke-linejoin:miter;stroke-width:0.8;"/>
   </g>
   <g id="patch_5">
    <path d="M 50.14375 273.312 
L 407.26375 273.312 
" style="fill:none;stroke:#000000;stroke-linecap:square;stroke-linejoin:miter;stroke-width:0.8;"/>
   </g>
   <g id="patch_6">
    <path d="M 50.14375 7.2 
L 407.26375 7.2 
" style="fill:none;stroke:#000000;stroke-linecap:square;stroke-linejoin:miter;stroke-width:0.8;"/>
   </g>
   <g id="legend_1">
    <g id="patch_7">
     <path d="M 286.754375 88.590625 
L 400.26375 88.590625 
Q 402.26375 88.590625 402.26375 86.590625 
L 402.26375 14.2 
Q 402.26375 12.2 400.26375 12.2 
L 286.754375 12.2 
Q 284.754375 12.2 284.754375 14.2 
L 284.754375 86.590625 
Q 284.754375 88.590625 286.754375 88.590625 
z
" style="fill:#ffffff;opacity:0.8;stroke:#cccccc;stroke-linejoin:miter;"/>
    </g>
    <g id="line2d_26">
     <path d="M 288.754375 20.298437 
L 308.754375 20.298437 
" style="fill:none;"/>
    </g>
    <g id="line2d_27"/>
    <g id="text_19">
     <!-- Model -->
     <defs>
      <path d="M 45.40625 46.390625 
L 45.40625 75.984375 
L 54.390625 75.984375 
L 54.390625 0 
L 45.40625 0 
L 45.40625 8.203125 
Q 42.578125 3.328125 38.25 0.953125 
Q 33.9375 -1.421875 27.875 -1.421875 
Q 17.96875 -1.421875 11.734375 6.484375 
Q 5.515625 14.40625 5.515625 27.296875 
Q 5.515625 40.1875 11.734375 48.09375 
Q 17.96875 56 27.875 56 
Q 33.9375 56 38.25 53.625 
Q 42.578125 51.265625 45.40625 46.390625 
z
M 14.796875 27.296875 
Q 14.796875 17.390625 18.875 11.75 
Q 22.953125 6.109375 30.078125 6.109375 
Q 37.203125 6.109375 41.296875 11.75 
Q 45.40625 17.390625 45.40625 27.296875 
Q 45.40625 37.203125 41.296875 42.84375 
Q 37.203125 48.484375 30.078125 48.484375 
Q 22.953125 48.484375 18.875 42.84375 
Q 14.796875 37.203125 14.796875 27.296875 
z
" id="DejaVuSans-100"/>
     </defs>
     <g transform="translate(316.754375 23.798437)scale(0.1 -0.1)">
      <use xlink:href="#DejaVuSans-77"/>
      <use x="86.279297" xlink:href="#DejaVuSans-111"/>
      <use x="147.460938" xlink:href="#DejaVuSans-100"/>
      <use x="210.9375" xlink:href="#DejaVuSans-101"/>
      <use x="272.460938" xlink:href="#DejaVuSans-108"/>
     </g>
    </g>
    <g id="line2d_28">
     <path d="M 288.754375 34.976562 
L 308.754375 34.976562 
" style="fill:none;stroke:#1f77b4;stroke-linecap:square;stroke-width:1.5;"/>
    </g>
    <g id="line2d_29"/>
    <g id="text_20">
     <!-- GMF -->
     <defs>
      <path d="M 59.515625 10.40625 
L 59.515625 29.984375 
L 43.40625 29.984375 
L 43.40625 38.09375 
L 69.28125 38.09375 
L 69.28125 6.78125 
Q 63.578125 2.734375 56.6875 0.65625 
Q 49.8125 -1.421875 42 -1.421875 
Q 24.90625 -1.421875 15.25 8.5625 
Q 5.609375 18.5625 5.609375 36.375 
Q 5.609375 54.25 15.25 64.234375 
Q 24.90625 74.21875 42 74.21875 
Q 49.125 74.21875 55.546875 72.453125 
Q 61.96875 70.703125 67.390625 67.28125 
L 67.390625 56.78125 
Q 61.921875 61.421875 55.765625 63.765625 
Q 49.609375 66.109375 42.828125 66.109375 
Q 29.4375 66.109375 22.71875 58.640625 
Q 16.015625 51.171875 16.015625 36.375 
Q 16.015625 21.625 22.71875 14.15625 
Q 29.4375 6.6875 42.828125 6.6875 
Q 48.046875 6.6875 52.140625 7.59375 
Q 56.25 8.5 59.515625 10.40625 
z
" id="DejaVuSans-71"/>
      <path d="M 9.8125 72.90625 
L 51.703125 72.90625 
L 51.703125 64.59375 
L 19.671875 64.59375 
L 19.671875 43.109375 
L 48.578125 43.109375 
L 48.578125 34.8125 
L 19.671875 34.8125 
L 19.671875 0 
L 9.8125 0 
z
" id="DejaVuSans-70"/>
     </defs>
     <g transform="translate(316.754375 38.476562)scale(0.1 -0.1)">
      <use xlink:href="#DejaVuSans-71"/>
      <use x="77.490234" xlink:href="#DejaVuSans-77"/>
      <use x="163.769531" xlink:href="#DejaVuSans-70"/>
     </g>
    </g>
    <g id="line2d_30">
     <path d="M 288.754375 49.654687 
L 308.754375 49.654687 
" style="fill:none;stroke:#ff7f0e;stroke-linecap:square;stroke-width:1.5;"/>
    </g>
    <g id="line2d_31"/>
    <g id="text_21">
     <!-- MLP -->
     <defs>
      <path d="M 9.8125 72.90625 
L 19.671875 72.90625 
L 19.671875 8.296875 
L 55.171875 8.296875 
L 55.171875 0 
L 9.8125 0 
z
" id="DejaVuSans-76"/>
      <path d="M 19.671875 64.796875 
L 19.671875 37.40625 
L 32.078125 37.40625 
Q 38.96875 37.40625 42.71875 40.96875 
Q 46.484375 44.53125 46.484375 51.125 
Q 46.484375 57.671875 42.71875 61.234375 
Q 38.96875 64.796875 32.078125 64.796875 
z
M 9.8125 72.90625 
L 32.078125 72.90625 
Q 44.34375 72.90625 50.609375 67.359375 
Q 56.890625 61.8125 56.890625 51.125 
Q 56.890625 40.328125 50.609375 34.8125 
Q 44.34375 29.296875 32.078125 29.296875 
L 19.671875 29.296875 
L 19.671875 0 
L 9.8125 0 
z
" id="DejaVuSans-80"/>
     </defs>
     <g transform="translate(316.754375 53.154687)scale(0.1 -0.1)">
      <use xlink:href="#DejaVuSans-77"/>
      <use x="86.279297" xlink:href="#DejaVuSans-76"/>
      <use x="141.992188" xlink:href="#DejaVuSans-80"/>
     </g>
    </g>
    <g id="line2d_32">
     <path d="M 288.754375 64.332812 
L 308.754375 64.332812 
" style="fill:none;stroke:#2ca02c;stroke-linecap:square;stroke-width:1.5;"/>
    </g>
    <g id="line2d_33"/>
    <g id="text_22">
     <!-- NN from scratch -->
     <defs>
      <path d="M 9.8125 72.90625 
L 23.09375 72.90625 
L 55.421875 11.921875 
L 55.421875 72.90625 
L 64.984375 72.90625 
L 64.984375 0 
L 51.703125 0 
L 19.390625 60.984375 
L 19.390625 0 
L 9.8125 0 
z
" id="DejaVuSans-78"/>
      <path id="DejaVuSans-32"/>
      <path d="M 37.109375 75.984375 
L 37.109375 68.5 
L 28.515625 68.5 
Q 23.6875 68.5 21.796875 66.546875 
Q 19.921875 64.59375 19.921875 59.515625 
L 19.921875 54.6875 
L 34.71875 54.6875 
L 34.71875 47.703125 
L 19.921875 47.703125 
L 19.921875 0 
L 10.890625 0 
L 10.890625 47.703125 
L 2.296875 47.703125 
L 2.296875 54.6875 
L 10.890625 54.6875 
L 10.890625 58.5 
Q 10.890625 67.625 15.140625 71.796875 
Q 19.390625 75.984375 28.609375 75.984375 
z
" id="DejaVuSans-102"/>
      <path d="M 52 44.1875 
Q 55.375 50.25 60.0625 53.125 
Q 64.75 56 71.09375 56 
Q 79.640625 56 84.28125 50.015625 
Q 88.921875 44.046875 88.921875 33.015625 
L 88.921875 0 
L 79.890625 0 
L 79.890625 32.71875 
Q 79.890625 40.578125 77.09375 44.375 
Q 74.3125 48.1875 68.609375 48.1875 
Q 61.625 48.1875 57.5625 43.546875 
Q 53.515625 38.921875 53.515625 30.90625 
L 53.515625 0 
L 44.484375 0 
L 44.484375 32.71875 
Q 44.484375 40.625 41.703125 44.40625 
Q 38.921875 48.1875 33.109375 48.1875 
Q 26.21875 48.1875 22.15625 43.53125 
Q 18.109375 38.875 18.109375 30.90625 
L 18.109375 0 
L 9.078125 0 
L 9.078125 54.6875 
L 18.109375 54.6875 
L 18.109375 46.1875 
Q 21.1875 51.21875 25.484375 53.609375 
Q 29.78125 56 35.6875 56 
Q 41.65625 56 45.828125 52.96875 
Q 50 49.953125 52 44.1875 
z
" id="DejaVuSans-109"/>
      <path d="M 44.28125 53.078125 
L 44.28125 44.578125 
Q 40.484375 46.53125 36.375 47.5 
Q 32.28125 48.484375 27.875 48.484375 
Q 21.1875 48.484375 17.84375 46.4375 
Q 14.5 44.390625 14.5 40.28125 
Q 14.5 37.15625 16.890625 35.375 
Q 19.28125 33.59375 26.515625 31.984375 
L 29.59375 31.296875 
Q 39.15625 29.25 43.1875 25.515625 
Q 47.21875 21.78125 47.21875 15.09375 
Q 47.21875 7.46875 41.1875 3.015625 
Q 35.15625 -1.421875 24.609375 -1.421875 
Q 20.21875 -1.421875 15.453125 -0.5625 
Q 10.6875 0.296875 5.421875 2 
L 5.421875 11.28125 
Q 10.40625 8.6875 15.234375 7.390625 
Q 20.0625 6.109375 24.8125 6.109375 
Q 31.15625 6.109375 34.5625 8.28125 
Q 37.984375 10.453125 37.984375 14.40625 
Q 37.984375 18.0625 35.515625 20.015625 
Q 33.0625 21.96875 24.703125 23.78125 
L 21.578125 24.515625 
Q 13.234375 26.265625 9.515625 29.90625 
Q 5.8125 33.546875 5.8125 39.890625 
Q 5.8125 47.609375 11.28125 51.796875 
Q 16.75 56 26.8125 56 
Q 31.78125 56 36.171875 55.265625 
Q 40.578125 54.546875 44.28125 53.078125 
z
" id="DejaVuSans-115"/>
      <path d="M 54.890625 33.015625 
L 54.890625 0 
L 45.90625 0 
L 45.90625 32.71875 
Q 45.90625 40.484375 42.875 44.328125 
Q 39.84375 48.1875 33.796875 48.1875 
Q 26.515625 48.1875 22.3125 43.546875 
Q 18.109375 38.921875 18.109375 30.90625 
L 18.109375 0 
L 9.078125 0 
L 9.078125 75.984375 
L 18.109375 75.984375 
L 18.109375 46.1875 
Q 21.34375 51.125 25.703125 53.5625 
Q 30.078125 56 35.796875 56 
Q 45.21875 56 50.046875 50.171875 
Q 54.890625 44.34375 54.890625 33.015625 
z
" id="DejaVuSans-104"/>
     </defs>
     <g transform="translate(316.754375 67.832812)scale(0.1 -0.1)">
      <use xlink:href="#DejaVuSans-78"/>
      <use x="74.804688" xlink:href="#DejaVuSans-78"/>
      <use x="149.609375" xlink:href="#DejaVuSans-32"/>
      <use x="181.396484" xlink:href="#DejaVuSans-102"/>
      <use x="216.601562" xlink:href="#DejaVuSans-114"/>
      <use x="257.683594" xlink:href="#DejaVuSans-111"/>
      <use x="318.865234" xlink:href="#DejaVuSans-109"/>
      <use x="416.277344" xlink:href="#DejaVuSans-32"/>
      <use x="448.064453" xlink:href="#DejaVuSans-115"/>
      <use x="500.164062" xlink:href="#DejaVuSans-99"/>
      <use x="555.144531" xlink:href="#DejaVuSans-114"/>
      <use x="596.257812" xlink:href="#DejaVuSans-97"/>
      <use x="657.537109" xlink:href="#DejaVuSans-116"/>
      <use x="696.746094" xlink:href="#DejaVuSans-99"/>
      <use x="751.726562" xlink:href="#DejaVuSans-104"/>
     </g>
    </g>
    <g id="line2d_34">
     <path d="M 288.754375 79.010937 
L 308.754375 79.010937 
" style="fill:none;stroke:#d62728;stroke-linecap:square;stroke-width:1.5;"/>
    </g>
    <g id="line2d_35"/>
    <g id="text_23">
     <!-- NN pretrained -->
     <defs>
      <path d="M 18.109375 8.203125 
L 18.109375 -20.796875 
L 9.078125 -20.796875 
L 9.078125 54.6875 
L 18.109375 54.6875 
L 18.109375 46.390625 
Q 20.953125 51.265625 25.265625 53.625 
Q 29.59375 56 35.59375 56 
Q 45.5625 56 51.78125 48.09375 
Q 58.015625 40.1875 58.015625 27.296875 
Q 58.015625 14.40625 51.78125 6.484375 
Q 45.5625 -1.421875 35.59375 -1.421875 
Q 29.59375 -1.421875 25.265625 0.953125 
Q 20.953125 3.328125 18.109375 8.203125 
z
M 48.6875 27.296875 
Q 48.6875 37.203125 44.609375 42.84375 
Q 40.53125 48.484375 33.40625 48.484375 
Q 26.265625 48.484375 22.1875 42.84375 
Q 18.109375 37.203125 18.109375 27.296875 
Q 18.109375 17.390625 22.1875 11.75 
Q 26.265625 6.109375 33.40625 6.109375 
Q 40.53125 6.109375 44.609375 11.75 
Q 48.6875 17.390625 48.6875 27.296875 
z
" id="DejaVuSans-112"/>
     </defs>
     <g transform="translate(316.754375 82.510937)scale(0.1 -0.1)">
      <use xlink:href="#DejaVuSans-78"/>
      <use x="74.804688" xlink:href="#DejaVuSans-78"/>
      <use x="149.609375" xlink:href="#DejaVuSans-32"/>
      <use x="181.396484" xlink:href="#DejaVuSans-112"/>
      <use x="244.873047" xlink:href="#DejaVuSans-114"/>
      <use x="285.955078" xlink:href="#DejaVuSans-101"/>
      <use x="347.478516" xlink:href="#DejaVuSans-116"/>
      <use x="386.6875" xlink:href="#DejaVuSans-114"/>
      <use x="427.800781" xlink:href="#DejaVuSans-97"/>
      <use x="489.080078" xlink:href="#DejaVuSans-105"/>
      <use x="516.863281" xlink:href="#DejaVuSans-110"/>
      <use x="580.242188" xlink:href="#DejaVuSans-101"/>
      <use x="641.765625" xlink:href="#DejaVuSans-100"/>
     </g>
    </g>
   </g>
  </g>
 </g>
 <defs>
  <clipPath id="pf8a98a3f9d">
   <rect height="266.112" width="357.12" x="50.14375" y="7.2"/>
  </clipPath>
 </defs>
</svg>
